<?xml version="1.0" encoding="UTF-8" standalone="no"?>
<!DOCTYPE svg PUBLIC "-//W3C//DTD SVG 1.1//EN"
 "http://www.w3.org/Graphics/SVG/1.1/DTD/svg11.dtd">
<!-- Generated by graphviz version 2.43.0 (0)
 -->
<!-- Title: G Pages: 1 -->
<svg width="977pt" height="332pt"
 viewBox="0.00 0.00 976.54 332.00" xmlns="http://www.w3.org/2000/svg" xmlns:xlink="http://www.w3.org/1999/xlink">
<g id="graph0" class="graph" transform="scale(1 1) rotate(0) translate(4 328)">
<title>G</title>
<polygon fill="white" stroke="transparent" points="-4,4 -4,-328 972.54,-328 972.54,4 -4,4"/>
<!-- si -->
<g id="node1" class="node">
<title>si</title>
<ellipse fill="none" stroke="black" cx="697.44" cy="-18" rx="33.29" ry="18"/>
<text text-anchor="middle" x="697.44" y="-14.3" font-family="Times,serif" font-size="14.00">bar()</text>
</g>
<!-- sres1 -->
<g id="node2" class="node">
<title>sres1</title>
<ellipse fill="none" stroke="black" cx="602.44" cy="-90" rx="86.38" ry="18"/>
<text text-anchor="middle" x="602.44" y="-86.3" font-family="Times,serif" font-size="14.00">Extract(0, bar())</text>
</g>
<!-- sres1&#45;&gt;si -->
<g id="edge2" class="edge">
<title>sres1&#45;&gt;si</title>
<path fill="none" stroke="black" d="M624.96,-72.41C638.62,-62.34 656.15,-49.42 670.55,-38.82"/>
<polygon fill="black" stroke="black" points="672.63,-41.63 678.61,-32.88 668.48,-35.99 672.63,-41.63"/>
</g>
<!-- sres2 -->
<g id="node3" class="node">
<title>sres2</title>
<ellipse fill="none" stroke="black" cx="793.44" cy="-90" rx="86.38" ry="18"/>
<text text-anchor="middle" x="793.44" y="-86.3" font-family="Times,serif" font-size="14.00">Extract(1, bar())</text>
</g>
<!-- sres2&#45;&gt;si -->
<g id="edge3" class="edge">
<title>sres2&#45;&gt;si</title>
<path fill="none" stroke="black" d="M770.69,-72.41C756.88,-62.34 739.17,-49.42 724.62,-38.82"/>
<polygon fill="black" stroke="black" points="726.62,-35.94 716.48,-32.88 722.49,-41.6 726.62,-35.94"/>
</g>
<!-- sret -->
<g id="node4" class="node">
<title>sret</title>
<ellipse fill="none" stroke="black" cx="602.44" cy="-162" rx="125.38" ry="18"/>
<text text-anchor="middle" x="602.44" y="-158.3" font-family="Times,serif" font-size="14.00">Return(Extract(0, bar()))</text>
</g>
<!-- sret&#45;&gt;sres1 -->
<g id="edge1" class="edge">
<title>sret&#45;&gt;sres1</title>
<path fill="none" stroke="black" d="M602.44,-143.7C602.44,-135.98 602.44,-126.71 602.44,-118.11"/>
<polygon fill="black" stroke="black" points="605.94,-118.1 602.44,-108.1 598.94,-118.1 605.94,-118.1"/>
</g>
<!-- ci -->
<g id="node5" class="node">
<title>ci</title>
<ellipse fill="none" stroke="black" cx="301.44" cy="-90" rx="33.29" ry="18"/>
<text text-anchor="middle" x="301.44" y="-86.3" font-family="Times,serif" font-size="14.00">bar()</text>
</g>
<!-- ci&#45;&gt;si -->
<g id="edge15" class="edge">
<title>ci&#45;&gt;si</title>
<path fill="none" stroke="black" stroke-dasharray="1,5" d="M332.52,-83.51C406.45,-70.44 592.17,-37.61 666.24,-24.52"/>
</g>
<!-- cres1 -->
<g id="node6" class="node">
<title>cres1</title>
<ellipse fill="none" stroke="black" cx="372.44" cy="-162" rx="86.38" ry="18"/>
<text text-anchor="middle" x="372.44" y="-158.3" font-family="Times,serif" font-size="14.00">Extract(0, bar())</text>
</g>
<!-- cres1&#45;&gt;sres1 -->
<g id="edge16" class="edge">
<title>cres1&#45;&gt;sres1</title>
<path fill="none" stroke="black" stroke-dasharray="1,5" d="M419.26,-146.75C459.06,-134.64 515.91,-117.34 555.69,-105.23"/>
</g>
<!-- cres1&#45;&gt;ci -->
<g id="edge5" class="edge">
<title>cres1&#45;&gt;ci</title>
<path fill="none" stroke="black" d="M355.26,-144.05C345.97,-134.9 334.38,-123.47 324.33,-113.57"/>
<polygon fill="black" stroke="black" points="326.6,-110.88 317.02,-106.36 321.68,-115.87 326.6,-110.88"/>
</g>
<!-- cres2 -->
<g id="node7" class="node">
<title>cres2</title>
<ellipse fill="none" stroke="black" cx="86.44" cy="-162" rx="86.38" ry="18"/>
<text text-anchor="middle" x="86.44" y="-158.3" font-family="Times,serif" font-size="14.00">Extract(1, bar())</text>
</g>
<!-- cres2&#45;&gt;ci -->
<g id="edge6" class="edge">
<title>cres2&#45;&gt;ci</title>
<path fill="none" stroke="black" d="M130.99,-146.5C170.23,-133.72 226.74,-115.32 263.77,-103.27"/>
<polygon fill="black" stroke="black" points="265.24,-106.47 273.67,-100.04 263.07,-99.81 265.24,-106.47"/>
</g>
<!-- cret -->
<g id="node8" class="node">
<title>cret</title>
<ellipse fill="none" stroke="black" cx="485.44" cy="-234" rx="125.38" ry="18"/>
<text text-anchor="middle" x="485.44" y="-230.3" font-family="Times,serif" font-size="14.00">Return(Extract(0, bar()))</text>
</g>
<!-- cret&#45;&gt;sret -->
<g id="edge17" class="edge">
<title>cret&#45;&gt;sret</title>
<path fill="none" stroke="black" stroke-dasharray="1,5" d="M513.17,-216.41C531.69,-205.33 555.95,-190.82 574.51,-179.71"/>
</g>
<!-- cret&#45;&gt;cres1 -->
<g id="edge4" class="edge">
<title>cret&#45;&gt;cres1</title>
<path fill="none" stroke="black" d="M458.66,-216.41C443.35,-206.93 423.98,-194.92 407.47,-184.7"/>
<polygon fill="black" stroke="black" points="408.98,-181.52 398.64,-179.23 405.3,-187.47 408.98,-181.52"/>
</g>
<!-- vret -->
<g id="node9" class="node">
<title>vret</title>
<ellipse fill="none" stroke="black" stroke-dasharray="5,2" cx="659.44" cy="-234" rx="30.59" ry="18"/>
<text text-anchor="middle" x="659.44" y="-230.3" font-family="Times,serif" font-size="14.00">$ret</text>
</g>
<!-- vret&#45;&gt;sret -->
<g id="edge7" class="edge">
<title>vret&#45;&gt;sret</title>
<path fill="none" stroke="black" stroke-dasharray="1,5" d="M646.79,-217.46C637.74,-206.35 625.56,-191.39 616.25,-179.96"/>
</g>
<!-- vr1 -->
<g id="node10" class="node">
<title>vr1</title>
<ellipse fill="none" stroke="black" stroke-dasharray="5,2" cx="782.44" cy="-162" rx="37.09" ry="18"/>
<text text-anchor="middle" x="782.44" y="-158.3" font-family="Times,serif" font-size="14.00">$res1</text>
</g>
<!-- vr1&#45;&gt;sres1 -->
<g id="edge8" class="edge">
<title>vr1&#45;&gt;sres1</title>
<path fill="none" stroke="black" stroke-dasharray="1,5" d="M754.32,-150.06C723.96,-138.26 675.41,-119.37 641.39,-106.15"/>
</g>
<!-- vr2 -->
<g id="node11" class="node">
<title>vr2</title>
<ellipse fill="none" stroke="black" stroke-dasharray="5,2" cx="874.44" cy="-162" rx="37.09" ry="18"/>
<text text-anchor="middle" x="874.44" y="-158.3" font-family="Times,serif" font-size="14.00">$res2</text>
</g>
<!-- vr2&#45;&gt;sres2 -->
<g id="edge9" class="edge">
<title>vr2&#45;&gt;sres2</title>
<path fill="none" stroke="black" stroke-dasharray="1,5" d="M856.87,-145.81C843.84,-134.55 826.09,-119.22 812.68,-107.63"/>
</g>
<!-- vb -->
<g id="node12" class="node">
<title>vb</title>
<ellipse fill="none" stroke="black" stroke-dasharray="5,2" cx="933.44" cy="-90" rx="35.19" ry="18"/>
<text text-anchor="middle" x="933.44" y="-86.3" font-family="Times,serif" font-size="14.00">$tmp</text>
</g>
<!-- vb&#45;&gt;si -->
<g id="edge10" class="edge">
<title>vb&#45;&gt;si</title>
<path fill="none" stroke="black" stroke-dasharray="1,5" d="M906.46,-78.35C900.55,-76.15 894.32,-73.92 888.44,-72 832.02,-53.56 764.91,-35.9 727.14,-26.35"/>
</g>
<!-- iret -->
<g id="node13" class="node">
<title>iret</title>
<ellipse fill="none" stroke="black" stroke-dasharray="5,2" cx="485.44" cy="-306" rx="33.29" ry="18"/>
<text text-anchor="middle" x="485.44" y="-302.3" font-family="Times,serif" font-size="14.00">%ret</text>
</g>
<!-- iret&#45;&gt;cret -->
<g id="edge11" class="edge">
<title>iret&#45;&gt;cret</title>
<path fill="none" stroke="black" stroke-dasharray="1,5" d="M485.44,-287.7C485.44,-276.85 485.44,-262.92 485.44,-252.1"/>
</g>
<!-- ir1 -->
<g id="node14" class="node">
<title>ir1</title>
<ellipse fill="none" stroke="black" stroke-dasharray="5,2" cx="315.44" cy="-234" rx="27" ry="18"/>
<text text-anchor="middle" x="315.44" y="-230.3" font-family="Times,serif" font-size="14.00">%a</text>
</g>
<!-- ir1&#45;&gt;cres1 -->
<g id="edge12" class="edge">
<title>ir1&#45;&gt;cres1</title>
<path fill="none" stroke="black" stroke-dasharray="1,5" d="M327.81,-217.81C336.85,-206.71 349.11,-191.65 358.5,-180.13"/>
</g>
<!-- ir2 -->
<g id="node15" class="node">
<title>ir2</title>
<ellipse fill="none" stroke="black" stroke-dasharray="5,2" cx="86.44" cy="-234" rx="27" ry="18"/>
<text text-anchor="middle" x="86.44" y="-230.3" font-family="Times,serif" font-size="14.00">%b</text>
</g>
<!-- ir2&#45;&gt;cres2 -->
<g id="edge13" class="edge">
<title>ir2&#45;&gt;cres2</title>
<path fill="none" stroke="black" stroke-dasharray="1,5" d="M86.44,-215.7C86.44,-204.85 86.44,-190.92 86.44,-180.1"/>
</g>
<!-- ib -->
<g id="node16" class="node">
<title>ib</title>
<ellipse fill="none" stroke="black" stroke-dasharray="5,2" cx="229.44" cy="-162" rx="38.19" ry="18"/>
<text text-anchor="middle" x="229.44" y="-158.3" font-family="Times,serif" font-size="14.00">%tmp</text>
</g>
<!-- ib&#45;&gt;ci -->
<g id="edge14" class="edge">
<title>ib&#45;&gt;ci</title>
<path fill="none" stroke="black" stroke-dasharray="1,5" d="M245.42,-145.46C257.52,-133.7 274.04,-117.64 286,-106.01"/>
</g>
</g>
</svg>
