<?xml version="1.0" encoding="UTF-8" standalone="no" ?>
<!DOCTYPE svg PUBLIC "-//W3C//DTD SVG 1.1//EN" "http://www.w3.org/Graphics/SVG/1.1/DTD/svg11.dtd">
<svg xmlns="http://www.w3.org/2000/svg" xmlns:xlink="http://www.w3.org/1999/xlink" version="1.1" width="500" height="500" viewBox="0 0 500 500" xml:space="preserve">
<desc>Created with Fabric.js 5.3.0</desc>
<defs>
</defs>
<g transform="matrix(1.1972759227 0 0 1.1972759227 451.1695957821 48.8304042179)" id="4T86hSmf1gzGCq4WjI_g8"  >
<path style="stroke: none; stroke-width: 1; stroke-dasharray: none; stroke-linecap: butt; stroke-dashoffset: 0; stroke-linejoin: miter; stroke-miterlimit: 4; fill: rgb(244,230,23); fill-rule: nonzero; opacity: 1;" vector-effect="non-scaling-stroke"  transform=" translate(-40, -40)" d="M 40 19.294 L 50.718 0 L 50.353 22.068 L 69.282 10.718000000000002 L 57.931999999999995 29.647 L 80 29.282 L 60.706 40 L 80 50.718 L 57.932 50.353 L 69.282 69.282 L 50.352999999999994 57.931999999999995 L 50.718 80 L 40 60.706 L 29.282 80 L 29.647 57.932 L 10.718 69.282 L 22.067999999999998 50.352999999999994 L 0 50.718 L 19.294 40 L 0 29.282 L 22.068 29.647 L 10.718000000000002 10.718 L 29.647 22.067999999999998 L 29.282 0 L 40 19.294 z" stroke-linecap="round" />
</g>
<g transform="matrix(1 0 0 1 167.0307252983 203.4450398236)" id="yFcOjxvCSqb_TF3EvsDcV"  >
<path style="stroke: rgb(29,27,106); stroke-width: 0; stroke-dasharray: none; stroke-linecap: butt; stroke-dashoffset: 0; stroke-linejoin: miter; stroke-miterlimit: 4; fill: rgb(244,1,18); fill-rule: nonzero; opacity: 1;" vector-effect="non-scaling-stroke"  transform=" translate(-37.3462196229, -37.3462196229)" d="M 37.34622 0 C 57.961330000000004 0 74.69244 16.73111 74.69244 37.34622 C 74.69244 57.961330000000004 57.961330000000004 74.69244 37.34622 74.69244 C 16.73111 74.69244 0 57.961330000000004 0 37.34622 C 0 16.73111 16.73111 0 37.34622 0 z" stroke-linecap="round" />
</g>
<g transform="matrix(2.390884849 0 0 2.390884849 130.3208939021 166.0988202007)" id="65eXLjpDfnxiUtJXXdrBv"  >
<path style="stroke: rgb(0,0,0); stroke-width: 1; stroke-dasharray: none; stroke-linecap: butt; stroke-dashoffset: 0; stroke-linejoin: miter; stroke-miterlimit: 4; fill: rgb(255,255,255); fill-opacity: 0; fill-rule: nonzero; opacity: 1;" vector-effect="non-scaling-stroke"  transform=" translate(0, 0)" d="M 30.7652 -23.28647 L -30.7652 23.286459999999998" stroke-linecap="round" />
</g>
<g transform="matrix(2.605276407 0 0 2.605276407 136.8081801035 212.8042977448)" id="3yjFxd7rMhMMsYkbKV6JD"  >
<path style="stroke: rgb(0,0,0); stroke-width: 1; stroke-dasharray: none; stroke-linecap: butt; stroke-dashoffset: 0; stroke-linejoin: miter; stroke-miterlimit: 4; fill: rgb(255,255,255); fill-opacity: 0; fill-rule: nonzero; opacity: 1;" vector-effect="non-scaling-stroke"  transform=" translate(0, 0)" d="M 30.7652 -23.28647 L -30.7652 23.286459999999998" stroke-linecap="round" />
</g>
<g transform="matrix(1.6151060728 0 0 1.6151060728 104.3549734699 205.7583771935)" id="lQOWPptQt3r5e4JAgNaQP"  >
<path style="stroke: rgb(0,0,0); stroke-width: 1; stroke-dasharray: none; stroke-linecap: butt; stroke-dashoffset: 0; stroke-linejoin: miter; stroke-miterlimit: 4; fill: rgb(255,255,255); fill-opacity: 0; fill-rule: nonzero; opacity: 1;" vector-effect="non-scaling-stroke"  transform=" translate(0, 0)" d="M 30.7652 -23.28647 L -30.7652 23.286459999999998" stroke-linecap="round" />
</g>
<g transform="matrix(0.2658669779 0 0 0.8568580253 210.9184873711 130.553997316)" id="aAh7O3Bmihsyx-fO7lGa7"  >
<path style="stroke: rgb(79,168,36); stroke-width: 0; stroke-dasharray: none; stroke-linecap: butt; stroke-dashoffset: 0; stroke-linejoin: miter; stroke-miterlimit: 4; fill: rgb(23,110,244); fill-rule: nonzero; opacity: 1;" vector-effect="non-scaling-stroke"  transform=" translate(0, 0)" d="M -24.60457 -24.60457 L 24.60457 -24.60457 L 24.60457 24.60457 L -24.60457 24.60457 z" stroke-linecap="round" />
</g>
<g transform="matrix(0.7789907159 0 0 0.7789907159 250 62.3386241439)" id="QMWcoXLXDrhIylLQ-vN_z"  >
<path style="stroke: rgb(0,0,0); stroke-width: 1; stroke-dasharray: none; stroke-linecap: butt; stroke-dashoffset: 0; stroke-linejoin: miter; stroke-miterlimit: 4; fill: rgb(255,255,255); fill-opacity: 0; fill-rule: nonzero; opacity: 1;" vector-effect="non-scaling-stroke"  transform=" translate(0, 0)" d="M 30.7652 -23.28647 L -30.7652 23.286459999999998" stroke-linecap="round" />
</g>
<g transform="matrix(0.7789907159 0 0 0.7789907159 310.9850752654 160.3623313063)" id="4G_5cb8iN8B6Wfrw4junt"  >
<path style="stroke: rgb(0,0,0); stroke-width: 1; stroke-dasharray: none; stroke-linecap: butt; stroke-dashoffset: 0; stroke-linejoin: miter; stroke-miterlimit: 4; fill: rgb(255,255,255); fill-opacity: 0; fill-rule: nonzero; opacity: 1;" vector-effect="non-scaling-stroke"  transform=" translate(0, 0.000005)" d="M 30.7652 -23.28647 L -30.7652 23.286459999999998" stroke-linecap="round" />
</g>
<g transform="matrix(0.7789907159 0 0 0.7789907159 282.3723588456 111.9140572749)" id="BAMw12xIWY1DkSWrYoM0M"  >
<path style="stroke: rgb(0,0,0); stroke-width: 1; stroke-dasharray: none; stroke-linecap: butt; stroke-dashoffset: 0; stroke-linejoin: miter; stroke-miterlimit: 4; fill: rgb(255,255,255); fill-opacity: 0; fill-rule: nonzero; opacity: 1;" vector-effect="non-scaling-stroke"  transform=" translate(0, 0.000005)" d="M 30.7652 -23.28647 L -30.7652 23.286459999999998" stroke-linecap="round" />
</g>
<g transform="matrix(2.0357073189 0 0 2.0357073189 123.3777411081 281.9679945319)" id="T9S0FnL3mXN4U1vJVIzsr"  >
<path style="stroke: rgb(0,0,0); stroke-width: 1; stroke-dasharray: none; stroke-linecap: butt; stroke-dashoffset: 0; stroke-linejoin: miter; stroke-miterlimit: 4; fill: rgb(255,255,255); fill-opacity: 0; fill-rule: nonzero; opacity: 1;" vector-effect="non-scaling-stroke"  transform=" translate(0, 0)" d="M 30.7652 -23.28647 L -30.7652 23.286459999999998" stroke-linecap="round" />
</g>
<g transform="matrix(0.5201948619 0 0 2.6134062877 56.1563298812 301.5298732395)" id="zfEK5jnSPdlD5xcCKIFP5"  >
<path style="stroke: rgb(149,182,158); stroke-width: 0; stroke-dasharray: none; stroke-linecap: butt; stroke-dashoffset: 0; stroke-linejoin: miter; stroke-miterlimit: 4; fill: rgb(0,0,0); fill-rule: nonzero; opacity: 1;" vector-effect="non-scaling-stroke"  transform=" translate(0, 0)" d="M -10.54482 -10.54482 L 10.54481 -10.54482 L 10.54481 10.54481 L -10.54482 10.54481 z" stroke-linecap="round" />
</g>
<g transform="matrix(0.5201948619 0 0 5.2268125753 56.1563288211 164.587146401)" id="IXWuus9ucLe41uYeGwppi"  >
<path style="stroke: rgb(149,182,158); stroke-width: 1; stroke-dasharray: none; stroke-linecap: butt; stroke-dashoffset: 0; stroke-linejoin: miter; stroke-miterlimit: 4; fill: rgb(0,0,0); fill-opacity: 0; fill-rule: nonzero; opacity: 1;" vector-effect="non-scaling-stroke"  transform=" translate(0.000005, 0.000005)" d="M -10.54482 -10.54482 L 10.54481 -10.54482 L 10.54481 10.54481 L -10.54482 10.54481 z" stroke-linecap="round" />
</g>
<g transform="matrix(0.5201948619 0 0 5.2268125753 55.6563309413 384.7035360341)" id="zmd60mB0Al4jpjwyum_Q-"  >
<path style="stroke: rgb(149,182,158); stroke-width: 1; stroke-dasharray: none; stroke-linecap: butt; stroke-dashoffset: 0; stroke-linejoin: miter; stroke-miterlimit: 4; fill: rgb(0,0,0); fill-opacity: 0; fill-rule: nonzero; opacity: 1;" vector-effect="non-scaling-stroke"  transform=" translate(0.000005, 0.000005)" d="M -10.54482 -10.54482 L 10.54481 -10.54482 L 10.54481 10.54481 L -10.54482 10.54481 z" stroke-linecap="round" />
</g>
<g transform="matrix(0.5201948619 0 0 2.6134062877 56.6563288211 246.4140962676)" id="zLf15ner2_b8vo1pSfGy1"  >
<path style="stroke: rgb(149,182,158); stroke-width: 0; stroke-dasharray: none; stroke-linecap: butt; stroke-dashoffset: 0; stroke-linejoin: miter; stroke-miterlimit: 4; fill: rgb(133,133,133); fill-rule: nonzero; opacity: 1;" vector-effect="non-scaling-stroke"  transform=" translate(0.000005, 0.000005)" d="M -10.54482 -10.54482 L 10.54481 -10.54482 L 10.54481 10.54481 L -10.54482 10.54481 z" stroke-linecap="round" />
</g>
</svg>