<?xml version="1.0" encoding="UTF-8" standalone="no"?><!DOCTYPE svg PUBLIC "-//W3C//DTD SVG 1.1//EN" "http://www.w3.org/Graphics/SVG/1.1/DTD/svg11.dtd"><!-- Generated by graphviz version 2.40.1 (20161225.0304)
 --><!-- Title: G Pages: 1 --><svg xmlns="http://www.w3.org/2000/svg" xmlns:xlink="http://www.w3.org/1999/xlink" width="243pt" height="742pt" viewBox="0.00 0.00 242.82 742.40">
<g id="graph0" class="graph" transform="scale(1 1) rotate(0) translate(4 738.4)">
<title>G</title>
<polygon fill="#ffffff" stroke="transparent" points="-4,4 -4,-738.4 238.817,-738.4 238.817,4 -4,4"/>
<!-- j -->
<g id="node1" class="node">
<title>j</title>
<polygon fill="none" stroke="#000000" points="172,-612 118,-612 118,-576 172,-576 172,-612"/>
<text text-anchor="middle" x="145" y="-589.8" font-family="Times,serif" font-size="14.00" fill="#000000">j = 0</text>
</g>
<!-- meet2 -->
<g id="node5" class="node">
<title>meet2</title>
<polygon fill="none" stroke="#000000" points="172,-506.4 118,-506.4 118,-470.4 172,-470.4 172,-506.4"/>
<text text-anchor="middle" x="145" y="-484.2" font-family="Times,serif" font-size="14.00" fill="#000000">meet</text>
</g>
<!-- j&#45;&gt;meet2 -->
<g id="edge2" class="edge">
<title>j-&gt;meet2</title>
<path fill="none" stroke="#000000" d="M145,-575.6059C145,-559.3279 145,-535.3223 145,-516.6163"/>
<polygon fill="#000000" stroke="#000000" points="148.5001,-516.5833 145,-506.5833 141.5001,-516.5834 148.5001,-516.5833"/>
<text text-anchor="middle" x="172.4085" y="-545.4" font-family="Times,serif" font-size="14.00" fill="#000000">j: [0, 0]</text>
<text text-anchor="middle" x="172.4085" y="-528.6" font-family="Times,serif" font-size="14.00" fill="#000000">len: [0, 0]</text>
</g>
<!-- if1 -->
<g id="node2" class="node">
<title>if1</title>
</g>
<!-- if1&#45;&gt;j -->
<g id="edge1" class="edge">
<title>if1-&gt;j</title>
<path fill="none" stroke="#000000" d="M145,-698.3395C145,-678.2712 145,-645.6113 145,-622.1752"/>
<polygon fill="#000000" stroke="#000000" points="148.5001,-622.1346 145,-612.1346 141.5001,-622.1347 148.5001,-622.1346"/>
<text text-anchor="middle" x="172.4085" y="-667.8" font-family="Times,serif" font-size="14.00" fill="#000000">F</text>
<text text-anchor="middle" x="172.4085" y="-651" font-family="Times,serif" font-size="14.00" fill="#000000">i: [0, 0]</text>
<text text-anchor="middle" x="172.4085" y="-634.2" font-family="Times,serif" font-size="14.00" fill="#000000">len: [0, 0]</text>
</g>
<!-- jpp -->
<g id="node3" class="node">
<title>jpp</title>
<polygon fill="none" stroke="#000000" points="54,-148.8 0,-148.8 0,-112.8 54,-112.8 54,-148.8"/>
<text text-anchor="middle" x="27" y="-126.6" font-family="Times,serif" font-size="14.00" fill="#000000">j++</text>
</g>
<!-- meet3 -->
<g id="node6" class="node">
<title>meet3</title>
<polygon fill="none" stroke="#000000" points="124,-36 70,-36 70,0 124,0 124,-36"/>
<text text-anchor="middle" x="97" y="-13.8" font-family="Times,serif" font-size="14.00" fill="#000000">meet</text>
</g>
<!-- jpp&#45;&gt;meet3 -->
<g id="edge8" class="edge">
<title>jpp-&gt;meet3</title>
<path fill="none" stroke="#000000" d="M22.3449,-112.5875C19.1954,-96.0403 17.3423,-71.5981 28.183,-54 35.4527,-42.1989 47.9803,-34.0705 60.371,-28.5681"/>
<polygon fill="#000000" stroke="#000000" points="61.7258,-31.7961 69.7303,-24.855 59.1443,-25.2895 61.7258,-31.7961"/>
<text text-anchor="middle" x="56.4085" y="-75" font-family="Times,serif" font-size="14.00" fill="#000000">j: [0, 1]</text>
<text text-anchor="middle" x="56.4085" y="-58.2" font-family="Times,serif" font-size="14.00" fill="#000000">len: [0, 1]</text>
</g>
<!-- if2 -->
<g id="node4" class="node">
<title>if2</title>
<polygon fill="none" stroke="#000000" points="141.9416,-400.8 78.0584,-400.8 78.0584,-364.8 141.9416,-364.8 141.9416,-400.8"/>
<text text-anchor="middle" x="110" y="-378.6" font-family="Times,serif" font-size="14.00" fill="#000000">if j &lt; len</text>
</g>
<!-- if3 -->
<g id="node7" class="node">
<title>if3</title>
<polygon fill="none" stroke="#000000" points="68.8332,-278.4 1.1668,-278.4 1.1668,-242.4 68.8332,-242.4 68.8332,-278.4"/>
<text text-anchor="middle" x="35" y="-256.2" font-family="Times,serif" font-size="14.00" fill="#000000">if /* ... */</text>
</g>
<!-- if2&#45;&gt;if3 -->
<g id="edge3" class="edge">
<title>if2-&gt;if3</title>
<path fill="none" stroke="#000000" d="M78.0577,-368.6302C68.7647,-363.0667 59.4417,-355.8176 53.183,-346.8 41.4024,-329.8264 36.9865,-306.7746 35.4458,-288.7506"/>
<polygon fill="#000000" stroke="#000000" points="38.9257,-288.3109 34.8273,-278.5408 31.9385,-288.7342 38.9257,-288.3109"/>
<text text-anchor="middle" x="81.4085" y="-334.2" font-family="Times,serif" font-size="14.00" fill="#000000">T</text>
<text text-anchor="middle" x="81.4085" y="-317.4" font-family="Times,serif" font-size="14.00" fill="#000000">j: [-1, 0]</text>
<text text-anchor="middle" x="81.4085" y="-300.6" font-family="Times,serif" font-size="14.00" fill="#000000">len: [0, 1]</text>
</g>
<!-- exit -->
<g id="node8" class="node">
<title>exit</title>
<polygon fill="none" stroke="#000000" points="141,-278.4 87,-278.4 87,-242.4 141,-242.4 141,-278.4"/>
<text text-anchor="middle" x="114" y="-256.2" font-family="Times,serif" font-size="14.00" fill="#000000">exit</text>
</g>
<!-- if2&#45;&gt;exit -->
<g id="edge6" class="edge">
<title>if2-&gt;exit</title>
<path fill="none" stroke="#000000" d="M110.5902,-364.7395C111.246,-344.6712 112.3134,-312.0113 113.0792,-288.5752"/>
<polygon fill="#000000" stroke="#000000" points="116.5788,-288.6437 113.4074,-278.5346 109.5825,-288.415 116.5788,-288.6437"/>
<text text-anchor="middle" x="116.8913" y="-317.4" font-family="Times,serif" font-size="14.00" fill="#000000">F</text>
</g>
<!-- meet2&#45;&gt;if2 -->
<g id="edge7" class="edge">
<title>meet2-&gt;if2</title>
<path fill="none" stroke="#000000" d="M123.0342,-470.1443C118.2474,-464.9504 113.8275,-458.9153 111.183,-452.4 105.9633,-439.54 105.1887,-424.2112 105.9215,-411.2168"/>
<polygon fill="#000000" stroke="#000000" points="109.4343,-411.2249 106.8271,-400.9559 102.4614,-410.6095 109.4343,-411.2249"/>
<text text-anchor="middle" x="139.4085" y="-439.8" font-family="Times,serif" font-size="14.00" fill="#000000">j: [0, 0]</text>
<text text-anchor="middle" x="139.4085" y="-423" font-family="Times,serif" font-size="14.00" fill="#000000">len: [0, 0]</text>
</g>
<!-- meet3&#45;&gt;meet2 -->
<g id="edge9" class="edge">
<title>meet3-&gt;meet2</title>
<path fill="none" stroke="#000000" d="M121.9027,-36.153C146.3509,-56.2752 180,-91.169 180,-130.8 180,-382.8 180,-382.8 180,-382.8 180,-414.3529 177.2123,-422.9064 166,-452.4 164.8791,-455.3484 163.531,-458.3366 162.0656,-461.2655"/>
<polygon fill="#000000" stroke="#000000" points="158.8526,-459.846 157.1194,-470.2982 164.9923,-463.2081 158.8526,-459.846"/>
<text text-anchor="middle" x="207.4085" y="-264.6" font-family="Times,serif" font-size="14.00" fill="#000000">j: [-1, 1]</text>
<text text-anchor="middle" x="207.4085" y="-247.8" font-family="Times,serif" font-size="14.00" fill="#000000">len: [0, 1]</text>
</g>
<!-- if3&#45;&gt;jpp -->
<g id="edge4" class="edge">
<title>if3-&gt;jpp</title>
<path fill="none" stroke="#000000" d="M30.91,-242.1758C29.8112,-236.5101 28.7666,-230.223 28.183,-224.4 26.0018,-202.6371 25.7871,-177.8869 26.074,-159.3054"/>
<polygon fill="#000000" stroke="#000000" points="29.5765,-159.2191 26.2898,-149.147 22.5781,-159.0704 29.5765,-159.2191"/>
<text text-anchor="middle" x="56.4085" y="-211.8" font-family="Times,serif" font-size="14.00" fill="#000000">T</text>
<text text-anchor="middle" x="56.4085" y="-195" font-family="Times,serif" font-size="14.00" fill="#000000">j: [-1, 0]</text>
<text text-anchor="middle" x="56.4085" y="-178.2" font-family="Times,serif" font-size="14.00" fill="#000000">len: [0, 1]</text>
</g>
<!-- if3&#45;&gt;meet3 -->
<g id="edge5" class="edge">
<title>if3-&gt;meet3</title>
<path fill="none" stroke="#000000" d="M67.2169,-242.3529C73.4565,-237.3561 79.2219,-231.357 83,-224.4 113.9837,-167.3475 108.1918,-87.9561 102.1114,-46.2194"/>
<polygon fill="#000000" stroke="#000000" points="105.5495,-45.5517 100.541,-36.2155 98.6342,-46.6373 105.5495,-45.5517"/>
<text text-anchor="middle" x="134.4085" y="-143.4" font-family="Times,serif" font-size="14.00" fill="#000000">F</text>
<text text-anchor="middle" x="134.4085" y="-126.6" font-family="Times,serif" font-size="14.00" fill="#000000">j: [-1, 0]</text>
<text text-anchor="middle" x="134.4085" y="-109.8" font-family="Times,serif" font-size="14.00" fill="#000000">len: [0, 1]</text>
</g>
</g>
</svg>