<?xml version="1.0" encoding="UTF-8" standalone="no"?><!DOCTYPE svg PUBLIC "-//W3C//DTD SVG 1.1//EN" "http://www.w3.org/Graphics/SVG/1.1/DTD/svg11.dtd"><!-- Generated by graphviz version 2.40.1 (20161225.0304)
 --><!-- Title: G Pages: 1 --><svg xmlns="http://www.w3.org/2000/svg" xmlns:xlink="http://www.w3.org/1999/xlink" width="170pt" height="206pt" viewBox="0.00 0.00 169.93 205.80">
<g id="graph0" class="graph" transform="scale(1 1) rotate(0) translate(4 201.8)">
<title>G</title>
<polygon fill="#ffffff" stroke="transparent" points="-4,4 -4,-201.8 165.9264,-201.8 165.9264,4 -4,4"/>
<!-- A -->
<g id="node1" class="node">
<title>A</title>
</g>
<!-- meet -->
<g id="node4" class="node">
<title>meet</title>
<polygon fill="none" stroke="#000000" points="91,-109 37,-109 37,-73 91,-73 91,-109"/>
<text text-anchor="middle" x="64" y="-86.8" font-family="Times,serif" font-size="14.00" fill="#000000">meet</text>
</g>
<!-- A&#45;&gt;meet -->
<g id="edge1" class="edge">
<title>A-&gt;meet:nw</title>
<path fill="none" stroke="#000000" d="M24.0881,-161.788C22.8661,-148.5829 23.1822,-130.6761 30.8455,-117.1569"/>
<polygon fill="#000000" stroke="#000000" points="33.7708,-119.0908 37,-109 28.183,-114.8746 33.7708,-119.0908"/>
<text text-anchor="middle" x="52.4632" y="-131.2" font-family="Times,serif" font-size="14.00" fill="#000000">a: [0, 10]</text>
</g>
<!-- B -->
<g id="node2" class="node">
<title>B</title>
</g>
<!-- B&#45;&gt;meet -->
<g id="edge2" class="edge">
<title>B-&gt;meet:ne</title>
<path fill="none" stroke="#000000" d="M103.9119,-161.788C105.1339,-148.5829 104.8178,-130.6761 97.1545,-117.1569"/>
<polygon fill="#000000" stroke="#000000" points="99.817,-114.8746 91,-109 94.2292,-119.0908 99.817,-114.8746"/>
<text text-anchor="middle" x="132.9632" y="-131.2" font-family="Times,serif" font-size="14.00" fill="#000000">a: [20, 30]</text>
</g>
<!-- C -->
<g id="node3" class="node">
<title>C</title>
</g>
<!-- meet&#45;&gt;C -->
<g id="edge3" class="edge">
<title>meet-&gt;C</title>
<path fill="none" stroke="#000000" d="M64,-72.9551C64,-64.8828 64,-55.1764 64,-46.1817"/>
<polygon fill="#000000" stroke="#000000" points="67.5001,-46.0903 64,-36.0904 60.5001,-46.0904 67.5001,-46.0903"/>
</g>
</g>
</svg>