<?xml version="1.0" encoding="UTF-8" standalone="no"?><!DOCTYPE svg PUBLIC "-//W3C//DTD SVG 1.1//EN" "http://www.w3.org/Graphics/SVG/1.1/DTD/svg11.dtd"><!-- Generated by graphviz version 2.40.1 (20161225.0304)
 --><!-- Title: G Pages: 1 --><svg xmlns="http://www.w3.org/2000/svg" xmlns:xlink="http://www.w3.org/1999/xlink" width="222pt" height="634pt" viewBox="0.00 0.00 222.02 634.00">
<g id="graph0" class="graph" transform="scale(1 1) rotate(0) translate(4 630)">
<title>G</title>
<polygon fill="#ffffff" stroke="transparent" points="-4,4 -4,-630 218.0169,-630 218.0169,4 -4,4"/>
<!-- i -->
<g id="node1" class="node">
<title>i</title>
<polygon fill="none" stroke="#000000" points="89.0169,-537.2 35.0169,-537.2 35.0169,-501.2 89.0169,-501.2 89.0169,-537.2"/>
<text text-anchor="middle" x="62.0169" y="-515" font-family="Times,serif" font-size="14.00" fill="#000000">i = 0</text>
</g>
<!-- meet -->
<g id="node9" class="node">
<title>meet</title>
<polygon fill="none" stroke="#000000" points="89.0169,-448.4 35.0169,-448.4 35.0169,-412.4 89.0169,-412.4 89.0169,-448.4"/>
<text text-anchor="middle" x="62.0169" y="-426.2" font-family="Times,serif" font-size="14.00" fill="#000000">meet</text>
</g>
<!-- i&#45;&gt;meet -->
<g id="edge2" class="edge">
<title>i-&gt;meet</title>
<path fill="none" stroke="#000000" d="M62.0169,-500.8006C62.0169,-488.6949 62.0169,-472.6076 62.0169,-458.8674"/>
<polygon fill="#000000" stroke="#000000" points="65.517,-458.472 62.0169,-448.472 58.517,-458.4721 65.517,-458.472"/>
<text text-anchor="middle" x="82.8181" y="-470.6" font-family="Times,serif" font-size="14.00" fill="#000000">i: [0, 0]</text>
</g>
<!-- j -->
<g id="node2" class="node">
<title>j</title>
<polygon fill="none" stroke="#000000" points="158.0169,-270.8 104.0169,-270.8 104.0169,-234.8 158.0169,-234.8 158.0169,-270.8"/>
<text text-anchor="middle" x="131.0169" y="-248.6" font-family="Times,serif" font-size="14.00" fill="#000000">j = 0</text>
</g>
<!-- meet2 -->
<g id="node7" class="node">
<title>meet2</title>
<polygon fill="none" stroke="#000000" points="158.0169,-197.8 104.0169,-197.8 104.0169,-161.8 158.0169,-161.8 158.0169,-197.8"/>
<text text-anchor="middle" x="131.0169" y="-175.6" font-family="Times,serif" font-size="14.00" fill="#000000">meet</text>
</g>
<!-- j&#45;&gt;meet2 -->
<g id="edge7" class="edge">
<title>j-&gt;meet2</title>
<path fill="none" stroke="#000000" d="M131.0169,-234.7551C131.0169,-226.6828 131.0169,-216.9764 131.0169,-207.9817"/>
<polygon fill="#000000" stroke="#000000" points="134.517,-207.8903 131.0169,-197.8904 127.517,-207.8904 134.517,-207.8903"/>
</g>
<!-- if1 -->
<g id="node3" class="node">
<title>if1</title>
<polygon fill="none" stroke="#000000" points="123.9586,-359.6 60.0753,-359.6 60.0753,-323.6 123.9586,-323.6 123.9586,-359.6"/>
<text text-anchor="middle" x="92.0169" y="-337.4" font-family="Times,serif" font-size="14.00" fill="#000000">if i &lt; len</text>
</g>
<!-- if1&#45;&gt;j -->
<g id="edge6" class="edge">
<title>if1-&gt;j</title>
<path fill="none" stroke="#000000" d="M100.0978,-323.2006C105.5724,-310.7353 112.9011,-294.0484 119.0493,-280.0494"/>
<polygon fill="#000000" stroke="#000000" points="122.2632,-281.4353 123.0799,-270.872 115.8541,-278.6205 122.2632,-281.4353"/>
<text text-anchor="middle" x="117.9082" y="-293" font-family="Times,serif" font-size="14.00" fill="#000000">F</text>
</g>
<!-- ipp -->
<g id="node4" class="node">
<title>ipp</title>
<polygon fill="none" stroke="#000000" points="86.0169,-270.8 32.0169,-270.8 32.0169,-234.8 86.0169,-234.8 86.0169,-270.8"/>
<text text-anchor="middle" x="59.0169" y="-248.6" font-family="Times,serif" font-size="14.00" fill="#000000">i++</text>
</g>
<!-- if1&#45;&gt;ipp -->
<g id="edge4" class="edge">
<title>if1-&gt;ipp</title>
<path fill="none" stroke="#000000" d="M85.1793,-323.2006C80.5915,-310.8552 74.4649,-294.3689 69.2937,-280.4539"/>
<polygon fill="#000000" stroke="#000000" points="72.4972,-279.0265 65.7329,-270.872 65.9356,-281.4649 72.4972,-279.0265"/>
<text text-anchor="middle" x="82.2932" y="-293" font-family="Times,serif" font-size="14.00" fill="#000000">T</text>
</g>
<!-- ipp&#45;&gt;meet -->
<g id="edge5" class="edge">
<title>ipp:nw-&gt;meet:sw</title>
<path fill="none" stroke="#000000" d="M32.0169,-270.8C-10.0595,-312.8764 -9.6797,-362.1627 28.0878,-405.0277"/>
<polygon fill="#000000" stroke="#000000" points="25.6179,-407.5103 35.0169,-412.4 30.7186,-402.7162 25.6179,-407.5103"/>
</g>
<!-- jpp -->
<g id="node5" class="node">
<title>jpp</title>
<polygon fill="none" stroke="#000000" points="142.0169,-36 88.0169,-36 88.0169,0 142.0169,0 142.0169,-36"/>
<text text-anchor="middle" x="115.0169" y="-13.8" font-family="Times,serif" font-size="14.00" fill="#000000">j++</text>
</g>
<!-- jpp&#45;&gt;meet2 -->
<g id="edge11" class="edge">
<title>jpp:nw-&gt;meet2:sw</title>
<path fill="none" stroke="#000000" d="M88.0169,-36C50.6542,-73.3628 62.3815,-116.2092 96.8317,-154.2574"/>
<polygon fill="#000000" stroke="#000000" points="94.5853,-156.9735 104.0169,-161.8 99.6537,-152.1453 94.5853,-156.9735"/>
</g>
<!-- if2 -->
<g id="node6" class="node">
<title>if2</title>
<polygon fill="none" stroke="#000000" points="179.9586,-124.8 116.0753,-124.8 116.0753,-88.8 179.9586,-88.8 179.9586,-124.8"/>
<text text-anchor="middle" x="148.0169" y="-102.6" font-family="Times,serif" font-size="14.00" fill="#000000">if j &lt; len</text>
</g>
<!-- if2&#45;&gt;jpp -->
<g id="edge8" class="edge">
<title>if2-&gt;jpp</title>
<path fill="none" stroke="#000000" d="M141.1793,-88.4006C136.5915,-76.0552 130.4649,-59.5689 125.2937,-45.6539"/>
<polygon fill="#000000" stroke="#000000" points="128.4972,-44.2265 121.7329,-36.072 121.9356,-46.6649 128.4972,-44.2265"/>
<text text-anchor="middle" x="138.2932" y="-58.2" font-family="Times,serif" font-size="14.00" fill="#000000">T</text>
</g>
<!-- exit -->
<g id="node10" class="node">
<title>exit</title>
<polygon fill="none" stroke="#000000" points="214.0169,-36 160.0169,-36 160.0169,0 214.0169,0 214.0169,-36"/>
<text text-anchor="middle" x="187.0169" y="-13.8" font-family="Times,serif" font-size="14.00" fill="#000000">exit</text>
</g>
<!-- if2&#45;&gt;exit -->
<g id="edge9" class="edge">
<title>if2-&gt;exit</title>
<path fill="none" stroke="#000000" d="M156.0978,-88.4006C161.5724,-75.9353 168.9011,-59.2484 175.0493,-45.2494"/>
<polygon fill="#000000" stroke="#000000" points="178.2632,-46.6353 179.0799,-36.072 171.8541,-43.8205 178.2632,-46.6353"/>
<text text-anchor="middle" x="173.9082" y="-58.2" font-family="Times,serif" font-size="14.00" fill="#000000">F</text>
</g>
<!-- meet2&#45;&gt;if2 -->
<g id="edge10" class="edge">
<title>meet2-&gt;if2</title>
<path fill="none" stroke="#000000" d="M135.2192,-161.7551C137.1194,-153.5951 139.4086,-143.7652 141.5223,-134.6887"/>
<polygon fill="#000000" stroke="#000000" points="144.9447,-135.4236 143.8041,-124.8904 138.1272,-133.8359 144.9447,-135.4236"/>
</g>
<!-- top -->
<g id="node8" class="node">
<title>top</title>
</g>
<!-- top&#45;&gt;i -->
<g id="edge1" class="edge">
<title>top-&gt;i</title>
<path fill="none" stroke="#000000" d="M62.0169,-589.6006C62.0169,-577.4949 62.0169,-561.4076 62.0169,-547.6674"/>
<polygon fill="#000000" stroke="#000000" points="65.517,-547.272 62.0169,-537.272 58.517,-547.2721 65.517,-547.272"/>
<text text-anchor="middle" x="99.5313" y="-559.4" font-family="Times,serif" font-size="14.00" fill="#000000">len: [-inf, 99]</text>
</g>
<!-- meet&#45;&gt;if1 -->
<g id="edge3" class="edge">
<title>meet-&gt;if1</title>
<path fill="none" stroke="#000000" d="M68.2329,-412.0006C72.4037,-399.6552 77.9734,-383.1689 82.6744,-369.2539"/>
<polygon fill="#000000" stroke="#000000" points="86.0267,-370.2662 85.9115,-359.672 79.3949,-368.0257 86.0267,-370.2662"/>
<text text-anchor="middle" x="99.8181" y="-381.8" font-family="Times,serif" font-size="14.00" fill="#000000">i: [0, 0]</text>
</g>
</g>
</svg>