<?xml version="1.0" encoding="UTF-8" standalone="no"?><!DOCTYPE svg PUBLIC "-//W3C//DTD SVG 1.1//EN" "http://www.w3.org/Graphics/SVG/1.1/DTD/svg11.dtd"><!-- Generated by graphviz version 2.40.1 (20161225.0304)
 --><!-- Title: G Pages: 1 --><svg xmlns="http://www.w3.org/2000/svg" xmlns:xlink="http://www.w3.org/1999/xlink" width="251pt" height="701pt" viewBox="0.00 0.00 251.48 701.20">
<g id="graph0" class="graph" transform="scale(1 1) rotate(0) translate(4 697.2)">
<title>G</title>
<polygon fill="#ffffff" stroke="transparent" points="-4,4 -4,-697.2 247.4754,-697.2 247.4754,4 -4,4"/>
<!-- i -->
<g id="node1" class="node">
<title>i</title>
<polygon fill="none" stroke="#000000" points="99.4754,-604.4 45.4754,-604.4 45.4754,-568.4 99.4754,-568.4 99.4754,-604.4"/>
<text text-anchor="middle" x="72.4754" y="-582.2" font-family="Times,serif" font-size="14.00" fill="#000000">i = 0</text>
</g>
<!-- meet -->
<g id="node9" class="node">
<title>meet</title>
<polygon fill="none" stroke="#000000" points="99.4754,-498.8 45.4754,-498.8 45.4754,-462.8 99.4754,-462.8 99.4754,-498.8"/>
<text text-anchor="middle" x="72.4754" y="-476.6" font-family="Times,serif" font-size="14.00" fill="#000000">meet</text>
</g>
<!-- i&#45;&gt;meet -->
<g id="edge2" class="edge">
<title>i-&gt;meet</title>
<path fill="none" stroke="#000000" d="M72.4754,-568.0059C72.4754,-551.7279 72.4754,-527.7223 72.4754,-509.0163"/>
<polygon fill="#000000" stroke="#000000" points="75.9755,-508.9833 72.4754,-498.9833 68.9755,-508.9834 75.9755,-508.9833"/>
<text text-anchor="middle" x="109.9898" y="-537.8" font-family="Times,serif" font-size="14.00" fill="#000000">i: [0, 0]</text>
<text text-anchor="middle" x="109.9898" y="-521" font-family="Times,serif" font-size="14.00" fill="#000000">len: [-inf, 99]</text>
</g>
<!-- j -->
<g id="node2" class="node">
<title>j</title>
<polygon fill="none" stroke="#000000" points="187.4754,-270.8 133.4754,-270.8 133.4754,-234.8 187.4754,-234.8 187.4754,-270.8"/>
<text text-anchor="middle" x="160.4754" y="-248.6" font-family="Times,serif" font-size="14.00" fill="#000000">j = 0</text>
</g>
<!-- meet2 -->
<g id="node7" class="node">
<title>meet2</title>
<polygon fill="none" stroke="#000000" points="187.4754,-197.8 133.4754,-197.8 133.4754,-161.8 187.4754,-161.8 187.4754,-197.8"/>
<text text-anchor="middle" x="160.4754" y="-175.6" font-family="Times,serif" font-size="14.00" fill="#000000">meet</text>
</g>
<!-- j&#45;&gt;meet2 -->
<g id="edge7" class="edge">
<title>j-&gt;meet2</title>
<path fill="none" stroke="#000000" d="M160.4754,-234.7551C160.4754,-226.6828 160.4754,-216.9764 160.4754,-207.9817"/>
<polygon fill="#000000" stroke="#000000" points="163.9755,-207.8903 160.4754,-197.8904 156.9755,-207.8904 163.9755,-207.8903"/>
</g>
<!-- if1 -->
<g id="node3" class="node">
<title>if1</title>
<polygon fill="none" stroke="#000000" points="134.417,-393.2 70.5337,-393.2 70.5337,-357.2 134.417,-357.2 134.417,-393.2"/>
<text text-anchor="middle" x="102.4754" y="-371" font-family="Times,serif" font-size="14.00" fill="#000000">if i &lt; len</text>
</g>
<!-- if1&#45;&gt;j -->
<g id="edge6" class="edge">
<title>if1-&gt;j</title>
<path fill="none" stroke="#000000" d="M124.418,-357.0232C129.6649,-351.7471 134.8032,-345.6529 138.4754,-339.2 148.619,-321.3749 154.1559,-298.8562 157.1374,-281.2775"/>
<polygon fill="#000000" stroke="#000000" points="160.6484,-281.4675 158.682,-271.0568 153.727,-280.4215 160.6484,-281.4675"/>
<text text-anchor="middle" x="182.8839" y="-326.6" font-family="Times,serif" font-size="14.00" fill="#000000">F</text>
<text text-anchor="middle" x="182.8839" y="-309.8" font-family="Times,serif" font-size="14.00" fill="#000000">i: [0, 0]</text>
<text text-anchor="middle" x="182.8839" y="-293" font-family="Times,serif" font-size="14.00" fill="#000000">len: [0, 0]</text>
</g>
<!-- ipp -->
<g id="node4" class="node">
<title>ipp</title>
<polygon fill="none" stroke="#000000" points="99.4754,-270.8 45.4754,-270.8 45.4754,-234.8 99.4754,-234.8 99.4754,-270.8"/>
<text text-anchor="middle" x="72.4754" y="-248.6" font-family="Times,serif" font-size="14.00" fill="#000000">i++</text>
</g>
<!-- if1&#45;&gt;ipp -->
<g id="edge4" class="edge">
<title>if1-&gt;ipp</title>
<path fill="none" stroke="#000000" d="M86.3204,-356.9217C82.4622,-351.5583 78.8345,-345.446 76.6584,-339.2 70.1525,-320.527 69.2326,-298.2056 69.8734,-280.9288"/>
<polygon fill="#000000" stroke="#000000" points="73.3703,-281.0822 70.4382,-270.9012 66.3813,-280.6885 73.3703,-281.0822"/>
<text text-anchor="middle" x="108.3839" y="-326.6" font-family="Times,serif" font-size="14.00" fill="#000000">T</text>
<text text-anchor="middle" x="108.3839" y="-309.8" font-family="Times,serif" font-size="14.00" fill="#000000">i: [0, 0]</text>
<text text-anchor="middle" x="108.3839" y="-293" font-family="Times,serif" font-size="14.00" fill="#000000">len: [1, 99]</text>
</g>
<!-- ipp&#45;&gt;meet -->
<g id="edge5" class="edge">
<title>ipp:nw-&gt;meet:sw</title>
<path fill="none" stroke="#000000" d="M45.4754,-270.8C-12.3895,-328.6649 -14.7629,-396.6282 38.3553,-455.3215"/>
<polygon fill="#000000" stroke="#000000" points="36.0451,-457.9709 45.4754,-462.8 41.1148,-453.1441 36.0451,-457.9709"/>
</g>
<!-- jpp -->
<g id="node5" class="node">
<title>jpp</title>
<polygon fill="none" stroke="#000000" points="171.4754,-36 117.4754,-36 117.4754,0 171.4754,0 171.4754,-36"/>
<text text-anchor="middle" x="144.4754" y="-13.8" font-family="Times,serif" font-size="14.00" fill="#000000">j++</text>
</g>
<!-- jpp&#45;&gt;meet2 -->
<g id="edge11" class="edge">
<title>jpp:nw-&gt;meet2:sw</title>
<path fill="none" stroke="#000000" d="M117.4754,-36C80.1126,-73.3628 91.8399,-116.2092 126.2902,-154.2574"/>
<polygon fill="#000000" stroke="#000000" points="124.0437,-156.9735 133.4754,-161.8 129.1121,-152.1453 124.0437,-156.9735"/>
</g>
<!-- if2 -->
<g id="node6" class="node">
<title>if2</title>
<polygon fill="none" stroke="#000000" points="209.417,-124.8 145.5337,-124.8 145.5337,-88.8 209.417,-88.8 209.417,-124.8"/>
<text text-anchor="middle" x="177.4754" y="-102.6" font-family="Times,serif" font-size="14.00" fill="#000000">if j &lt; len</text>
</g>
<!-- if2&#45;&gt;jpp -->
<g id="edge8" class="edge">
<title>if2-&gt;jpp</title>
<path fill="none" stroke="#000000" d="M170.6378,-88.4006C166.0499,-76.0552 159.9233,-59.5689 154.7522,-45.6539"/>
<polygon fill="#000000" stroke="#000000" points="157.9556,-44.2265 151.1913,-36.072 151.3941,-46.6649 157.9556,-44.2265"/>
<text text-anchor="middle" x="167.7517" y="-58.2" font-family="Times,serif" font-size="14.00" fill="#000000">T</text>
</g>
<!-- exit -->
<g id="node10" class="node">
<title>exit</title>
<polygon fill="none" stroke="#000000" points="243.4754,-36 189.4754,-36 189.4754,0 243.4754,0 243.4754,-36"/>
<text text-anchor="middle" x="216.4754" y="-13.8" font-family="Times,serif" font-size="14.00" fill="#000000">exit</text>
</g>
<!-- if2&#45;&gt;exit -->
<g id="edge9" class="edge">
<title>if2-&gt;exit</title>
<path fill="none" stroke="#000000" d="M185.5562,-88.4006C191.0308,-75.9353 198.3595,-59.2484 204.5077,-45.2494"/>
<polygon fill="#000000" stroke="#000000" points="207.7217,-46.6353 208.5383,-36.072 201.3126,-43.8205 207.7217,-46.6353"/>
<text text-anchor="middle" x="203.3667" y="-58.2" font-family="Times,serif" font-size="14.00" fill="#000000">F</text>
</g>
<!-- meet2&#45;&gt;if2 -->
<g id="edge10" class="edge">
<title>meet2-&gt;if2</title>
<path fill="none" stroke="#000000" d="M164.6776,-161.7551C166.5779,-153.5951 168.867,-143.7652 170.9807,-134.6887"/>
<polygon fill="#000000" stroke="#000000" points="174.4032,-135.4236 173.2625,-124.8904 167.5856,-133.8359 174.4032,-135.4236"/>
</g>
<!-- top -->
<g id="node8" class="node">
<title>top</title>
</g>
<!-- top&#45;&gt;i -->
<g id="edge1" class="edge">
<title>top-&gt;i</title>
<path fill="none" stroke="#000000" d="M72.4754,-656.8006C72.4754,-644.6949 72.4754,-628.6076 72.4754,-614.8674"/>
<polygon fill="#000000" stroke="#000000" points="75.9755,-614.472 72.4754,-604.472 68.9755,-614.4721 75.9755,-614.472"/>
<text text-anchor="middle" x="109.9898" y="-626.6" font-family="Times,serif" font-size="14.00" fill="#000000">len: [-inf, 99]</text>
</g>
<!-- meet&#45;&gt;if1 -->
<g id="edge3" class="edge">
<title>meet-&gt;if1</title>
<path fill="none" stroke="#000000" d="M77.701,-462.4059C82.3469,-446.0522 89.2087,-421.8988 94.5334,-403.1557"/>
<polygon fill="#000000" stroke="#000000" points="97.9436,-403.9592 97.3097,-393.3833 91.21,-402.0462 97.9436,-403.9592"/>
<text text-anchor="middle" x="128.9898" y="-432.2" font-family="Times,serif" font-size="14.00" fill="#000000">i: [0, 0]</text>
<text text-anchor="middle" x="128.9898" y="-415.4" font-family="Times,serif" font-size="14.00" fill="#000000">len: [-inf, 99]</text>
</g>
</g>
</svg>