<?xml version="1.0" encoding="UTF-8" standalone="no"?><!DOCTYPE svg PUBLIC "-//W3C//DTD SVG 1.1//EN" "http://www.w3.org/Graphics/SVG/1.1/DTD/svg11.dtd"><!-- Generated by graphviz version 2.40.1 (20161225.0304)
 --><!-- Title: G Pages: 1 --><svg xmlns="http://www.w3.org/2000/svg" xmlns:xlink="http://www.w3.org/1999/xlink" width="188pt" height="500pt" viewBox="0.00 0.00 188.48 500.00">
<g id="graph0" class="graph" transform="scale(1 1) rotate(0) translate(4 496)">
<title>G</title>
<polygon fill="#ffffff" stroke="transparent" points="-4,4 -4,-496 184.4754,-496 184.4754,4 -4,4"/>
<!-- j -->
<g id="node1" class="node">
<title>j</title>
<polygon fill="none" stroke="#000000" points="99.4754,-369.6 45.4754,-369.6 45.4754,-333.6 99.4754,-333.6 99.4754,-369.6"/>
<text text-anchor="middle" x="72.4754" y="-347.4" font-family="Times,serif" font-size="14.00" fill="#000000">j = 0</text>
</g>
<!-- meet2 -->
<g id="node5" class="node">
<title>meet2</title>
<polygon fill="none" stroke="#000000" points="99.4754,-264 45.4754,-264 45.4754,-228 99.4754,-228 99.4754,-264"/>
<text text-anchor="middle" x="72.4754" y="-241.8" font-family="Times,serif" font-size="14.00" fill="#000000">meet</text>
</g>
<!-- j&#45;&gt;meet2 -->
<g id="edge2" class="edge">
<title>j-&gt;meet2</title>
<path fill="none" stroke="#000000" d="M72.4754,-333.2059C72.4754,-316.9279 72.4754,-292.9223 72.4754,-274.2163"/>
<polygon fill="#000000" stroke="#000000" points="75.9755,-274.1833 72.4754,-264.1833 68.9755,-274.1834 75.9755,-274.1833"/>
<text text-anchor="middle" x="99.8839" y="-303" font-family="Times,serif" font-size="14.00" fill="#000000">j: [0, 0]</text>
<text text-anchor="middle" x="99.8839" y="-286.2" font-family="Times,serif" font-size="14.00" fill="#000000">len: [0, 0]</text>
</g>
<!-- if1 -->
<g id="node2" class="node">
<title>if1</title>
</g>
<!-- if1&#45;&gt;j -->
<g id="edge1" class="edge">
<title>if1-&gt;j</title>
<path fill="none" stroke="#000000" d="M72.4754,-455.9395C72.4754,-435.8712 72.4754,-403.2113 72.4754,-379.7752"/>
<polygon fill="#000000" stroke="#000000" points="75.9755,-379.7346 72.4754,-369.7346 68.9755,-379.7347 75.9755,-379.7346"/>
<text text-anchor="middle" x="99.8839" y="-425.4" font-family="Times,serif" font-size="14.00" fill="#000000">F</text>
<text text-anchor="middle" x="99.8839" y="-408.6" font-family="Times,serif" font-size="14.00" fill="#000000">i: [0, 0]</text>
<text text-anchor="middle" x="99.8839" y="-391.8" font-family="Times,serif" font-size="14.00" fill="#000000">len: [0, 0]</text>
</g>
<!-- jpp -->
<g id="node3" class="node">
<title>jpp</title>
<polygon fill="none" stroke="#000000" points="99.4754,-36 45.4754,-36 45.4754,0 99.4754,0 99.4754,-36"/>
<text text-anchor="middle" x="72.4754" y="-13.8" font-family="Times,serif" font-size="14.00" fill="#000000">j++</text>
</g>
<!-- jpp&#45;&gt;meet2 -->
<g id="edge6" class="edge">
<title>jpp:nw-&gt;meet2:sw</title>
<path fill="none" stroke="#000000" d="M45.4754,-36C-12.3895,-93.8649 -14.7629,-161.8282 38.3553,-220.5215"/>
<polygon fill="#000000" stroke="#000000" points="36.0451,-223.1709 45.4754,-228 41.1148,-218.3441 36.0451,-223.1709"/>
<text text-anchor="middle" x="30.8839" y="-144.6" font-family="Times,serif" font-size="14.00" fill="#000000">j: [0, 1]</text>
<text text-anchor="middle" x="30.8839" y="-127.8" font-family="Times,serif" font-size="14.00" fill="#000000">len: [0, 1]</text>
</g>
<!-- if2 -->
<g id="node4" class="node">
<title>if2</title>
<polygon fill="none" stroke="#000000" points="179.417,-158.4 115.5337,-158.4 115.5337,-122.4 179.417,-122.4 179.417,-158.4"/>
<text text-anchor="middle" x="147.4754" y="-136.2" font-family="Times,serif" font-size="14.00" fill="#000000">if j &lt; len</text>
</g>
<!-- if2&#45;&gt;jpp -->
<g id="edge3" class="edge">
<title>if2-&gt;jpp</title>
<path fill="none" stroke="#000000" d="M115.5191,-126.7312C105.8604,-121.1324 96.1156,-113.736 89.6584,-104.4 77.932,-87.4459 73.7905,-64.393 72.4974,-46.3637"/>
<polygon fill="#000000" stroke="#000000" points="75.9833,-45.9773 72.0236,-36.1503 68.9909,-46.3018 75.9833,-45.9773"/>
<text text-anchor="middle" x="116.8839" y="-91.8" font-family="Times,serif" font-size="14.00" fill="#000000">T</text>
<text text-anchor="middle" x="116.8839" y="-75" font-family="Times,serif" font-size="14.00" fill="#000000">j: [-1, 0]</text>
<text text-anchor="middle" x="116.8839" y="-58.2" font-family="Times,serif" font-size="14.00" fill="#000000">len: [0, 1]</text>
</g>
<!-- exit -->
<g id="node7" class="node">
<title>exit</title>
<polygon fill="none" stroke="#000000" points="180.4754,-36 126.4754,-36 126.4754,0 180.4754,0 180.4754,-36"/>
<text text-anchor="middle" x="153.4754" y="-13.8" font-family="Times,serif" font-size="14.00" fill="#000000">exit</text>
</g>
<!-- if2&#45;&gt;exit -->
<g id="edge4" class="edge">
<title>if2-&gt;exit</title>
<path fill="none" stroke="#000000" d="M148.3607,-122.3395C149.3444,-102.2712 150.9454,-69.6113 152.0942,-46.1752"/>
<polygon fill="#000000" stroke="#000000" points="155.5925,-46.294 152.5864,-36.1346 148.6009,-45.9513 155.5925,-46.294"/>
<text text-anchor="middle" x="155.3667" y="-75" font-family="Times,serif" font-size="14.00" fill="#000000">F</text>
</g>
<!-- meet2&#45;&gt;if2 -->
<g id="edge5" class="edge">
<title>meet2-&gt;if2</title>
<path fill="none" stroke="#000000" d="M85.5394,-227.6059C97.4769,-210.7979 115.2659,-185.7509 128.7207,-166.8066"/>
<polygon fill="#000000" stroke="#000000" points="131.6241,-168.763 134.5611,-158.5833 125.917,-164.7096 131.6241,-168.763"/>
<text text-anchor="middle" x="147.8839" y="-197.4" font-family="Times,serif" font-size="14.00" fill="#000000">j: [0, 0]</text>
<text text-anchor="middle" x="147.8839" y="-180.6" font-family="Times,serif" font-size="14.00" fill="#000000">len: [0, 0]</text>
</g>
<!-- top -->
<g id="node6" class="node">
<title>top</title>
</g>
</g>
</svg>