<?xml version="1.0" encoding="UTF-8" standalone="no"?><!DOCTYPE svg PUBLIC "-//W3C//DTD SVG 1.1//EN" "http://www.w3.org/Graphics/SVG/1.1/DTD/svg11.dtd"><!-- Generated by graphviz version 2.40.1 (20161225.0304)
 --><!-- Title: G Pages: 1 --><svg xmlns="http://www.w3.org/2000/svg" xmlns:xlink="http://www.w3.org/1999/xlink" width="213pt" height="602pt" viewBox="0.00 0.00 213.25 602.40">
<g id="graph0" class="graph" transform="scale(1 1) rotate(0) translate(4 598.4)">
<title>G</title>
<polygon fill="#ffffff" stroke="transparent" points="-4,4 -4,-598.4 209.2453,-598.4 209.2453,4 -4,4"/>
<!-- i -->
<g id="node1" class="node">
<title>i</title>
<polygon fill="none" stroke="#000000" points="93.2453,-505.6 39.2453,-505.6 39.2453,-469.6 93.2453,-469.6 93.2453,-505.6"/>
<text text-anchor="middle" x="66.2453" y="-483.4" font-family="Times,serif" font-size="14.00" fill="#000000">i = 0</text>
</g>
<!-- meet -->
<g id="node9" class="node">
<title>meet</title>
<polygon fill="none" stroke="#000000" points="93.2453,-432.6 39.2453,-432.6 39.2453,-396.6 93.2453,-396.6 93.2453,-432.6"/>
<text text-anchor="middle" x="66.2453" y="-410.4" font-family="Times,serif" font-size="14.00" fill="#000000">meet</text>
</g>
<!-- i&#45;&gt;meet -->
<g id="edge2" class="edge">
<title>i-&gt;meet</title>
<path fill="none" stroke="#000000" d="M66.2453,-469.5551C66.2453,-461.4828 66.2453,-451.7764 66.2453,-442.7817"/>
<polygon fill="#000000" stroke="#000000" points="69.7454,-442.6903 66.2453,-432.6904 62.7454,-442.6904 69.7454,-442.6903"/>
</g>
<!-- j -->
<g id="node2" class="node">
<title>j</title>
<polygon fill="none" stroke="#000000" points="149.2453,-270.8 95.2453,-270.8 95.2453,-234.8 149.2453,-234.8 149.2453,-270.8"/>
<text text-anchor="middle" x="122.2453" y="-248.6" font-family="Times,serif" font-size="14.00" fill="#000000">j = 0</text>
</g>
<!-- meet2 -->
<g id="node7" class="node">
<title>meet2</title>
<polygon fill="none" stroke="#000000" points="149.2453,-197.8 95.2453,-197.8 95.2453,-161.8 149.2453,-161.8 149.2453,-197.8"/>
<text text-anchor="middle" x="122.2453" y="-175.6" font-family="Times,serif" font-size="14.00" fill="#000000">meet</text>
</g>
<!-- j&#45;&gt;meet2 -->
<g id="edge7" class="edge">
<title>j-&gt;meet2</title>
<path fill="none" stroke="#000000" d="M122.2453,-234.7551C122.2453,-226.6828 122.2453,-216.9764 122.2453,-207.9817"/>
<polygon fill="#000000" stroke="#000000" points="125.7454,-207.8903 122.2453,-197.8904 118.7454,-207.8904 125.7454,-207.8903"/>
</g>
<!-- if1 -->
<g id="node3" class="node">
<title>if1</title>
<polygon fill="none" stroke="#000000" points="115.1869,-359.6 51.3037,-359.6 51.3037,-323.6 115.1869,-323.6 115.1869,-359.6"/>
<text text-anchor="middle" x="83.2453" y="-337.4" font-family="Times,serif" font-size="14.00" fill="#000000">if i &lt; len</text>
</g>
<!-- if1&#45;&gt;j -->
<g id="edge6" class="edge">
<title>if1-&gt;j</title>
<path fill="none" stroke="#000000" d="M91.3261,-323.2006C96.8008,-310.7353 104.1294,-294.0484 110.2777,-280.0494"/>
<polygon fill="#000000" stroke="#000000" points="113.4916,-281.4353 114.3083,-270.872 107.0825,-278.6205 113.4916,-281.4353"/>
<text text-anchor="middle" x="109.1366" y="-293" font-family="Times,serif" font-size="14.00" fill="#000000">F</text>
</g>
<!-- ipp -->
<g id="node4" class="node">
<title>ipp</title>
<polygon fill="none" stroke="#000000" points="77.2453,-270.8 23.2453,-270.8 23.2453,-234.8 77.2453,-234.8 77.2453,-270.8"/>
<text text-anchor="middle" x="50.2453" y="-248.6" font-family="Times,serif" font-size="14.00" fill="#000000">i++</text>
</g>
<!-- if1&#45;&gt;ipp -->
<g id="edge4" class="edge">
<title>if1-&gt;ipp</title>
<path fill="none" stroke="#000000" d="M76.4077,-323.2006C71.8199,-310.8552 65.6932,-294.3689 60.5221,-280.4539"/>
<polygon fill="#000000" stroke="#000000" points="63.7256,-279.0265 56.9613,-270.872 57.164,-281.4649 63.7256,-279.0265"/>
<text text-anchor="middle" x="73.5216" y="-293" font-family="Times,serif" font-size="14.00" fill="#000000">T</text>
</g>
<!-- ipp&#45;&gt;meet -->
<g id="edge5" class="edge">
<title>ipp:nw-&gt;meet:sw</title>
<path fill="none" stroke="#000000" d="M23.2453,-270.8C-14.1174,-308.1628 -2.3901,-351.0092 32.0601,-389.0574"/>
<polygon fill="#000000" stroke="#000000" points="29.8137,-391.7735 39.2453,-396.6 34.882,-386.9453 29.8137,-391.7735"/>
</g>
<!-- jpp -->
<g id="node5" class="node">
<title>jpp</title>
<polygon fill="none" stroke="#000000" points="133.2453,-36 79.2453,-36 79.2453,0 133.2453,0 133.2453,-36"/>
<text text-anchor="middle" x="106.2453" y="-13.8" font-family="Times,serif" font-size="14.00" fill="#000000">j++</text>
</g>
<!-- jpp&#45;&gt;meet2 -->
<g id="edge11" class="edge">
<title>jpp:nw-&gt;meet2:sw</title>
<path fill="none" stroke="#000000" d="M79.2453,-36C41.8826,-73.3628 53.6099,-116.2092 88.0601,-154.2574"/>
<polygon fill="#000000" stroke="#000000" points="85.8137,-156.9735 95.2453,-161.8 90.882,-152.1453 85.8137,-156.9735"/>
</g>
<!-- if2 -->
<g id="node6" class="node">
<title>if2</title>
<polygon fill="none" stroke="#000000" points="171.1869,-124.8 107.3037,-124.8 107.3037,-88.8 171.1869,-88.8 171.1869,-124.8"/>
<text text-anchor="middle" x="139.2453" y="-102.6" font-family="Times,serif" font-size="14.00" fill="#000000">if j &lt; len</text>
</g>
<!-- if2&#45;&gt;jpp -->
<g id="edge8" class="edge">
<title>if2-&gt;jpp</title>
<path fill="none" stroke="#000000" d="M132.4077,-88.4006C127.8199,-76.0552 121.6932,-59.5689 116.5221,-45.6539"/>
<polygon fill="#000000" stroke="#000000" points="119.7256,-44.2265 112.9613,-36.072 113.164,-46.6649 119.7256,-44.2265"/>
<text text-anchor="middle" x="129.5216" y="-58.2" font-family="Times,serif" font-size="14.00" fill="#000000">T</text>
</g>
<!-- exit -->
<g id="node10" class="node">
<title>exit</title>
<polygon fill="none" stroke="#000000" points="205.2453,-36 151.2453,-36 151.2453,0 205.2453,0 205.2453,-36"/>
<text text-anchor="middle" x="178.2453" y="-13.8" font-family="Times,serif" font-size="14.00" fill="#000000">exit</text>
</g>
<!-- if2&#45;&gt;exit -->
<g id="edge9" class="edge">
<title>if2-&gt;exit</title>
<path fill="none" stroke="#000000" d="M147.3261,-88.4006C152.8008,-75.9353 160.1294,-59.2484 166.2777,-45.2494"/>
<polygon fill="#000000" stroke="#000000" points="169.4916,-46.6353 170.3083,-36.072 163.0825,-43.8205 169.4916,-46.6353"/>
<text text-anchor="middle" x="165.1366" y="-58.2" font-family="Times,serif" font-size="14.00" fill="#000000">F</text>
</g>
<!-- meet2&#45;&gt;if2 -->
<g id="edge10" class="edge">
<title>meet2-&gt;if2</title>
<path fill="none" stroke="#000000" d="M126.4476,-161.7551C128.3478,-153.5951 130.637,-143.7652 132.7507,-134.6887"/>
<polygon fill="#000000" stroke="#000000" points="136.1731,-135.4236 135.0325,-124.8904 129.3555,-133.8359 136.1731,-135.4236"/>
</g>
<!-- top -->
<g id="node8" class="node">
<title>top</title>
</g>
<!-- top&#45;&gt;i -->
<g id="edge1" class="edge">
<title>top-&gt;i</title>
<path fill="none" stroke="#000000" d="M66.2453,-558.0006C66.2453,-545.8949 66.2453,-529.8076 66.2453,-516.0674"/>
<polygon fill="#000000" stroke="#000000" points="69.7454,-515.672 66.2453,-505.672 62.7454,-515.6721 69.7454,-515.672"/>
<text text-anchor="middle" x="103.7597" y="-527.8" font-family="Times,serif" font-size="14.00" fill="#000000">len: [-inf, 99]</text>
</g>
<!-- meet&#45;&gt;if1 -->
<g id="edge3" class="edge">
<title>meet-&gt;if1</title>
<path fill="none" stroke="#000000" d="M70.4476,-396.5551C72.3478,-388.3951 74.637,-378.5652 76.7507,-369.4887"/>
<polygon fill="#000000" stroke="#000000" points="80.1731,-370.2236 79.0325,-359.6904 73.3555,-368.6359 80.1731,-370.2236"/>
</g>
</g>
</svg>