<?xml version="1.0" encoding="UTF-8" standalone="no"?><!DOCTYPE svg PUBLIC "-//W3C//DTD SVG 1.1//EN" "http://www.w3.org/Graphics/SVG/1.1/DTD/svg11.dtd"><!-- Generated by graphviz version 2.40.1 (20161225.0304)
 --><!-- Title: G Pages: 1 --><svg xmlns="http://www.w3.org/2000/svg" xmlns:xlink="http://www.w3.org/1999/xlink" width="178pt" height="466pt" viewBox="0.00 0.00 177.97 466.40">
<g id="graph0" class="graph" transform="scale(1 1) rotate(0) translate(4 462.4)">
<title>G</title>
<polygon fill="#ffffff" stroke="transparent" points="-4,4 -4,-462.4 173.9738,-462.4 173.9738,4 -4,4"/>
<!-- j -->
<g id="node1" class="node">
<title>j</title>
<polygon fill="none" stroke="#000000" points="92.9738,-336 38.9738,-336 38.9738,-300 92.9738,-300 92.9738,-336"/>
<text text-anchor="middle" x="65.9738" y="-313.8" font-family="Times,serif" font-size="14.00" fill="#000000">j = 0</text>
</g>
<!-- meet2 -->
<g id="node5" class="node">
<title>meet2</title>
<polygon fill="none" stroke="#000000" points="92.9738,-230.4 38.9738,-230.4 38.9738,-194.4 92.9738,-194.4 92.9738,-230.4"/>
<text text-anchor="middle" x="65.9738" y="-208.2" font-family="Times,serif" font-size="14.00" fill="#000000">meet</text>
</g>
<!-- j&#45;&gt;meet2 -->
<g id="edge2" class="edge">
<title>j-&gt;meet2</title>
<path fill="none" stroke="#000000" d="M65.9738,-299.6059C65.9738,-283.3279 65.9738,-259.3223 65.9738,-240.6163"/>
<polygon fill="#000000" stroke="#000000" points="69.4739,-240.5833 65.9738,-230.5833 62.4739,-240.5834 69.4739,-240.5833"/>
<text text-anchor="middle" x="93.3823" y="-269.4" font-family="Times,serif" font-size="14.00" fill="#000000">j: [0, 0]</text>
<text text-anchor="middle" x="93.3823" y="-252.6" font-family="Times,serif" font-size="14.00" fill="#000000">len: [0, 0]</text>
</g>
<!-- if1 -->
<g id="node2" class="node">
<title>if1</title>
</g>
<!-- if1&#45;&gt;j -->
<g id="edge1" class="edge">
<title>if1-&gt;j</title>
<path fill="none" stroke="#000000" d="M65.9738,-422.3395C65.9738,-402.2712 65.9738,-369.6113 65.9738,-346.1752"/>
<polygon fill="#000000" stroke="#000000" points="69.4739,-346.1346 65.9738,-336.1346 62.4739,-346.1347 69.4739,-346.1346"/>
<text text-anchor="middle" x="93.3823" y="-391.8" font-family="Times,serif" font-size="14.00" fill="#000000">F</text>
<text text-anchor="middle" x="93.3823" y="-375" font-family="Times,serif" font-size="14.00" fill="#000000">i: [0, 0]</text>
<text text-anchor="middle" x="93.3823" y="-358.2" font-family="Times,serif" font-size="14.00" fill="#000000">len: [0, 0]</text>
</g>
<!-- jpp -->
<g id="node3" class="node">
<title>jpp</title>
<polygon fill="none" stroke="#000000" points="89.9738,-36 35.9738,-36 35.9738,0 89.9738,0 89.9738,-36"/>
<text text-anchor="middle" x="62.9738" y="-13.8" font-family="Times,serif" font-size="14.00" fill="#000000">j++</text>
</g>
<!-- jpp&#45;&gt;meet2 -->
<g id="edge6" class="edge">
<title>jpp:nw-&gt;meet2:sw</title>
<path fill="none" stroke="#000000" d="M35.9738,-36C-11.3843,-83.3581 -10.9825,-138.888 32.0158,-187.0442"/>
<polygon fill="#000000" stroke="#000000" points="29.5592,-189.5403 38.9738,-194.4 34.6446,-184.73 29.5592,-189.5403"/>
</g>
<!-- if2 -->
<g id="node4" class="node">
<title>if2</title>
<polygon fill="none" stroke="#000000" points="127.9154,-124.8 64.0322,-124.8 64.0322,-88.8 127.9154,-88.8 127.9154,-124.8"/>
<text text-anchor="middle" x="95.9738" y="-102.6" font-family="Times,serif" font-size="14.00" fill="#000000">if j &lt; len</text>
</g>
<!-- if2&#45;&gt;jpp -->
<g id="edge3" class="edge">
<title>if2-&gt;jpp</title>
<path fill="none" stroke="#000000" d="M89.1362,-88.4006C84.5484,-76.0552 78.4217,-59.5689 73.2506,-45.6539"/>
<polygon fill="#000000" stroke="#000000" points="76.4541,-44.2265 69.6898,-36.072 69.8925,-46.6649 76.4541,-44.2265"/>
<text text-anchor="middle" x="86.2501" y="-58.2" font-family="Times,serif" font-size="14.00" fill="#000000">T</text>
</g>
<!-- exit -->
<g id="node7" class="node">
<title>exit</title>
<polygon fill="none" stroke="#000000" points="161.9738,-36 107.9738,-36 107.9738,0 161.9738,0 161.9738,-36"/>
<text text-anchor="middle" x="134.9738" y="-13.8" font-family="Times,serif" font-size="14.00" fill="#000000">exit</text>
</g>
<!-- if2&#45;&gt;exit -->
<g id="edge4" class="edge">
<title>if2-&gt;exit</title>
<path fill="none" stroke="#000000" d="M104.0546,-88.4006C109.5292,-75.9353 116.8579,-59.2484 123.0062,-45.2494"/>
<polygon fill="#000000" stroke="#000000" points="126.2201,-46.6353 127.0368,-36.072 119.811,-43.8205 126.2201,-46.6353"/>
<text text-anchor="middle" x="121.8651" y="-58.2" font-family="Times,serif" font-size="14.00" fill="#000000">F</text>
</g>
<!-- meet2&#45;&gt;if2 -->
<g id="edge5" class="edge">
<title>meet2-&gt;if2</title>
<path fill="none" stroke="#000000" d="M71.1994,-194.0059C75.8454,-177.6522 82.7071,-153.4988 88.0319,-134.7557"/>
<polygon fill="#000000" stroke="#000000" points="91.442,-135.5592 90.8081,-124.9833 84.7085,-133.6462 91.442,-135.5592"/>
<text text-anchor="middle" x="112.3823" y="-163.8" font-family="Times,serif" font-size="14.00" fill="#000000">j: [0, 0]</text>
<text text-anchor="middle" x="112.3823" y="-147" font-family="Times,serif" font-size="14.00" fill="#000000">len: [0, 0]</text>
</g>
<!-- top -->
<g id="node6" class="node">
<title>top</title>
</g>
</g>
</svg>