<?xml version="1.0" encoding="UTF-8" standalone="no"?><!DOCTYPE svg PUBLIC "-//W3C//DTD SVG 1.1//EN" "http://www.w3.org/Graphics/SVG/1.1/DTD/svg11.dtd"><!-- Generated by graphviz version 2.40.1 (20161225.0304)
 --><!-- Title: G Pages: 1 --><svg xmlns="http://www.w3.org/2000/svg" xmlns:xlink="http://www.w3.org/1999/xlink" width="186pt" height="500pt" viewBox="0.00 0.00 185.89 500.00">
<g id="graph0" class="graph" transform="scale(1 1) rotate(0) translate(4 496)">
<title>G</title>
<polygon fill="#ffffff" stroke="transparent" points="-4,4 -4,-496 181.8937,-496 181.8937,4 -4,4"/>
<!-- j -->
<g id="node1" class="node">
<title>j</title>
<polygon fill="none" stroke="#000000" points="100.8937,-369.6 46.8937,-369.6 46.8937,-333.6 100.8937,-333.6 100.8937,-369.6"/>
<text text-anchor="middle" x="73.8937" y="-347.4" font-family="Times,serif" font-size="14.00" fill="#000000">j = 0</text>
</g>
<!-- meet2 -->
<g id="node5" class="node">
<title>meet2</title>
<polygon fill="none" stroke="#000000" points="100.8937,-264 46.8937,-264 46.8937,-228 100.8937,-228 100.8937,-264"/>
<text text-anchor="middle" x="73.8937" y="-241.8" font-family="Times,serif" font-size="14.00" fill="#000000">meet</text>
</g>
<!-- j&#45;&gt;meet2 -->
<g id="edge2" class="edge">
<title>j-&gt;meet2</title>
<path fill="none" stroke="#000000" d="M73.8937,-333.2059C73.8937,-316.9279 73.8937,-292.9223 73.8937,-274.2163"/>
<polygon fill="#000000" stroke="#000000" points="77.3938,-274.1833 73.8937,-264.1833 70.3938,-274.1834 77.3938,-274.1833"/>
<text text-anchor="middle" x="111.4081" y="-303" font-family="Times,serif" font-size="14.00" fill="#000000">j: [0, 0]</text>
<text text-anchor="middle" x="111.4081" y="-286.2" font-family="Times,serif" font-size="14.00" fill="#000000">len: [-inf, 99]</text>
</g>
<!-- if1 -->
<g id="node2" class="node">
<title>if1</title>
</g>
<!-- if1&#45;&gt;j -->
<g id="edge1" class="edge">
<title>if1-&gt;j</title>
<path fill="none" stroke="#000000" d="M73.8937,-455.9395C73.8937,-435.8712 73.8937,-403.2113 73.8937,-379.7752"/>
<polygon fill="#000000" stroke="#000000" points="77.3938,-379.7346 73.8937,-369.7346 70.3938,-379.7347 77.3938,-379.7346"/>
<text text-anchor="middle" x="111.4081" y="-425.4" font-family="Times,serif" font-size="14.00" fill="#000000">F</text>
<text text-anchor="middle" x="111.4081" y="-408.6" font-family="Times,serif" font-size="14.00" fill="#000000">i: [0, inf]</text>
<text text-anchor="middle" x="111.4081" y="-391.8" font-family="Times,serif" font-size="14.00" fill="#000000">len: [-inf, 99]</text>
</g>
<!-- jpp -->
<g id="node3" class="node">
<title>jpp</title>
<polygon fill="none" stroke="#000000" points="97.8937,-36 43.8937,-36 43.8937,0 97.8937,0 97.8937,-36"/>
<text text-anchor="middle" x="70.8937" y="-13.8" font-family="Times,serif" font-size="14.00" fill="#000000">j++</text>
</g>
<!-- jpp&#45;&gt;meet2 -->
<g id="edge6" class="edge">
<title>jpp:nw-&gt;meet2:sw</title>
<path fill="none" stroke="#000000" d="M43.8937,-36C-13.9783,-93.872 -13.593,-161.822 39.758,-220.5207"/>
<polygon fill="#000000" stroke="#000000" points="37.4583,-223.1807 46.8937,-228 42.5231,-218.3486 37.4583,-223.1807"/>
<text text-anchor="middle" x="21.4179" y="-144.6" font-family="Times,serif" font-size="14.00" fill="#000000">j: T</text>
<text text-anchor="middle" x="21.4179" y="-127.8" font-family="Times,serif" font-size="14.00" fill="#000000">len: T</text>
</g>
<!-- if2 -->
<g id="node4" class="node">
<title>if2</title>
<polygon fill="none" stroke="#000000" points="158.8353,-158.4 94.952,-158.4 94.952,-122.4 158.8353,-122.4 158.8353,-158.4"/>
<text text-anchor="middle" x="126.8937" y="-136.2" font-family="Times,serif" font-size="14.00" fill="#000000">if j &lt; len</text>
</g>
<!-- if2&#45;&gt;jpp -->
<g id="edge3" class="edge">
<title>if2-&gt;jpp</title>
<path fill="none" stroke="#000000" d="M107.1659,-122.3243C102.2307,-116.9616 97.3508,-110.7992 93.8453,-104.4 83.9652,-86.3646 78.1641,-63.8532 74.8664,-46.3306"/>
<polygon fill="#000000" stroke="#000000" points="78.2606,-45.4152 73.1225,-36.1497 71.3611,-46.597 78.2606,-45.4152"/>
<text text-anchor="middle" x="109.4179" y="-91.8" font-family="Times,serif" font-size="14.00" fill="#000000">T</text>
<text text-anchor="middle" x="109.4179" y="-75" font-family="Times,serif" font-size="14.00" fill="#000000">j: T</text>
<text text-anchor="middle" x="109.4179" y="-58.2" font-family="Times,serif" font-size="14.00" fill="#000000">len: T</text>
</g>
<!-- exit -->
<g id="node7" class="node">
<title>exit</title>
<polygon fill="none" stroke="#000000" points="169.8937,-36 115.8937,-36 115.8937,0 169.8937,0 169.8937,-36"/>
<text text-anchor="middle" x="142.8937" y="-13.8" font-family="Times,serif" font-size="14.00" fill="#000000">exit</text>
</g>
<!-- if2&#45;&gt;exit -->
<g id="edge4" class="edge">
<title>if2-&gt;exit</title>
<path fill="none" stroke="#000000" d="M129.2545,-122.3395C131.8778,-102.2712 136.1471,-69.6113 139.2106,-46.1752"/>
<polygon fill="#000000" stroke="#000000" points="142.6973,-46.504 140.5231,-36.1346 135.7564,-45.5966 142.6973,-46.504"/>
<text text-anchor="middle" x="141.785" y="-75" font-family="Times,serif" font-size="14.00" fill="#000000">F</text>
</g>
<!-- meet2&#45;&gt;if2 -->
<g id="edge5" class="edge">
<title>meet2-&gt;if2</title>
<path fill="none" stroke="#000000" d="M83.1255,-227.6059C91.4474,-211.025 103.7933,-186.4264 113.2532,-167.5779"/>
<polygon fill="#000000" stroke="#000000" points="116.4099,-169.0908 117.7675,-158.5833 110.1537,-165.9508 116.4099,-169.0908"/>
<text text-anchor="middle" x="135.3022" y="-197.4" font-family="Times,serif" font-size="14.00" fill="#000000">j: [0, 0]</text>
<text text-anchor="middle" x="135.3022" y="-180.6" font-family="Times,serif" font-size="14.00" fill="#000000">len: [0, 0]</text>
</g>
<!-- top -->
<g id="node6" class="node">
<title>top</title>
</g>
</g>
</svg>