<?xml version="1.0" encoding="UTF-8" standalone="no"?><!DOCTYPE svg PUBLIC "-//W3C//DTD SVG 1.1//EN" "http://www.w3.org/Graphics/SVG/1.1/DTD/svg11.dtd"><!-- Generated by graphviz version 2.40.1 (20161225.0304)
 --><!-- Title: G Pages: 1 --><svg xmlns="http://www.w3.org/2000/svg" xmlns:xlink="http://www.w3.org/1999/xlink" width="330pt" height="800pt" viewBox="0.00 0.00 329.50 800.00">
<g id="graph0" class="graph" transform="scale(1 1) rotate(0) translate(4 796)">
<title>G</title>
<polygon fill="#ffffff" stroke="transparent" points="-4,4 -4,-796 325.5042,-796 325.5042,4 -4,4"/>
<!-- i -->
<g id="node1" class="node">
<title>i</title>
<polygon fill="none" stroke="#000000" points="99.4754,-703.2 45.4754,-703.2 45.4754,-667.2 99.4754,-667.2 99.4754,-703.2"/>
<text text-anchor="middle" x="72.4754" y="-681" font-family="Times,serif" font-size="14.00" fill="#000000">i = 0</text>
</g>
<!-- meet -->
<g id="node9" class="node">
<title>meet</title>
<polygon fill="none" stroke="#000000" points="99.4754,-597.6 45.4754,-597.6 45.4754,-561.6 99.4754,-561.6 99.4754,-597.6"/>
<text text-anchor="middle" x="72.4754" y="-575.4" font-family="Times,serif" font-size="14.00" fill="#000000">meet</text>
</g>
<!-- i&#45;&gt;meet -->
<g id="edge2" class="edge">
<title>i-&gt;meet</title>
<path fill="none" stroke="#000000" d="M72.4754,-666.8059C72.4754,-650.5279 72.4754,-626.5223 72.4754,-607.8163"/>
<polygon fill="#000000" stroke="#000000" points="75.9755,-607.7833 72.4754,-597.7833 68.9755,-607.7834 75.9755,-607.7833"/>
<text text-anchor="middle" x="109.9898" y="-636.6" font-family="Times,serif" font-size="14.00" fill="#000000">i: [0, 0]</text>
<text text-anchor="middle" x="109.9898" y="-619.8" font-family="Times,serif" font-size="14.00" fill="#000000">len: [-inf, 99]</text>
</g>
<!-- j -->
<g id="node2" class="node">
<title>j</title>
<polygon fill="none" stroke="#000000" points="187.4754,-369.6 133.4754,-369.6 133.4754,-333.6 187.4754,-333.6 187.4754,-369.6"/>
<text text-anchor="middle" x="160.4754" y="-347.4" font-family="Times,serif" font-size="14.00" fill="#000000">j = 0</text>
</g>
<!-- meet2 -->
<g id="node7" class="node">
<title>meet2</title>
<polygon fill="none" stroke="#000000" points="187.4754,-264 133.4754,-264 133.4754,-228 187.4754,-228 187.4754,-264"/>
<text text-anchor="middle" x="160.4754" y="-241.8" font-family="Times,serif" font-size="14.00" fill="#000000">meet</text>
</g>
<!-- j&#45;&gt;meet2 -->
<g id="edge7" class="edge">
<title>j-&gt;meet2</title>
<path fill="none" stroke="#000000" d="M160.4754,-333.2059C160.4754,-316.9279 160.4754,-292.9223 160.4754,-274.2163"/>
<polygon fill="#000000" stroke="#000000" points="163.9755,-274.1833 160.4754,-264.1833 156.9755,-274.1834 163.9755,-274.1833"/>
<text text-anchor="middle" x="197.9898" y="-303" font-family="Times,serif" font-size="14.00" fill="#000000">j: [0, 0]</text>
<text text-anchor="middle" x="197.9898" y="-286.2" font-family="Times,serif" font-size="14.00" fill="#000000">len: [-inf, 99]</text>
</g>
<!-- if1 -->
<g id="node3" class="node">
<title>if1</title>
<polygon fill="none" stroke="#000000" points="186.417,-492 122.5337,-492 122.5337,-456 186.417,-456 186.417,-492"/>
<text text-anchor="middle" x="154.4754" y="-469.8" font-family="Times,serif" font-size="14.00" fill="#000000">if i &lt; len</text>
</g>
<!-- if1&#45;&gt;j -->
<g id="edge6" class="edge">
<title>if1-&gt;j</title>
<path fill="none" stroke="#000000" d="M155.3607,-455.9395C156.3444,-435.8712 157.9454,-403.2113 159.0942,-379.7752"/>
<polygon fill="#000000" stroke="#000000" points="162.5925,-379.894 159.5864,-369.7346 155.6009,-379.5513 162.5925,-379.894"/>
<text text-anchor="middle" x="195.9898" y="-425.4" font-family="Times,serif" font-size="14.00" fill="#000000">F</text>
<text text-anchor="middle" x="195.9898" y="-408.6" font-family="Times,serif" font-size="14.00" fill="#000000">i: [0, inf]</text>
<text text-anchor="middle" x="195.9898" y="-391.8" font-family="Times,serif" font-size="14.00" fill="#000000">len: [-inf, 99]</text>
</g>
<!-- ipp -->
<g id="node4" class="node">
<title>ipp</title>
<polygon fill="none" stroke="#000000" points="99.4754,-369.6 45.4754,-369.6 45.4754,-333.6 99.4754,-333.6 99.4754,-369.6"/>
<text text-anchor="middle" x="72.4754" y="-347.4" font-family="Times,serif" font-size="14.00" fill="#000000">i++</text>
</g>
<!-- if1&#45;&gt;ipp -->
<g id="edge4" class="edge">
<title>if1-&gt;ipp</title>
<path fill="none" stroke="#000000" d="M122.4101,-462.9198C110.4282,-457.2435 97.7735,-449.1286 89.6584,-438 77.4555,-421.2656 73.3547,-398.0584 72.1989,-379.9094"/>
<polygon fill="#000000" stroke="#000000" points="75.6957,-379.7555 71.8197,-369.8952 68.7007,-380.0205 75.6957,-379.7555"/>
<text text-anchor="middle" x="120.3839" y="-425.4" font-family="Times,serif" font-size="14.00" fill="#000000">T</text>
<text text-anchor="middle" x="120.3839" y="-408.6" font-family="Times,serif" font-size="14.00" fill="#000000">i: [0, 98]</text>
<text text-anchor="middle" x="120.3839" y="-391.8" font-family="Times,serif" font-size="14.00" fill="#000000">len: [1, 99]</text>
</g>
<!-- ipp&#45;&gt;meet -->
<g id="edge5" class="edge">
<title>ipp:nw-&gt;meet:sw</title>
<path fill="none" stroke="#000000" d="M45.4754,-369.6C-12.3895,-427.4649 -14.7629,-495.4282 38.3553,-554.1215"/>
<polygon fill="#000000" stroke="#000000" points="36.0451,-556.7709 45.4754,-561.6 41.1148,-551.9441 36.0451,-556.7709"/>
<text text-anchor="middle" x="34.3839" y="-478.2" font-family="Times,serif" font-size="14.00" fill="#000000">i: [1, 99]</text>
<text text-anchor="middle" x="34.3839" y="-461.4" font-family="Times,serif" font-size="14.00" fill="#000000">len: [1, 99]</text>
</g>
<!-- jpp -->
<g id="node5" class="node">
<title>jpp</title>
<polygon fill="none" stroke="#000000" points="187.4754,-36 133.4754,-36 133.4754,0 187.4754,0 187.4754,-36"/>
<text text-anchor="middle" x="160.4754" y="-13.8" font-family="Times,serif" font-size="14.00" fill="#000000">j++</text>
</g>
<!-- jpp&#45;&gt;meet2 -->
<g id="edge11" class="edge">
<title>jpp:nw-&gt;meet2:sw</title>
<path fill="none" stroke="#000000" d="M133.4754,-36C75.6105,-93.8649 73.2371,-161.8282 126.3553,-220.5215"/>
<polygon fill="#000000" stroke="#000000" points="124.0451,-223.1709 133.4754,-228 129.1148,-218.3441 124.0451,-223.1709"/>
<text text-anchor="middle" x="121.3839" y="-144.6" font-family="Times,serif" font-size="14.00" fill="#000000">j: [1, 99]</text>
<text text-anchor="middle" x="121.3839" y="-127.8" font-family="Times,serif" font-size="14.00" fill="#000000">len: [1, 99]</text>
</g>
<!-- if2 -->
<g id="node6" class="node">
<title>if2</title>
<polygon fill="none" stroke="#000000" points="274.417,-158.4 210.5337,-158.4 210.5337,-122.4 274.417,-122.4 274.417,-158.4"/>
<text text-anchor="middle" x="242.4754" y="-136.2" font-family="Times,serif" font-size="14.00" fill="#000000">if j &lt; len</text>
</g>
<!-- if2&#45;&gt;jpp -->
<g id="edge8" class="edge">
<title>if2-&gt;jpp</title>
<path fill="none" stroke="#000000" d="M210.4101,-129.3198C198.4282,-123.6435 185.7735,-115.5286 177.6584,-104.4 165.4555,-87.6656 161.3547,-64.4584 160.1989,-46.3094"/>
<polygon fill="#000000" stroke="#000000" points="163.6957,-46.1555 159.8197,-36.2952 156.7007,-46.4205 163.6957,-46.1555"/>
<text text-anchor="middle" x="208.3839" y="-91.8" font-family="Times,serif" font-size="14.00" fill="#000000">T</text>
<text text-anchor="middle" x="208.3839" y="-75" font-family="Times,serif" font-size="14.00" fill="#000000">j: [0, 98]</text>
<text text-anchor="middle" x="208.3839" y="-58.2" font-family="Times,serif" font-size="14.00" fill="#000000">len: [1, 99]</text>
</g>
<!-- exit -->
<g id="node10" class="node">
<title>exit</title>
<polygon fill="none" stroke="#000000" points="275.4754,-36 221.4754,-36 221.4754,0 275.4754,0 275.4754,-36"/>
<text text-anchor="middle" x="248.4754" y="-13.8" font-family="Times,serif" font-size="14.00" fill="#000000">exit</text>
</g>
<!-- if2&#45;&gt;exit -->
<g id="edge9" class="edge">
<title>if2-&gt;exit</title>
<path fill="none" stroke="#000000" d="M243.3607,-122.3395C244.3444,-102.2712 245.9454,-69.6113 247.0942,-46.1752"/>
<polygon fill="#000000" stroke="#000000" points="250.5925,-46.294 247.5864,-36.1346 243.6009,-45.9513 250.5925,-46.294"/>
<text text-anchor="middle" x="283.9898" y="-91.8" font-family="Times,serif" font-size="14.00" fill="#000000">F</text>
<text text-anchor="middle" x="283.9898" y="-75" font-family="Times,serif" font-size="14.00" fill="#000000">j: [0, inf]</text>
<text text-anchor="middle" x="283.9898" y="-58.2" font-family="Times,serif" font-size="14.00" fill="#000000">len: [-inf, 99]</text>
</g>
<!-- meet2&#45;&gt;if2 -->
<g id="edge10" class="edge">
<title>meet2-&gt;if2</title>
<path fill="none" stroke="#000000" d="M174.7587,-227.6059C187.8691,-210.7222 207.435,-185.5251 222.1688,-166.5509"/>
<polygon fill="#000000" stroke="#000000" points="224.9869,-168.6283 228.3557,-158.5833 219.4581,-164.3351 224.9869,-168.6283"/>
<text text-anchor="middle" x="250.9898" y="-197.4" font-family="Times,serif" font-size="14.00" fill="#000000">j: [0, inf]</text>
<text text-anchor="middle" x="250.9898" y="-180.6" font-family="Times,serif" font-size="14.00" fill="#000000">len: [-inf, 99]</text>
</g>
<!-- top -->
<g id="node8" class="node">
<title>top</title>
</g>
<!-- top&#45;&gt;i -->
<g id="edge1" class="edge">
<title>top-&gt;i</title>
<path fill="none" stroke="#000000" d="M72.4754,-755.6006C72.4754,-743.4949 72.4754,-727.4076 72.4754,-713.6674"/>
<polygon fill="#000000" stroke="#000000" points="75.9755,-713.272 72.4754,-703.272 68.9755,-713.2721 75.9755,-713.272"/>
<text text-anchor="middle" x="109.9898" y="-725.4" font-family="Times,serif" font-size="14.00" fill="#000000">len: [-inf, 99]</text>
</g>
<!-- meet&#45;&gt;if1 -->
<g id="edge3" class="edge">
<title>meet-&gt;if1</title>
<path fill="none" stroke="#000000" d="M86.7587,-561.2059C99.8691,-544.3222 119.435,-519.1251 134.1688,-500.1509"/>
<polygon fill="#000000" stroke="#000000" points="136.9869,-502.2283 140.3557,-492.1833 131.4581,-497.9351 136.9869,-502.2283"/>
<text text-anchor="middle" x="162.9898" y="-531" font-family="Times,serif" font-size="14.00" fill="#000000">i: [0, inf]</text>
<text text-anchor="middle" x="162.9898" y="-514.2" font-family="Times,serif" font-size="14.00" fill="#000000">len: [-inf, 99]</text>
</g>
</g>
</svg>