<?xml version="1.0" encoding="UTF-8" standalone="no"?><!DOCTYPE svg PUBLIC "-//W3C//DTD SVG 1.1//EN" "http://www.w3.org/Graphics/SVG/1.1/DTD/svg11.dtd"><!-- Generated by graphviz version 2.40.1 (20161225.0304)
 --><!-- Title: G Pages: 1 --><svg xmlns="http://www.w3.org/2000/svg" xmlns:xlink="http://www.w3.org/1999/xlink" width="134pt" height="133pt" viewBox="0.00 0.00 134.00 132.80">
<g id="graph0" class="graph" transform="scale(1 1) rotate(0) translate(4 128.8)">
<title>G</title>
<polygon fill="#ffffff" stroke="transparent" points="-4,4 -4,-128.8 130,-128.8 130,4 -4,4"/>
<!-- if1 -->
<g id="node1" class="node">
<title>if1</title>
<polygon fill="none" stroke="#000000" points="94.9416,-124.8 31.0584,-124.8 31.0584,-88.8 94.9416,-88.8 94.9416,-124.8"/>
<text text-anchor="middle" x="63" y="-102.6" font-family="Times,serif" font-size="14.00" fill="#000000">if i &lt; len</text>
</g>
<!-- T -->
<g id="node2" class="node">
<title>T</title>
</g>
<!-- if1&#45;&gt;T -->
<g id="edge1" class="edge">
<title>if1-&gt;T</title>
<path fill="none" stroke="#000000" d="M55.5408,-88.4006C50.5359,-76.0552 43.8523,-59.5689 38.211,-45.6539"/>
<polygon fill="#000000" stroke="#000000" points="41.3272,-44.0244 34.3265,-36.072 34.84,-46.6544 41.3272,-44.0244"/>
<text text-anchor="middle" x="53.2763" y="-58.2" font-family="Times,serif" font-size="14.00" fill="#000000">T</text>
</g>
<!-- F -->
<g id="node3" class="node">
<title>F</title>
</g>
<!-- if1&#45;&gt;F -->
<g id="edge2" class="edge">
<title>if1-&gt;F</title>
<path fill="none" stroke="#000000" d="M70.4592,-88.4006C75.4641,-76.0552 82.1477,-59.5689 87.789,-45.6539"/>
<polygon fill="#000000" stroke="#000000" points="91.16,-46.6544 91.6735,-36.072 84.6728,-44.0244 91.16,-46.6544"/>
<text text-anchor="middle" x="87.8913" y="-58.2" font-family="Times,serif" font-size="14.00" fill="#000000">F</text>
</g>
</g>
</svg>