<?xml version="1.0" encoding="UTF-8" standalone="no"?><!DOCTYPE svg PUBLIC "-//W3C//DTD SVG 1.1//EN" "http://www.w3.org/Graphics/SVG/1.1/DTD/svg11.dtd"><!-- Generated by graphviz version 2.40.1 (20161225.0304)
 --><!-- Title: G Pages: 1 --><svg xmlns="http://www.w3.org/2000/svg" xmlns:xlink="http://www.w3.org/1999/xlink" width="200pt" height="166pt" viewBox="0.00 0.00 200.48 166.40">
<g id="graph0" class="graph" transform="scale(1 1) rotate(0) translate(4 162.4)">
<title>G</title>
<polygon fill="#ffffff" stroke="transparent" points="-4,4 -4,-162.4 196.4783,-162.4 196.4783,4 -4,4"/>
<!-- if1 -->
<g id="node1" class="node">
<title>if1</title>
<polygon fill="none" stroke="#000000" points="106.6349,-158.4 42.7517,-158.4 42.7517,-122.4 106.6349,-122.4 106.6349,-158.4"/>
<text text-anchor="middle" x="74.6933" y="-136.2" font-family="Times,serif" font-size="14.00" fill="#000000">if i &lt; len</text>
</g>
<!-- T -->
<g id="node2" class="node">
<title>T</title>
</g>
<!-- if1&#45;&gt;T -->
<g id="edge1" class="edge">
<title>if1:sw-&gt;T:nw</title>
<path fill="none" stroke="#000000" d="M42.6933,-122.4C16.4373,-96.144 -11.6015,-70.0068 5.3222,-43.7721"/>
<polygon fill="#000000" stroke="#000000" points="8.0605,-45.9526 11.6933,-36 2.6469,-41.5148 8.0605,-45.9526"/>
<text text-anchor="middle" x="42.6385" y="-91.8" font-family="Times,serif" font-size="14.00" fill="#000000">T</text>
<text text-anchor="middle" x="42.6385" y="-75" font-family="Times,serif" font-size="14.00" fill="#000000">i &lt; len</text>
<text text-anchor="middle" x="42.6385" y="-58.2" font-family="Times,serif" font-size="14.00" fill="#000000">len &gt; i</text>
</g>
<!-- F -->
<g id="node3" class="node">
<title>F</title>
</g>
<!-- if1&#45;&gt;F -->
<g id="edge2" class="edge">
<title>if1:se-&gt;F:ne</title>
<path fill="none" stroke="#000000" d="M106.6933,-122.4C132.9493,-96.144 160.9881,-70.0068 144.0644,-43.7721"/>
<polygon fill="#000000" stroke="#000000" points="146.7397,-41.5148 137.6933,-36 141.3261,-45.9526 146.7397,-41.5148"/>
<text text-anchor="middle" x="170.5858" y="-91.8" font-family="Times,serif" font-size="14.00" fill="#000000">F</text>
<text text-anchor="middle" x="170.5858" y="-75" font-family="Times,serif" font-size="14.00" fill="#000000">i &gt;= len</text>
<text text-anchor="middle" x="170.5858" y="-58.2" font-family="Times,serif" font-size="14.00" fill="#000000">len &lt;= i</text>
</g>
</g>
</svg>