<svg version="1.1" viewBox="0.0 0.0 600.0 371.0" fill="none" stroke="none" stroke-linecap="square" stroke-miterlimit="10" width="600" height="371" xmlns:xlink="http://www.w3.org/1999/xlink" xmlns="http://www.w3.org/2000/svg"><path fill="#ffffff" d="M0 0L600.0 0L600.0 371.0L0 371.0L0 0Z" fill-rule="nonzero"/><path stroke="#333333" stroke-width="1.0" stroke-linecap="butt" d="M45.5 332.5L581.5 332.5" fill-rule="nonzero"/><path stroke="#cccccc" stroke-width="1.0" stroke-linecap="butt" d="M45.5 264.5L581.5 264.5" fill-rule="nonzero"/><path stroke="#cccccc" stroke-width="1.0" stroke-linecap="butt" d="M45.5 197.5L581.5 197.5" fill-rule="nonzero"/><path stroke="#cccccc" stroke-width="1.0" stroke-linecap="butt" d="M45.5 129.5L581.5 129.5" fill-rule="nonzero"/><path stroke="#cccccc" stroke-width="1.0" stroke-linecap="butt" d="M45.5 61.5L581.5 61.5" fill-rule="nonzero"/><path stroke="#e6e6e6" stroke-width="1.0" stroke-linecap="butt" d="M45.5 321.5L581.5 321.5" fill-rule="nonzero"/><path stroke="#e6e6e6" stroke-width="1.0" stroke-linecap="butt" d="M45.5 309.5L581.5 309.5" fill-rule="nonzero"/><path stroke="#e6e6e6" stroke-width="1.0" stroke-linecap="butt" d="M45.5 298.5L581.5 298.5" fill-rule="nonzero"/><path stroke="#e6e6e6" stroke-width="1.0" stroke-linecap="butt" d="M45.5 287.5L581.5 287.5" fill-rule="nonzero"/><path stroke="#e6e6e6" stroke-width="1.0" stroke-linecap="butt" d="M45.5 276.5L581.5 276.5" fill-rule="nonzero"/><path stroke="#e6e6e6" stroke-width="1.0" stroke-linecap="butt" d="M45.5 253.5L581.5 253.5" fill-rule="nonzero"/><path stroke="#e6e6e6" stroke-width="1.0" stroke-linecap="butt" d="M45.5 242.5L581.5 242.5" fill-rule="nonzero"/><path stroke="#e6e6e6" stroke-width="1.0" stroke-linecap="butt" d="M45.5 231.5L581.5 231.5" fill-rule="nonzero"/><path stroke="#e6e6e6" stroke-width="1.0" stroke-linecap="butt" d="M45.5 219.5L581.5 219.5" fill-rule="nonzero"/><path stroke="#e6e6e6" stroke-width="1.0" stroke-linecap="butt" d="M45.5 208.5L581.5 208.5" fill-rule="nonzero"/><path stroke="#e6e6e6" stroke-width="1.0" stroke-linecap="butt" d="M45.5 185.5L581.5 185.5" fill-rule="nonzero"/><path stroke="#e6e6e6" stroke-width="1.0" stroke-linecap="butt" d="M45.5 174.5L581.5 174.5" fill-rule="nonzero"/><path stroke="#e6e6e6" stroke-width="1.0" stroke-linecap="butt" d="M45.5 163.5L581.5 163.5" fill-rule="nonzero"/><path stroke="#e6e6e6" stroke-width="1.0" stroke-linecap="butt" d="M45.5 152.5L581.5 152.5" fill-rule="nonzero"/><path stroke="#e6e6e6" stroke-width="1.0" stroke-linecap="butt" d="M45.5 140.5L581.5 140.5" fill-rule="nonzero"/><path stroke="#e6e6e6" stroke-width="1.0" stroke-linecap="butt" d="M45.5 118.5L581.5 118.5" fill-rule="nonzero"/><path stroke="#e6e6e6" stroke-width="1.0" stroke-linecap="butt" d="M45.5 107.5L581.5 107.5" fill-rule="nonzero"/><path stroke="#e6e6e6" stroke-width="1.0" stroke-linecap="butt" d="M45.5 95.5L581.5 95.5" fill-rule="nonzero"/><path stroke="#e6e6e6" stroke-width="1.0" stroke-linecap="butt" d="M45.5 84.5L581.5 84.5" fill-rule="nonzero"/><path stroke="#e6e6e6" stroke-width="1.0" stroke-linecap="butt" d="M45.5 73.5L581.5 73.5" fill-rule="nonzero"/><clipPath id="id_0"><path d="M45.55 61.916668L581.45 61.916668L581.45 332.45L45.55 332.45L45.55 61.916668Z" clip-rule="nonzero"/></clipPath><path stroke="#000000" stroke-width="2.0" stroke-linecap="butt" stroke-opacity="0.0" clip-path="url(#id_0)" d="M206.0 332.0L102.0 332.0L102.0 103.0C102.0 101.89543 102.89543 101.0 104.0 101.0L204.0 101.0C205.10457 101.0 206.0 101.89543 206.0 103.0Z" fill-rule="nonzero"/><path fill="#4285f4" clip-path="url(#id_0)" d="M206.0 332.0L102.0 332.0L102.0 103.0C102.0 101.89543 102.89543 101.0 104.0 101.0L204.0 101.0C205.10457 101.0 206.0 101.89543 206.0 103.0Z" fill-rule="nonzero"/><path stroke="#000000" stroke-width="2.0" stroke-linecap="butt" stroke-opacity="0.0" clip-path="url(#id_0)" d="M366.0 332.0L262.0 332.0L262.0 119.0C262.0 117.89543 262.89542 117.0 264.0 117.0L364.0 117.0C365.10458 117.0 366.0 117.89543 366.0 119.0Z" fill-rule="nonzero"/><path fill="#4285f4" clip-path="url(#id_0)" d="M366.0 332.0L262.0 332.0L262.0 119.0C262.0 117.89543 262.89542 117.0 264.0 117.0L364.0 117.0C365.10458 117.0 366.0 117.89543 366.0 119.0Z" fill-rule="nonzero"/><path stroke="#000000" stroke-width="2.0" stroke-linecap="butt" stroke-opacity="0.0" clip-path="url(#id_0)" d="M525.0 332.0L421.0 332.0L421.0 199.0C421.0 197.89543 421.89542 197.0 423.0 197.0L523.0 197.0C524.10455 197.0 525.0 197.89543 525.0 199.0Z" fill-rule="nonzero"/><path fill="#4285f4" clip-path="url(#id_0)" d="M525.0 332.0L421.0 332.0L421.0 199.0C421.0 197.89543 421.89542 197.0 423.0 197.0L523.0 197.0C524.10455 197.0 525.0 197.89543 525.0 199.0Z" fill-rule="nonzero"/><path fill="#000000" d="M23.05 332.21564Q23.05 330.6844 23.3625 329.7625Q23.675 328.825 24.284374 328.325Q24.909374 327.825 25.846874 327.825Q26.534374 327.825 27.05 328.10626Q27.58125 328.3875 27.925 328.91876Q28.26875 329.4344 28.45625 330.1844Q28.64375 330.9344 28.64375 332.21564Q28.64375 333.73126 28.33125 334.65314Q28.034374 335.575 27.409374 336.09064Q26.8 336.59064 25.846874 336.59064Q24.6125 336.59064 23.89375 335.7Q23.05 334.6375 23.05 332.21564ZM24.128124 332.21564Q24.128124 334.325 24.628124 335.02814Q25.128124 335.73126 25.846874 335.73126Q26.58125 335.73126 27.065624 335.02814Q27.565624 334.325 27.565624 332.21564Q27.565624 330.09064 27.065624 329.40314Q26.58125 328.7 25.83125 328.7Q25.1125 328.7 24.675 329.3094Q24.128124 330.09064 24.128124 332.21564ZM30.64375 336.45L30.64375 335.2469L31.846874 335.2469L31.846874 336.45L30.64375 336.45ZM33.05 332.21564Q33.05 330.6844 33.3625 329.7625Q33.675 328.825 34.284374 328.325Q34.909374 327.825 35.846874 327.825Q36.534374 327.825 37.05 328.10626Q37.58125 328.3875 37.925 328.91876Q38.26875 329.4344 38.45625 330.1844Q38.64375 330.9344 38.64375 332.21564Q38.64375 333.73126 38.33125 334.65314Q38.034374 335.575 37.409374 336.09064Q36.8 336.59064 35.846874 336.59064Q34.6125 336.59064 33.89375 335.7Q33.05 334.6375 33.05 332.21564ZM34.128124 332.21564Q34.128124 334.325 34.628124 335.02814Q35.128124 335.73126 35.846874 335.73126Q36.58125 335.73126 37.065624 335.02814Q37.565624 334.325 37.565624 332.21564Q37.565624 330.09064 37.065624 329.40314Q36.58125 328.7 35.83125 328.7Q35.1125 328.7 34.675 329.3094Q34.128124 330.09064 34.128124 332.21564Z" fill-rule="nonzero"/><path fill="#000000" d="M23.05 264.5823Q23.05 263.05106 23.3625 262.12918Q23.675 261.19168 24.284374 260.69168Q24.909374 260.19168 25.846874 260.19168Q26.534374 260.19168 27.05 260.47293Q27.58125 260.75418 27.925 261.28543Q28.26875 261.80106 28.45625 262.55106Q28.64375 263.30106 28.64375 264.5823Q28.64375 266.09793 28.33125 267.0198Q28.034374 267.94168 27.409374 268.4573Q26.8 268.9573 25.846874 268.9573Q24.6125 268.9573 23.89375 268.06668Q23.05 267.00418 23.05 264.5823ZM24.128124 264.5823Q24.128124 266.69168 24.628124 267.3948Q25.128124 268.09793 25.846874 268.09793Q26.58125 268.09793 27.065624 267.3948Q27.565624 266.69168 27.565624 264.5823Q27.565624 262.4573 27.065624 261.7698Q26.58125 261.06668 25.83125 261.06668Q25.1125 261.06668 24.675 261.67606Q24.128124 262.4573 24.128124 264.5823ZM30.64375 268.81668L30.64375 267.61356L31.846874 267.61356L31.846874 268.81668L30.64375 268.81668ZM33.05 266.56668L34.159374 266.47293Q34.284374 267.28543 34.721874 267.69168Q35.175 268.09793 35.815624 268.09793Q36.565624 268.09793 37.096874 267.5198Q37.628124 266.94168 37.628124 266.00418Q37.628124 265.09793 37.1125 264.5823Q36.6125 264.05106 35.784374 264.05106Q35.284374 264.05106 34.8625 264.28543Q34.45625 264.5198 34.221874 264.87918L33.2375 264.75418L34.065624 260.34793L38.346874 260.34793L38.346874 261.34793L34.909374 261.34793L34.45625 263.66043Q35.221874 263.11356 36.065624 263.11356Q37.190624 263.11356 37.95625 263.8948Q38.7375 264.67606 38.7375 265.91043Q38.7375 267.06668 38.065624 267.92606Q37.2375 268.9573 35.815624 268.9573Q34.64375 268.9573 33.89375 268.30106Q33.159374 267.6448 33.05 266.56668Z" fill-rule="nonzero"/><path fill="#000000" d="M27.01875 201.18333L25.971874 201.18333L25.971874 194.46458Q25.58125 194.82396 24.95625 195.19896Q24.346874 195.55833 23.8625 195.73021L23.8625 194.71458Q24.7375 194.29271 25.39375 193.71458Q26.065624 193.12083 26.346874 192.55833L27.01875 192.55833L27.01875 201.18333ZM30.64375 201.18333L30.64375 199.98021L31.846874 199.98021L31.846874 201.18333L30.64375 201.18333ZM33.05 196.94896Q33.05 195.41771 33.3625 194.49583Q33.675 193.55833 34.284374 193.05833Q34.909374 192.55833 35.846874 192.55833Q36.534374 192.55833 37.05 192.83958Q37.58125 193.12083 37.925 193.65208Q38.26875 194.16771 38.45625 194.91771Q38.64375 195.66771 38.64375 196.94896Q38.64375 198.46458 38.33125 199.38646Q38.034374 200.30833 37.409374 200.82396Q36.8 201.32396 35.846874 201.32396Q34.6125 201.32396 33.89375 200.43333Q33.05 199.37083 33.05 196.94896ZM34.128124 196.94896Q34.128124 199.05833 34.628124 199.76146Q35.128124 200.46458 35.846874 200.46458Q36.58125 200.46458 37.065624 199.76146Q37.565624 199.05833 37.565624 196.94896Q37.565624 194.82396 37.065624 194.13646Q36.58125 193.43333 35.83125 193.43333Q35.1125 193.43333 34.675 194.04271Q34.128124 194.82396 34.128124 196.94896Z" fill-rule="nonzero"/><path fill="#000000" d="M27.01875 133.55L25.971874 133.55L25.971874 126.83125Q25.58125 127.19063 24.95625 127.56563Q24.346874 127.925 23.8625 128.09688L23.8625 127.08125Q24.7375 126.65938 25.39375 126.08125Q26.065624 125.4875 26.346874 124.925L27.01875 124.925L27.01875 133.55ZM30.64375 133.55L30.64375 132.34688L31.846874 132.34688L31.846874 133.55L30.64375 133.55ZM33.05 131.3L34.159374 131.20625Q34.284374 132.01875 34.721874 132.425Q35.175 132.83125 35.815624 132.83125Q36.565624 132.83125 37.096874 132.25313Q37.628124 131.675 37.628124 130.7375Q37.628124 129.83125 37.1125 129.31563Q36.6125 128.78438 35.784374 128.78438Q35.284374 128.78438 34.8625 129.01875Q34.45625 129.25313 34.221874 129.6125L33.2375 129.4875L34.065624 125.08125L38.346874 125.08125L38.346874 126.08125L34.909374 126.08125L34.45625 128.39375Q35.221874 127.84688 36.065624 127.84688Q37.190624 127.84688 37.95625 128.62813Q38.7375 129.40938 38.7375 130.64375Q38.7375 131.8 38.065624 132.65938Q37.2375 133.69063 35.815624 133.69063Q34.64375 133.69063 33.89375 133.03438Q33.159374 132.37813 33.05 131.3Z" fill-rule="nonzero"/><path fill="#000000" d="M28.596874 64.90104L28.596874 65.916664L22.909374 65.916664Q22.909374 65.541664 23.034374 65.18229Q23.253124 64.604164 23.721874 64.041664Q24.20625 63.479164 25.1125 62.74479Q26.51875 61.58854 27.003124 60.916664Q27.503124 60.24479 27.503124 59.65104Q27.503124 59.02604 27.05 58.604164Q26.596874 58.166664 25.878124 58.166664Q25.1125 58.166664 24.659374 58.61979Q24.20625 59.072914 24.190624 59.885414L23.1125 59.77604Q23.221874 58.55729 23.940624 57.93229Q24.675 57.291664 25.909374 57.291664Q27.14375 57.291664 27.8625 57.979164Q28.58125 58.666664 28.58125 59.68229Q28.58125 60.197914 28.3625 60.697914Q28.159374 61.18229 27.659374 61.74479Q27.175 62.291664 26.05 63.24479Q25.096874 64.041664 24.815624 64.33854Q24.55 64.61979 24.378124 64.90104L28.596874 64.90104ZM30.64375 65.916664L30.64375 64.71354L31.846874 64.71354L31.846874 65.916664L30.64375 65.916664ZM33.05 61.68229Q33.05 60.15104 33.3625 59.229164Q33.675 58.291664 34.284374 57.791664Q34.909374 57.291664 35.846874 57.291664Q36.534374 57.291664 37.05 57.572914Q37.58125 57.854164 37.925 58.385414Q38.26875 58.90104 38.45625 59.65104Q38.64375 60.40104 38.64375 61.68229Q38.64375 63.197914 38.33125 64.11979Q38.034374 65.041664 37.409374 65.55729Q36.8 66.05729 35.846874 66.05729Q34.6125 66.05729 33.89375 65.166664Q33.05 64.104164 33.05 61.68229ZM34.128124 61.68229Q34.128124 63.791664 34.628124 64.49479Q35.128124 65.197914 35.846874 65.197914Q36.58125 65.197914 37.065624 64.49479Q37.565624 63.791664 37.565624 61.68229Q37.565624 59.55729 37.065624 58.86979Q36.58125 58.166664 35.83125 58.166664Q35.1125 58.166664 34.675 58.77604Q34.128124 59.55729 34.128124 61.68229Z" fill-rule="nonzero"/><path fill="#000000" d="M99.404854 349.45L99.404854 340.85626L102.63923 340.85626Q103.623604 340.85626 104.217354 341.1219Q104.811104 341.3875 105.13923 341.9344Q105.48298 342.46564 105.48298 343.0594Q105.48298 343.60626 105.186104 344.09064Q104.88923 344.575 104.279854 344.8719Q105.061104 345.10626 105.467354 345.66876Q105.88923 346.21564 105.88923 346.96564Q105.88923 347.5594 105.63923 348.09064Q105.38923 348.60626 105.01423 348.8875Q104.63923 349.16876 104.061104 349.3094Q103.498604 349.45 102.686104 349.45L99.404854 349.45ZM100.54548 344.46564L102.404854 344.46564Q103.154854 344.46564 103.48298 344.3719Q103.92048 344.2469 104.13923 343.95Q104.35798 343.6375 104.35798 343.1844Q104.35798 342.7625 104.154854 342.4344Q103.95173 342.10626 103.561104 341.9969Q103.186104 341.8719 102.26423 341.8719L100.54548 341.8719L100.54548 344.46564ZM100.54548 348.4344L102.686104 348.4344Q103.23298 348.4344 103.45173 348.3875Q103.85798 348.325 104.10798 348.16876Q104.373604 347.9969 104.54548 347.6844Q104.717354 347.3719 104.717354 346.96564Q104.717354 346.48126 104.467354 346.1219Q104.23298 345.7625 103.79548 345.6219Q103.35798 345.48126 102.529854 345.48126L100.54548 345.48126L100.54548 348.4344ZM109.904854 349.45L106.57673 340.85626L107.811104 340.85626L110.04548 347.10626Q110.311104 347.85626 110.498604 348.5125Q110.70173 347.8094 110.967354 347.10626L113.279854 340.85626L114.436104 340.85626L111.07673 349.45L109.904854 349.45ZM114.498604 349.45L114.498604 340.85626L115.623604 340.85626L115.623604 344.3875L120.092354 344.3875L120.092354 340.85626L121.23298 340.85626L121.23298 349.45L120.092354 349.45L120.092354 345.40314L115.623604 345.40314L115.623604 349.45L114.498604 349.45ZM125.342354 351.98126Q124.467354 350.8719 123.85798 349.40314Q123.26423 347.91876 123.26423 346.34064Q123.26423 344.95 123.70173 343.66876Q124.23298 342.1844 125.342354 340.71564L126.092354 340.71564Q125.38923 341.9344 125.154854 342.45Q124.79548 343.2625 124.592354 344.1375Q124.342354 345.23126 124.342354 346.34064Q124.342354 349.16876 126.092354 351.98126L125.342354 351.98126ZM127.029854 347.1844L128.09235 347.04376Q128.26422 347.9344 128.70172 348.34064Q129.13922 348.73126 129.76422 348.73126Q130.51422 348.73126 131.02985 348.21564Q131.54547 347.7 131.54547 346.9344Q131.54547 346.21564 131.0611 345.7469Q130.59235 345.2625 129.85797 345.2625Q129.5611 345.2625 129.10797 345.3875L129.23297 344.45Q129.34235 344.46564 129.40485 344.46564Q130.07672 344.46564 130.60797 344.1219Q131.15485 343.7625 131.15485 343.02814Q131.15485 342.45 130.76422 342.075Q130.3736 341.6844 129.7486 341.6844Q129.13922 341.6844 128.71735 342.075Q128.3111 342.46564 128.20172 343.23126L127.13923 343.04376Q127.32673 341.9969 128.01422 341.41876Q128.70172 340.825 129.71735 340.825Q130.42047 340.825 131.01422 341.1375Q131.60797 341.4344 131.92047 341.95Q132.23297 342.46564 132.23297 343.0594Q132.23297 343.60626 131.9361 344.075Q131.63922 344.52814 131.0611 344.79376Q131.8111 344.96564 132.23297 345.52814Q132.65485 346.075 132.65485 346.91876Q132.65485 348.04376 131.82672 348.825Q131.01422 349.60626 129.76422 349.60626Q128.63922 349.60626 127.88923 348.9344Q127.13923 348.2469 127.029854 347.1844ZM139.57672 348.4344L139.57672 349.45L133.88922 349.45Q133.88922 349.075 134.01422 348.71564Q134.23297 348.1375 134.70172 347.575Q135.1861 347.0125 136.09235 346.27814Q137.4986 345.1219 137.98297 344.45Q138.48297 343.77814 138.48297 343.1844Q138.48297 342.5594 138.02985 342.1375Q137.57672 341.7 136.85797 341.7Q136.09235 341.7 135.63922 342.15314Q135.1861 342.60626 135.17047 343.41876L134.09235 343.3094Q134.20172 342.09064 134.92047 341.46564Q135.65485 340.825 136.88922 340.825Q138.1236 340.825 138.84235 341.5125Q139.5611 342.2 139.5611 343.21564Q139.5611 343.73126 139.34235 344.23126Q139.13922 344.71564 138.63922 345.27814Q138.15485 345.825 137.02985 346.77814Q136.07672 347.575 135.79547 347.8719Q135.52985 348.15314 135.35797 348.4344L139.57672 348.4344ZM142.01422 351.98126L141.26422 351.98126Q143.01422 349.16876 143.01422 346.34064Q143.01422 345.2469 142.76422 344.15314Q142.5611 343.27814 142.20172 342.46564Q141.96735 341.95 141.26422 340.71564L142.01422 340.71564Q143.10797 342.1844 143.63922 343.66876Q144.09235 344.95 144.09235 346.34064Q144.09235 347.91876 143.48297 349.40314Q142.8736 350.8719 142.01422 351.98126ZM145.59235 349.45L145.59235 348.2469L146.79547 348.2469L146.79547 349.45Q146.79547 350.10626 146.5611 350.5125Q146.32672 350.9344 145.82672 351.15314L145.52985 350.7Q145.85797 350.5594 146.01422 350.2625Q146.17047 349.98126 146.20172 349.45L145.59235 349.45ZM151.10797 345.2625Q151.10797 343.1219 152.2486 341.91876Q153.40485 340.7 155.21735 340.7Q156.42047 340.7 157.3736 341.27814Q158.32672 341.84064 158.82672 342.85626Q159.32672 343.8719 159.32672 345.16876Q159.32672 346.46564 158.79547 347.4969Q158.26422 348.52814 157.29547 349.0594Q156.34235 349.59064 155.21735 349.59064Q153.9986 349.59064 153.04547 349.0125Q152.09235 348.41876 151.59235 347.41876Q151.10797 346.40314 151.10797 345.2625ZM152.27985 345.27814Q152.27985 346.84064 153.10797 347.73126Q153.95172 348.6219 155.21735 348.6219Q156.4986 348.6219 157.32672 347.73126Q158.15485 346.825 158.15485 345.15314Q158.15485 344.10626 157.79547 343.325Q157.45172 342.54376 156.76422 342.1219Q156.07672 341.6844 155.23297 341.6844Q154.02985 341.6844 153.15485 342.5125Q152.27985 343.34064 152.27985 345.27814ZM164.38922 347.16876L165.42047 347.3094Q165.2486 348.3719 164.54547 348.98126Q163.84235 349.59064 162.82672 349.59064Q161.54547 349.59064 160.76422 348.7625Q159.9986 347.91876 159.9986 346.35626Q159.9986 345.35626 160.32672 344.60626Q160.67047 343.84064 161.34235 343.46564Q162.02985 343.09064 162.84235 343.09064Q163.84235 343.09064 164.48297 343.60626Q165.13922 344.10626 165.32672 345.0594L164.29547 345.21564Q164.15485 344.59064 163.77985 344.27814Q163.40485 343.95 162.8736 343.95Q162.07672 343.95 161.57672 344.52814Q161.07672 345.09064 161.07672 346.325Q161.07672 347.59064 161.5611 348.15314Q162.04547 348.71564 162.8111 348.71564Q163.4361 348.71564 163.84235 348.34064Q164.26422 347.96564 164.38922 347.16876ZM168.6236 348.5125L168.77985 349.4344Q168.32672 349.52814 167.98297 349.52814Q167.40485 349.52814 167.09235 349.35626Q166.77985 349.16876 166.63922 348.8719Q166.51422 348.575 166.51422 347.6219L166.51422 344.04376L165.7486 344.04376L165.7486 343.23126L166.51422 343.23126L166.51422 341.6844L167.5611 341.0594L167.5611 343.23126L168.6236 343.23126L168.6236 344.04376L167.5611 344.04376L167.5611 347.6844Q167.5611 348.1375 167.60797 348.2625Q167.67047 348.3875 167.79547 348.46564Q167.92047 348.54376 168.15485 348.54376Q168.34235 348.54376 168.6236 348.5125ZM169.3111 349.45L169.3111 343.23126L170.26422 343.23126L170.26422 344.16876Q170.6236 343.5125 170.92047 343.3094Q171.23297 343.09064 171.60797 343.09064Q172.13922 343.09064 172.6861 343.41876L172.32672 344.40314Q171.9361 344.16876 171.5611 344.16876Q171.20172 344.16876 170.92047 344.3875Q170.65485 344.59064 170.54547 344.96564Q170.35797 345.52814 170.35797 346.1844L170.35797 349.45L169.3111 349.45ZM177.57672 347.45L178.67047 347.575Q178.42047 348.52814 177.71735 349.0594Q177.01422 349.59064 175.9361 349.59064Q174.57672 349.59064 173.76422 348.7469Q172.96735 347.90314 172.96735 346.3875Q172.96735 344.825 173.77985 343.96564Q174.59235 343.09064 175.8736 343.09064Q177.1236 343.09064 177.90485 343.9344Q178.70172 344.77814 178.70172 346.325Q178.70172 346.41876 178.70172 346.60626L174.0611 346.60626Q174.1236 347.6375 174.63922 348.1844Q175.15485 348.71564 175.9361 348.71564Q176.51422 348.71564 176.92047 348.41876Q177.34235 348.10626 177.57672 347.45ZM174.1236 345.7469L177.59235 345.7469Q177.52985 344.95 177.20172 344.5594Q176.6861 343.95 175.88922 343.95Q175.15485 343.95 174.65485 344.4344Q174.17047 344.91876 174.1236 345.7469ZM184.57672 347.45L185.67047 347.575Q185.42047 348.52814 184.71735 349.0594Q184.01422 349.59064 182.9361 349.59064Q181.57672 349.59064 180.76422 348.7469Q179.96735 347.90314 179.96735 346.3875Q179.96735 344.825 180.77985 343.96564Q181.59235 343.09064 182.8736 343.09064Q184.1236 343.09064 184.90485 343.9344Q185.70172 344.77814 185.70172 346.325Q185.70172 346.41876 185.70172 346.60626L181.0611 346.60626Q181.1236 347.6375 181.63922 348.1844Q182.15485 348.71564 182.9361 348.71564Q183.51422 348.71564 183.92047 348.41876Q184.34235 348.10626 184.57672 347.45ZM181.1236 345.7469L184.59235 345.7469Q184.52985 344.95 184.20172 344.5594Q183.6861 343.95 182.88922 343.95Q182.15485 343.95 181.65485 344.4344Q181.17047 344.91876 181.1236 345.7469ZM189.34235 351.98126Q188.46735 350.8719 187.85797 349.40314Q187.26422 347.91876 187.26422 346.34064Q187.26422 344.95 187.70172 343.66876Q188.23297 342.1844 189.34235 340.71564L190.09235 340.71564Q189.38922 341.9344 189.15485 342.45Q188.79547 343.2625 188.59235 344.1375Q188.34235 345.23126 188.34235 346.34064Q188.34235 349.16876 190.09235 351.98126L189.34235 351.98126ZM191.02985 347.1844L192.09235 347.04376Q192.26422 347.9344 192.70172 348.34064Q193.13922 348.73126 193.76422 348.73126Q194.51422 348.73126 195.02985 348.21564Q195.54547 347.7 195.54547 346.9344Q195.54547 346.21564 195.0611 345.7469Q194.59235 345.2625 193.85797 345.2625Q193.5611 345.2625 193.10797 345.3875L193.23297 344.45Q193.34235 344.46564 193.40485 344.46564Q194.07672 344.46564 194.60797 344.1219Q195.15485 343.7625 195.15485 343.02814Q195.15485 342.45 194.76422 342.075Q194.3736 341.6844 193.7486 341.6844Q193.13922 341.6844 192.71735 342.075Q192.3111 342.46564 192.20172 343.23126L191.13922 343.04376Q191.32672 341.9969 192.01422 341.41876Q192.70172 340.825 193.71735 340.825Q194.42047 340.825 195.01422 341.1375Q195.60797 341.4344 195.92047 341.95Q196.23297 342.46564 196.23297 343.0594Q196.23297 343.60626 195.9361 344.075Q195.63922 344.52814 195.0611 344.79376Q195.8111 344.96564 196.23297 345.52814Q196.65485 346.075 196.65485 346.91876Q196.65485 348.04376 195.82672 348.825Q195.01422 349.60626 193.76422 349.60626Q192.63922 349.60626 191.88922 348.9344Q191.13922 348.2469 191.02985 347.1844ZM203.57672 348.4344L203.57672 349.45L197.88922 349.45Q197.88922 349.075 198.01422 348.71564Q198.23297 348.1375 198.70172 347.575Q199.1861 347.0125 200.09235 346.27814Q201.4986 345.1219 201.98297 344.45Q202.48297 343.77814 202.48297 343.1844Q202.48297 342.5594 202.02985 342.1375Q201.57672 341.7 200.85797 341.7Q200.09235 341.7 199.63922 342.15314Q199.1861 342.60626 199.17047 343.41876L198.09235 343.3094Q198.20172 342.09064 198.92047 341.46564Q199.65485 340.825 200.88922 340.825Q202.1236 340.825 202.84235 341.5125Q203.5611 342.2 203.5611 343.21564Q203.5611 343.73126 203.34235 344.23126Q203.13922 344.71564 202.63922 345.27814Q202.15485 345.825 201.02985 346.77814Q200.07672 347.575 199.79547 347.8719Q199.52985 348.15314 199.35797 348.4344L203.57672 348.4344ZM206.01422 351.98126L205.26422 351.98126Q207.01422 349.16876 207.01422 346.34064Q207.01422 345.2469 206.76422 344.15314Q206.5611 343.27814 206.20172 342.46564Q205.96735 341.95 205.26422 340.71564L206.01422 340.71564Q207.10797 342.1844 207.63922 343.66876Q208.09235 344.95 208.09235 346.34064Q208.09235 347.91876 207.48297 349.40314Q206.8736 350.8719 206.01422 351.98126Z" fill-rule="nonzero"/><path fill="#000000" d="M259.375 349.45L259.375 340.85626L262.60938 340.85626Q263.59375 340.85626 264.1875 341.1219Q264.78125 341.3875 265.10938 341.9344Q265.45312 342.46564 265.45312 343.0594Q265.45312 343.60626 265.15625 344.09064Q264.85938 344.575 264.25 344.8719Q265.03125 345.10626 265.4375 345.66876Q265.85938 346.21564 265.85938 346.96564Q265.85938 347.5594 265.60938 348.09064Q265.35938 348.60626 264.98438 348.8875Q264.60938 349.16876 264.03125 349.3094Q263.46875 349.45 262.65625 349.45L259.375 349.45ZM260.51562 344.46564L262.375 344.46564Q263.125 344.46564 263.45312 344.3719Q263.89062 344.2469 264.10938 343.95Q264.32812 343.6375 264.32812 343.1844Q264.32812 342.7625 264.125 342.4344Q263.92188 342.10626 263.53125 341.9969Q263.15625 341.8719 262.23438 341.8719L260.51562 341.8719L260.51562 344.46564ZM260.51562 348.4344L262.65625 348.4344Q263.20312 348.4344 263.42188 348.3875Q263.82812 348.325 264.07812 348.16876Q264.34375 347.9969 264.51562 347.6844Q264.6875 347.3719 264.6875 346.96564Q264.6875 346.48126 264.4375 346.1219Q264.20312 345.7625 263.76562 345.6219Q263.32812 345.48126 262.5 345.48126L260.51562 345.48126L260.51562 348.4344ZM269.875 349.45L266.54688 340.85626L267.78125 340.85626L270.01562 347.10626Q270.28125 347.85626 270.46875 348.5125Q270.67188 347.8094 270.9375 347.10626L273.25 340.85626L274.40625 340.85626L271.04688 349.45L269.875 349.45ZM274.46875 349.45L274.46875 340.85626L275.59375 340.85626L275.59375 344.3875L280.0625 344.3875L280.0625 340.85626L281.20312 340.85626L281.20312 349.45L280.0625 349.45L280.0625 345.40314L275.59375 345.40314L275.59375 349.45L274.46875 349.45ZM285.3125 351.98126Q284.4375 350.8719 283.82812 349.40314Q283.23438 347.91876 283.23438 346.34064Q283.23438 344.95 283.67188 343.66876Q284.20312 342.1844 285.3125 340.71564L286.0625 340.71564Q285.35938 341.9344 285.125 342.45Q284.76562 343.2625 284.5625 344.1375Q284.3125 345.23126 284.3125 346.34064Q284.3125 349.16876 286.0625 351.98126L285.3125 351.98126ZM287.0 347.1844L288.0625 347.04376Q288.23438 347.9344 288.67188 348.34064Q289.10938 348.73126 289.73438 348.73126Q290.48438 348.73126 291.0 348.21564Q291.51562 347.7 291.51562 346.9344Q291.51562 346.21564 291.03125 345.7469Q290.5625 345.2625 289.82812 345.2625Q289.53125 345.2625 289.07812 345.3875L289.20312 344.45Q289.3125 344.46564 289.375 344.46564Q290.04688 344.46564 290.57812 344.1219Q291.125 343.7625 291.125 343.02814Q291.125 342.45 290.73438 342.075Q290.34375 341.6844 289.71875 341.6844Q289.10938 341.6844 288.6875 342.075Q288.28125 342.46564 288.17188 343.23126L287.10938 343.04376Q287.29688 341.9969 287.98438 341.41876Q288.67188 340.825 289.6875 340.825Q290.39062 340.825 290.98438 341.1375Q291.57812 341.4344 291.89062 341.95Q292.20312 342.46564 292.20312 343.0594Q292.20312 343.60626 291.90625 344.075Q291.60938 344.52814 291.03125 344.79376Q291.78125 344.96564 292.20312 345.52814Q292.625 346.075 292.625 346.91876Q292.625 348.04376 291.79688 348.825Q290.98438 349.60626 289.73438 349.60626Q288.60938 349.60626 287.85938 348.9344Q287.10938 348.2469 287.0 347.1844ZM299.54688 348.4344L299.54688 349.45L293.85938 349.45Q293.85938 349.075 293.98438 348.71564Q294.20312 348.1375 294.67188 347.575Q295.15625 347.0125 296.0625 346.27814Q297.46875 345.1219 297.95312 344.45Q298.45312 343.77814 298.45312 343.1844Q298.45312 342.5594 298.0 342.1375Q297.54688 341.7 296.82812 341.7Q296.0625 341.7 295.60938 342.15314Q295.15625 342.60626 295.14062 343.41876L294.0625 343.3094Q294.17188 342.09064 294.89062 341.46564Q295.625 340.825 296.85938 340.825Q298.09375 340.825 298.8125 341.5125Q299.53125 342.2 299.53125 343.21564Q299.53125 343.73126 299.3125 344.23126Q299.10938 344.71564 298.60938 345.27814Q298.125 345.825 297.0 346.77814Q296.04688 347.575 295.76562 347.8719Q295.5 348.15314 295.32812 348.4344L299.54688 348.4344ZM301.98438 351.98126L301.23438 351.98126Q302.98438 349.16876 302.98438 346.34064Q302.98438 345.2469 302.73438 344.15314Q302.53125 343.27814 302.17188 342.46564Q301.9375 341.95 301.23438 340.71564L301.98438 340.71564Q303.07812 342.1844 303.60938 343.66876Q304.0625 344.95 304.0625 346.34064Q304.0625 347.91876 303.45312 349.40314Q302.84375 350.8719 301.98438 351.98126ZM305.5625 349.45L305.5625 348.2469L306.76562 348.2469L306.76562 349.45Q306.76562 350.10626 306.53125 350.5125Q306.29688 350.9344 305.79688 351.15314L305.5 350.7Q305.82812 350.5594 305.98438 350.2625Q306.14062 349.98126 306.17188 349.45L305.5625 349.45ZM311.07812 345.2625Q311.07812 343.1219 312.21875 341.91876Q313.375 340.7 315.1875 340.7Q316.39062 340.7 317.34375 341.27814Q318.29688 341.84064 318.79688 342.85626Q319.29688 343.8719 319.29688 345.16876Q319.29688 346.46564 318.76562 347.4969Q318.23438 348.52814 317.26562 349.0594Q316.3125 349.59064 315.1875 349.59064Q313.96875 349.59064 313.01562 349.0125Q312.0625 348.41876 311.5625 347.41876Q311.07812 346.40314 311.07812 345.2625ZM312.25 345.27814Q312.25 346.84064 313.07812 347.73126Q313.92188 348.6219 315.1875 348.6219Q316.46875 348.6219 317.29688 347.73126Q318.125 346.825 318.125 345.15314Q318.125 344.10626 317.76562 343.325Q317.42188 342.54376 316.73438 342.1219Q316.04688 341.6844 315.20312 341.6844Q314.0 341.6844 313.125 342.5125Q312.25 343.34064 312.25 345.27814ZM324.35938 347.16876L325.39062 347.3094Q325.21875 348.3719 324.51562 348.98126Q323.8125 349.59064 322.79688 349.59064Q321.51562 349.59064 320.73438 348.7625Q319.96875 347.91876 319.96875 346.35626Q319.96875 345.35626 320.29688 344.60626Q320.64062 343.84064 321.3125 343.46564Q322.0 343.09064 322.8125 343.09064Q323.8125 343.09064 324.45312 343.60626Q325.10938 344.10626 325.29688 345.0594L324.26562 345.21564Q324.125 344.59064 323.75 344.27814Q323.375 343.95 322.84375 343.95Q322.04688 343.95 321.54688 344.52814Q321.04688 345.09064 321.04688 346.325Q321.04688 347.59064 321.53125 348.15314Q322.01562 348.71564 322.78125 348.71564Q323.40625 348.71564 323.8125 348.34064Q324.23438 347.96564 324.35938 347.16876ZM328.59375 348.5125L328.75 349.4344Q328.29688 349.52814 327.95312 349.52814Q327.375 349.52814 327.0625 349.35626Q326.75 349.16876 326.60938 348.8719Q326.48438 348.575 326.48438 347.6219L326.48438 344.04376L325.71875 344.04376L325.71875 343.23126L326.48438 343.23126L326.48438 341.6844L327.53125 341.0594L327.53125 343.23126L328.59375 343.23126L328.59375 344.04376L327.53125 344.04376L327.53125 347.6844Q327.53125 348.1375 327.57812 348.2625Q327.64062 348.3875 327.76562 348.46564Q327.89062 348.54376 328.125 348.54376Q328.3125 348.54376 328.59375 348.5125ZM329.28125 349.45L329.28125 343.23126L330.23438 343.23126L330.23438 344.16876Q330.59375 343.5125 330.89062 343.3094Q331.20312 343.09064 331.57812 343.09064Q332.10938 343.09064 332.65625 343.41876L332.29688 344.40314Q331.90625 344.16876 331.53125 344.16876Q331.17188 344.16876 330.89062 344.3875Q330.625 344.59064 330.51562 344.96564Q330.32812 345.52814 330.32812 346.1844L330.32812 349.45L329.28125 349.45ZM337.54688 347.45L338.64062 347.575Q338.39062 348.52814 337.6875 349.0594Q336.98438 349.59064 335.90625 349.59064Q334.54688 349.59064 333.73438 348.7469Q332.9375 347.90314 332.9375 346.3875Q332.9375 344.825 333.75 343.96564Q334.5625 343.09064 335.84375 343.09064Q337.09375 343.09064 337.875 343.9344Q338.67188 344.77814 338.67188 346.325Q338.67188 346.41876 338.67188 346.60626L334.03125 346.60626Q334.09375 347.6375 334.60938 348.1844Q335.125 348.71564 335.90625 348.71564Q336.48438 348.71564 336.89062 348.41876Q337.3125 348.10626 337.54688 347.45ZM334.09375 345.7469L337.5625 345.7469Q337.5 344.95 337.17188 344.5594Q336.65625 343.95 335.85938 343.95Q335.125 343.95 334.625 344.4344Q334.14062 344.91876 334.09375 345.7469ZM344.54688 347.45L345.64062 347.575Q345.39062 348.52814 344.6875 349.0594Q343.98438 349.59064 342.90625 349.59064Q341.54688 349.59064 340.73438 348.7469Q339.9375 347.90314 339.9375 346.3875Q339.9375 344.825 340.75 343.96564Q341.5625 343.09064 342.84375 343.09064Q344.09375 343.09064 344.875 343.9344Q345.67188 344.77814 345.67188 346.325Q345.67188 346.41876 345.67188 346.60626L341.03125 346.60626Q341.09375 347.6375 341.60938 348.1844Q342.125 348.71564 342.90625 348.71564Q343.48438 348.71564 343.89062 348.41876Q344.3125 348.10626 344.54688 347.45ZM341.09375 345.7469L344.5625 345.7469Q344.5 344.95 344.17188 344.5594Q343.65625 343.95 342.85938 343.95Q342.125 343.95 341.625 344.4344Q341.14062 344.91876 341.09375 345.7469ZM349.3125 351.98126Q348.4375 350.8719 347.82812 349.40314Q347.23438 347.91876 347.23438 346.34064Q347.23438 344.95 347.67188 343.66876Q348.20312 342.1844 349.3125 340.71564L350.0625 340.71564Q349.35938 341.9344 349.125 342.45Q348.76562 343.2625 348.5625 344.1375Q348.3125 345.23126 348.3125 346.34064Q348.3125 349.16876 350.0625 351.98126L349.3125 351.98126ZM354.96875 349.45L353.92188 349.45L353.92188 342.73126Q353.53125 343.09064 352.90625 343.46564Q352.29688 343.825 351.8125 343.9969L351.8125 342.98126Q352.6875 342.5594 353.34375 341.98126Q354.01562 341.3875 354.29688 340.825L354.96875 340.825L354.96875 349.45ZM363.54688 348.4344L363.54688 349.45L357.85938 349.45Q357.85938 349.075 357.98438 348.71564Q358.20312 348.1375 358.67188 347.575Q359.15625 347.0125 360.0625 346.27814Q361.46875 345.1219 361.95312 344.45Q362.45312 343.77814 362.45312 343.1844Q362.45312 342.5594 362.0 342.1375Q361.54688 341.7 360.82812 341.7Q360.0625 341.7 359.60938 342.15314Q359.15625 342.60626 359.14062 343.41876L358.0625 343.3094Q358.17188 342.09064 358.89062 341.46564Q359.625 340.825 360.85938 340.825Q362.09375 340.825 362.8125 341.5125Q363.53125 342.2 363.53125 343.21564Q363.53125 343.73126 363.3125 344.23126Q363.10938 344.71564 362.60938 345.27814Q362.125 345.825 361.0 346.77814Q360.04688 347.575 359.76562 347.8719Q359.5 348.15314 359.32812 348.4344L363.54688 348.4344ZM365.98438 351.98126L365.23438 351.98126Q366.98438 349.16876 366.98438 346.34064Q366.98438 345.2469 366.73438 344.15314Q366.53125 343.27814 366.17188 342.46564Q365.9375 341.95 365.23438 340.71564L365.98438 340.71564Q367.07812 342.1844 367.60938 343.66876Q368.0625 344.95 368.0625 346.34064Q368.0625 347.91876 367.45312 349.40314Q366.84375 350.8719 365.98438 351.98126Z" fill-rule="nonzero"/><path fill="#000000" d="M419.34515 349.45L419.34515 340.85626L422.57953 340.85626Q423.5639 340.85626 424.15765 341.1219Q424.7514 341.3875 425.07953 341.9344Q425.42328 342.46564 425.42328 343.0594Q425.42328 343.60626 425.1264 344.09064Q424.82953 344.575 424.22015 344.8719Q425.0014 345.10626 425.40765 345.66876Q425.82953 346.21564 425.82953 346.96564Q425.82953 347.5594 425.57953 348.09064Q425.32953 348.60626 424.95453 348.8875Q424.57953 349.16876 424.0014 349.3094Q423.4389 349.45 422.6264 349.45L419.34515 349.45ZM420.48578 344.46564L422.34515 344.46564Q423.09515 344.46564 423.42328 344.3719Q423.86078 344.2469 424.07953 343.95Q424.29828 343.6375 424.29828 343.1844Q424.29828 342.7625 424.09515 342.4344Q423.89203 342.10626 423.5014 341.9969Q423.1264 341.8719 422.20453 341.8719L420.48578 341.8719L420.48578 344.46564ZM420.48578 348.4344L422.6264 348.4344Q423.17328 348.4344 423.39203 348.3875Q423.79828 348.325 424.04828 348.16876Q424.3139 347.9969 424.48578 347.6844Q424.65765 347.3719 424.65765 346.96564Q424.65765 346.48126 424.40765 346.1219Q424.17328 345.7625 423.73578 345.6219Q423.29828 345.48126 422.47015 345.48126L420.48578 345.48126L420.48578 348.4344ZM429.84515 349.45L426.51703 340.85626L427.7514 340.85626L429.98578 347.10626Q430.2514 347.85626 430.4389 348.5125Q430.64203 347.8094 430.90765 347.10626L433.22015 340.85626L434.3764 340.85626L431.01703 349.45L429.84515 349.45ZM434.4389 349.45L434.4389 340.85626L435.5639 340.85626L435.5639 344.3875L440.03265 344.3875L440.03265 340.85626L441.17328 340.85626L441.17328 349.45L440.03265 349.45L440.03265 345.40314L435.5639 345.40314L435.5639 349.45L434.4389 349.45ZM445.28265 351.98126Q444.40765 350.8719 443.79828 349.40314Q443.20453 347.91876 443.20453 346.34064Q443.20453 344.95 443.64203 343.66876Q444.17328 342.1844 445.28265 340.71564L446.03265 340.71564Q445.32953 341.9344 445.09515 342.45Q444.73578 343.2625 444.53265 344.1375Q444.28265 345.23126 444.28265 346.34064Q444.28265 349.16876 446.03265 351.98126L445.28265 351.98126ZM446.97015 347.1844L448.03265 347.04376Q448.20453 347.9344 448.64203 348.34064Q449.07953 348.73126 449.70453 348.73126Q450.45453 348.73126 450.97015 348.21564Q451.48578 347.7 451.48578 346.9344Q451.48578 346.21564 451.0014 345.7469Q450.53265 345.2625 449.79828 345.2625Q449.5014 345.2625 449.04828 345.3875L449.17328 344.45Q449.28265 344.46564 449.34515 344.46564Q450.01703 344.46564 450.54828 344.1219Q451.09515 343.7625 451.09515 343.02814Q451.09515 342.45 450.70453 342.075Q450.3139 341.6844 449.6889 341.6844Q449.07953 341.6844 448.65765 342.075Q448.2514 342.46564 448.14203 343.23126L447.07953 343.04376Q447.26703 341.9969 447.95453 341.41876Q448.64203 340.825 449.65765 340.825Q450.36078 340.825 450.95453 341.1375Q451.54828 341.4344 451.86078 341.95Q452.17328 342.46564 452.17328 343.0594Q452.17328 343.60626 451.8764 344.075Q451.57953 344.52814 451.0014 344.79376Q451.7514 344.96564 452.17328 345.52814Q452.59515 346.075 452.59515 346.91876Q452.59515 348.04376 451.76703 348.825Q450.95453 349.60626 449.70453 349.60626Q448.57953 349.60626 447.82953 348.9344Q447.07953 348.2469 446.97015 347.1844ZM459.51703 348.4344L459.51703 349.45L453.82953 349.45Q453.82953 349.075 453.95453 348.71564Q454.17328 348.1375 454.64203 347.575Q455.1264 347.0125 456.03265 346.27814Q457.4389 345.1219 457.92328 344.45Q458.42328 343.77814 458.42328 343.1844Q458.42328 342.5594 457.97015 342.1375Q457.51703 341.7 456.79828 341.7Q456.03265 341.7 455.57953 342.15314Q455.1264 342.60626 455.11078 343.41876L454.03265 343.3094Q454.14203 342.09064 454.86078 341.46564Q455.59515 340.825 456.82953 340.825Q458.0639 340.825 458.78265 341.5125Q459.5014 342.2 459.5014 343.21564Q459.5014 343.73126 459.28265 344.23126Q459.07953 344.71564 458.57953 345.27814Q458.09515 345.825 456.97015 346.77814Q456.01703 347.575 455.73578 347.8719Q455.47015 348.15314 455.29828 348.4344L459.51703 348.4344ZM461.95453 351.98126L461.20453 351.98126Q462.95453 349.16876 462.95453 346.34064Q462.95453 345.2469 462.70453 344.15314Q462.5014 343.27814 462.14203 342.46564Q461.90765 341.95 461.20453 340.71564L461.95453 340.71564Q463.04828 342.1844 463.57953 343.66876Q464.03265 344.95 464.03265 346.34064Q464.03265 347.91876 463.42328 349.40314Q462.8139 350.8719 461.95453 351.98126ZM465.53265 349.45L465.53265 348.2469L466.73578 348.2469L466.73578 349.45Q466.73578 350.10626 466.5014 350.5125Q466.26703 350.9344 465.76703 351.15314L465.47015 350.7Q465.79828 350.5594 465.95453 350.2625Q466.11078 349.98126 466.14203 349.45L465.53265 349.45ZM471.04828 345.2625Q471.04828 343.1219 472.1889 341.91876Q473.34515 340.7 475.15765 340.7Q476.36078 340.7 477.3139 341.27814Q478.26703 341.84064 478.76703 342.85626Q479.26703 343.8719 479.26703 345.16876Q479.26703 346.46564 478.73578 347.4969Q478.20453 348.52814 477.23578 349.0594Q476.28265 349.59064 475.15765 349.59064Q473.9389 349.59064 472.98578 349.0125Q472.03265 348.41876 471.53265 347.41876Q471.04828 346.40314 471.04828 345.2625ZM472.22015 345.27814Q472.22015 346.84064 473.04828 347.73126Q473.89203 348.6219 475.15765 348.6219Q476.4389 348.6219 477.26703 347.73126Q478.09515 346.825 478.09515 345.15314Q478.09515 344.10626 477.73578 343.325Q477.39203 342.54376 476.70453 342.1219Q476.01703 341.6844 475.17328 341.6844Q473.97015 341.6844 473.09515 342.5125Q472.22015 343.34064 472.22015 345.27814ZM484.32953 347.16876L485.36078 347.3094Q485.1889 348.3719 484.48578 348.98126Q483.78265 349.59064 482.76703 349.59064Q481.48578 349.59064 480.70453 348.7625Q479.9389 347.91876 479.9389 346.35626Q479.9389 345.35626 480.26703 344.60626Q480.61078 343.84064 481.28265 343.46564Q481.97015 343.09064 482.78265 343.09064Q483.78265 343.09064 484.42328 343.60626Q485.07953 344.10626 485.26703 345.0594L484.23578 345.21564Q484.09515 344.59064 483.72015 344.27814Q483.34515 343.95 482.8139 343.95Q482.01703 343.95 481.51703 344.52814Q481.01703 345.09064 481.01703 346.325Q481.01703 347.59064 481.5014 348.15314Q481.98578 348.71564 482.7514 348.71564Q483.3764 348.71564 483.78265 348.34064Q484.20453 347.96564 484.32953 347.16876ZM488.5639 348.5125L488.72015 349.4344Q488.26703 349.52814 487.92328 349.52814Q487.34515 349.52814 487.03265 349.35626Q486.72015 349.16876 486.57953 348.8719Q486.45453 348.575 486.45453 347.6219L486.45453 344.04376L485.6889 344.04376L485.6889 343.23126L486.45453 343.23126L486.45453 341.6844L487.5014 341.0594L487.5014 343.23126L488.5639 343.23126L488.5639 344.04376L487.5014 344.04376L487.5014 347.6844Q487.5014 348.1375 487.54828 348.2625Q487.61078 348.3875 487.73578 348.46564Q487.86078 348.54376 488.09515 348.54376Q488.28265 348.54376 488.5639 348.5125ZM489.2514 349.45L489.2514 343.23126L490.20453 343.23126L490.20453 344.16876Q490.5639 343.5125 490.86078 343.3094Q491.17328 343.09064 491.54828 343.09064Q492.07953 343.09064 492.6264 343.41876L492.26703 344.40314Q491.8764 344.16876 491.5014 344.16876Q491.14203 344.16876 490.86078 344.3875Q490.59515 344.59064 490.48578 344.96564Q490.29828 345.52814 490.29828 346.1844L490.29828 349.45L489.2514 349.45ZM497.51703 347.45L498.61078 347.575Q498.36078 348.52814 497.65765 349.0594Q496.95453 349.59064 495.8764 349.59064Q494.51703 349.59064 493.70453 348.7469Q492.90765 347.90314 492.90765 346.3875Q492.90765 344.825 493.72015 343.96564Q494.53265 343.09064 495.8139 343.09064Q497.0639 343.09064 497.84515 343.9344Q498.64203 344.77814 498.64203 346.325Q498.64203 346.41876 498.64203 346.60626L494.0014 346.60626Q494.0639 347.6375 494.57953 348.1844Q495.09515 348.71564 495.8764 348.71564Q496.45453 348.71564 496.86078 348.41876Q497.28265 348.10626 497.51703 347.45ZM494.0639 345.7469L497.53265 345.7469Q497.47015 344.95 497.14203 344.5594Q496.6264 343.95 495.82953 343.95Q495.09515 343.95 494.59515 344.4344Q494.11078 344.91876 494.0639 345.7469ZM504.51703 347.45L505.61078 347.575Q505.36078 348.52814 504.65765 349.0594Q503.95453 349.59064 502.8764 349.59064Q501.51703 349.59064 500.70453 348.7469Q499.90765 347.90314 499.90765 346.3875Q499.90765 344.825 500.72015 343.96564Q501.53265 343.09064 502.8139 343.09064Q504.0639 343.09064 504.84515 343.9344Q505.64203 344.77814 505.64203 346.325Q505.64203 346.41876 505.64203 346.60626L501.0014 346.60626Q501.0639 347.6375 501.57953 348.1844Q502.09515 348.71564 502.8764 348.71564Q503.45453 348.71564 503.86078 348.41876Q504.28265 348.10626 504.51703 347.45ZM501.0639 345.7469L504.53265 345.7469Q504.47015 344.95 504.14203 344.5594Q503.6264 343.95 502.82953 343.95Q502.09515 343.95 501.59515 344.4344Q501.11078 344.91876 501.0639 345.7469ZM509.28265 351.98126Q508.40765 350.8719 507.79828 349.40314Q507.20453 347.91876 507.20453 346.34064Q507.20453 344.95 507.64203 343.66876Q508.17328 342.1844 509.28265 340.71564L510.03265 340.71564Q509.32953 341.9344 509.09515 342.45Q508.73578 343.2625 508.53265 344.1375Q508.28265 345.23126 508.28265 346.34064Q508.28265 349.16876 510.03265 351.98126L509.28265 351.98126ZM514.34515 349.45L514.34515 347.3875L510.6264 347.3875L510.6264 346.41876L514.5483 340.85626L515.40765 340.85626L515.40765 346.41876L516.5639 346.41876L516.5639 347.3875L515.40765 347.3875L515.40765 349.45L514.34515 349.45ZM514.34515 346.41876L514.34515 342.5594L511.65765 346.41876L514.34515 346.41876ZM519.59515 344.79376Q518.9389 344.54376 518.6108 344.10626Q518.2983 343.65314 518.2983 343.04376Q518.2983 342.10626 518.97015 341.46564Q519.65765 340.825 520.767 340.825Q521.892 340.825 522.5795 341.48126Q523.267 342.1375 523.267 343.075Q523.267 343.66876 522.9545 344.10626Q522.642 344.54376 522.0014 344.79376Q522.7983 345.04376 523.2045 345.6219Q523.6108 346.2 523.6108 346.9969Q523.6108 348.09064 522.8295 348.84064Q522.0639 349.59064 520.78265 349.59064Q519.517 349.59064 518.7358 348.84064Q517.9545 348.09064 517.9545 346.96564Q517.9545 346.1219 518.3764 345.5594Q518.8139 344.9969 519.59515 344.79376ZM519.3764 342.9969Q519.3764 343.60626 519.767 343.9969Q520.1733 344.3875 520.7983 344.3875Q521.40765 344.3875 521.7983 344.0125Q522.1889 343.6219 522.1889 343.0594Q522.1889 342.48126 521.78265 342.09064Q521.3764 341.6844 520.78265 341.6844Q520.1733 341.6844 519.767 342.075Q519.3764 342.46564 519.3764 342.9969ZM519.0483 346.96564Q519.0483 347.41876 519.2514 347.84064Q519.47015 348.2625 519.892 348.4969Q520.3139 348.73126 520.7983 348.73126Q521.5483 348.73126 522.03265 348.2469Q522.53265 347.7625 522.53265 347.0125Q522.53265 346.2469 522.03265 345.7469Q521.53265 345.2469 520.767 345.2469Q520.017 345.2469 519.53265 345.7469Q519.0483 346.23126 519.0483 346.96564ZM525.9545 351.98126L525.2045 351.98126Q526.9545 349.16876 526.9545 346.34064Q526.9545 345.2469 526.7045 344.15314Q526.5014 343.27814 526.142 342.46564Q525.90765 341.95 525.2045 340.71564L525.9545 340.71564Q527.0483 342.1844 527.5795 343.66876Q528.03265 344.95 528.03265 346.34064Q528.03265 347.91876 527.4233 349.40314Q526.8139 350.8719 525.9545 351.98126Z" fill-rule="nonzero"/><path fill="#757575" d="M18.51875 37.55L24.01875 23.2375L26.065624 23.2375L31.925 37.55L29.76875 37.55L28.096874 33.20625L22.1125 33.20625L20.534374 37.55L18.51875 37.55ZM22.659374 31.675L27.503124 31.675L26.01875 27.70625Q25.33125 25.89375 25.003124 24.7375Q24.721874 26.1125 24.221874 27.471874L22.659374 31.675ZM32.83125 37.55L32.83125 23.2375L34.58125 23.2375L34.58125 37.55L32.83125 37.55ZM36.55 38.409374L38.253124 38.659374Q38.3625 39.45625 38.846874 39.815624Q39.503124 40.3 40.64375 40.3Q41.8625 40.3 42.51875 39.815624Q43.190624 39.33125 43.425 38.45625Q43.565624 37.909374 43.55 36.190624Q42.39375 37.55 40.675 37.55Q38.534374 37.55 37.3625 36.003124Q36.190624 34.45625 36.190624 32.3Q36.190624 30.815624 36.721874 29.565624Q37.26875 28.315624 38.284374 27.628124Q39.315624 26.940624 40.690624 26.940624Q42.51875 26.940624 43.721874 28.425L43.721874 27.175L45.33125 27.175L45.33125 36.14375Q45.33125 38.565624 44.83125 39.565624Q44.346874 40.58125 43.26875 41.159374Q42.20625 41.753124 40.64375 41.753124Q38.8 41.753124 37.64375 40.925Q36.503124 40.096874 36.55 38.409374ZM38.003124 32.175Q38.003124 34.221874 38.815624 35.159374Q39.628124 36.096874 40.846874 36.096874Q42.05 36.096874 42.8625 35.159374Q43.690624 34.221874 43.690624 32.2375Q43.690624 30.33125 42.846874 29.3625Q42.003124 28.39375 40.815624 28.39375Q39.64375 28.39375 38.815624 29.346874Q38.003124 30.3 38.003124 32.175ZM47.221874 32.3625Q47.221874 29.4875 48.815624 28.096874Q50.159374 26.940624 52.08125 26.940624Q54.221874 26.940624 55.565624 28.346874Q56.925 29.753124 56.925 32.221874Q56.925 34.221874 56.33125 35.378124Q55.7375 36.51875 54.58125 37.159374Q53.440624 37.784374 52.08125 37.784374Q49.89375 37.784374 48.55 36.39375Q47.221874 34.9875 47.221874 32.3625ZM49.01875 32.3625Q49.01875 34.3625 49.878124 35.346874Q50.753124 36.33125 52.08125 36.33125Q53.39375 36.33125 54.253124 35.346874Q55.128124 34.346874 55.128124 32.3Q55.128124 30.378124 54.253124 29.39375Q53.378124 28.39375 52.08125 28.39375Q50.753124 28.39375 49.878124 29.39375Q49.01875 30.378124 49.01875 32.3625ZM58.846874 37.55L58.846874 27.175L60.425 27.175L60.425 28.753124Q61.034374 27.64375 61.55 27.3Q62.065624 26.940624 62.675 26.940624Q63.565624 26.940624 64.4875 27.503124L63.878124 29.14375Q63.2375 28.753124 62.596874 28.753124Q62.01875 28.753124 61.55 29.1125Q61.096874 29.45625 60.89375 30.065624Q60.6125 31.003124 60.6125 32.1125L60.6125 37.55L58.846874 37.55ZM65.87813 25.253124L65.87813 23.2375L67.64375 23.2375L67.64375 25.253124L65.87813 25.253124ZM65.87813 37.55L65.87813 27.175L67.64375 27.175L67.64375 37.55L65.87813 37.55ZM73.70625 35.971874L73.95625 37.534374Q73.22188 37.690624 72.62813 37.690624Q71.675 37.690624 71.14375 37.39375Q70.62813 37.08125 70.40938 36.596874Q70.19063 36.096874 70.19063 34.51875L70.19063 28.55L68.90938 28.55L68.90938 27.175L70.19063 27.175L70.19063 24.6125L71.94063 23.55L71.94063 27.175L73.70625 27.175L73.70625 28.55L71.94063 28.55L71.94063 34.6125Q71.94063 35.3625 72.03438 35.58125Q72.12813 35.784374 72.33125 35.925Q72.55 36.05 72.94063 36.05Q73.22188 36.05 73.70625 35.971874ZM75.8625 37.55L75.8625 23.2375L77.62813 23.2375L77.62813 28.3625Q78.8625 26.940624 80.7375 26.940624Q81.87813 26.940624 82.72188 27.39375Q83.58125 27.846874 83.94063 28.659374Q84.31563 29.45625 84.31563 30.971874L84.31563 37.55L82.56563 37.55L82.56563 30.971874Q82.56563 29.659374 81.9875 29.065624Q81.40938 28.45625 80.37813 28.45625Q79.59688 28.45625 78.89375 28.8625Q78.20625 29.26875 77.90938 29.971874Q77.62813 30.659374 77.62813 31.878124L77.62813 37.55L75.8625 37.55ZM85.8625 37.55L85.8625 27.175L87.44063 27.175L87.44063 28.628124Q87.925 27.878124 88.7375 27.409374Q89.55 26.940624 90.58125 26.940624Q91.7375 26.940624 92.47188 27.425Q93.20625 27.89375 93.51875 28.753124Q94.75313 26.940624 96.72188 26.940624Q98.26875 26.940624 99.09688 27.8Q99.925 28.659374 99.925 30.425L99.925 37.55L98.175 37.55L98.175 31.01875Q98.175 29.95625 98.00313 29.503124Q97.83125 29.034374 97.37813 28.753124Q96.94063 28.471874 96.33125 28.471874Q95.2375 28.471874 94.50313 29.20625Q93.78438 29.925 93.78438 31.51875L93.78438 37.55L92.03438 37.55L92.03438 30.815624Q92.03438 29.64375 91.59688 29.065624Q91.175 28.471874 90.19063 28.471874Q89.45625 28.471874 88.81563 28.8625Q88.19063 29.253124 87.90938 30.003124Q87.62813 30.753124 87.62813 32.175L87.62813 37.55L85.8625 37.55ZM107.45625 32.95625L109.2375 32.8Q109.3625 33.8625 109.81563 34.55Q110.28438 35.2375 111.25313 35.675Q112.2375 36.096874 113.47188 36.096874Q114.55 36.096874 115.37813 35.784374Q116.20625 35.45625 116.6125 34.89375Q117.01875 34.33125 117.01875 33.659374Q117.01875 32.9875 116.62813 32.4875Q116.2375 31.9875 115.34688 31.64375Q114.76875 31.409374 112.78438 30.940624Q110.81563 30.471874 110.03438 30.05Q109.00313 29.51875 108.50313 28.721874Q108.00313 27.925 108.00313 26.940624Q108.00313 25.846874 108.6125 24.909374Q109.22188 23.971874 110.40938 23.4875Q111.59688 22.9875 113.03438 22.9875Q114.62813 22.9875 115.84688 23.503124Q117.06563 24.01875 117.70625 25.01875Q118.3625 26.003124 118.40938 27.26875L116.59688 27.409374Q116.45625 26.05 115.6125 25.3625Q114.76875 24.659374 113.1125 24.659374Q111.39375 24.659374 110.59688 25.3Q109.81563 25.925 109.81563 26.8Q109.81563 27.58125 110.37813 28.08125Q110.925 28.58125 113.2375 29.096874Q115.55 29.6125 116.40938 30.003124Q117.65938 30.58125 118.25313 31.471874Q118.84688 32.346874 118.84688 33.503124Q118.84688 34.64375 118.19063 35.659374Q117.53438 36.675 116.3 37.2375Q115.08125 37.8 113.55 37.8Q111.6125 37.8 110.3 37.2375Q108.9875 36.659374 108.2375 35.51875Q107.4875 34.378124 107.45625 32.95625ZM120.8625 41.51875L120.8625 27.175L122.47188 27.175L122.47188 28.51875Q123.03438 27.7375 123.7375 27.346874Q124.45625 26.940624 125.47188 26.940624Q126.8 26.940624 127.81563 27.628124Q128.83125 28.315624 129.34688 29.565624Q129.87813 30.8 129.87813 32.284374Q129.87813 33.878124 129.3 35.159374Q128.7375 36.425 127.64375 37.1125Q126.55 37.784374 125.34688 37.784374Q124.47188 37.784374 123.76875 37.409374Q123.08125 37.034374 122.62813 36.471874L122.62813 41.51875L120.8625 41.51875ZM122.45625 32.425Q122.45625 34.425 123.26875 35.378124Q124.08125 36.33125 125.2375 36.33125Q126.40938 36.33125 127.2375 35.346874Q128.08125 34.3625 128.08125 32.26875Q128.08125 30.3 127.25313 29.315624Q126.44063 28.315624 125.31563 28.315624Q124.19063 28.315624 123.31563 29.378124Q122.45625 30.425 122.45625 32.425ZM138.97188 34.20625L140.78438 34.440624Q140.3625 36.01875 139.19063 36.909374Q138.03438 37.784374 136.22188 37.784374Q133.95625 37.784374 132.6125 36.39375Q131.28438 34.9875 131.28438 32.45625Q131.28438 29.83125 132.62813 28.39375Q133.97188 26.940624 136.12813 26.940624Q138.20625 26.940624 139.51875 28.3625Q140.84688 29.76875 140.84688 32.346874Q140.84688 32.503124 140.83125 32.815624L133.09688 32.815624Q133.19063 34.51875 134.06563 35.425Q134.94063 36.33125 136.2375 36.33125Q137.20625 36.33125 137.87813 35.83125Q138.56563 35.315624 138.97188 34.20625ZM133.19063 31.3625L138.9875 31.3625Q138.87813 30.065624 138.33125 29.409374Q137.4875 28.39375 136.14375 28.39375Q134.94063 28.39375 134.1125 29.20625Q133.28438 30.003124 133.19063 31.3625ZM149.97188 34.20625L151.78438 34.440624Q151.3625 36.01875 150.19063 36.909374Q149.03438 37.784374 147.22188 37.784374Q144.95625 37.784374 143.6125 36.39375Q142.28438 34.9875 142.28438 32.45625Q142.28438 29.83125 143.62813 28.39375Q144.97188 26.940624 147.12813 26.940624Q149.20625 26.940624 150.51875 28.3625Q151.84688 29.76875 151.84688 32.346874Q151.84688 32.503124 151.83125 32.815624L144.09688 32.815624Q144.19063 34.51875 145.06563 35.425Q145.94063 36.33125 147.2375 36.33125Q148.20625 36.33125 148.87813 35.83125Q149.56563 35.315624 149.97188 34.20625ZM144.19063 31.3625L149.9875 31.3625Q149.87813 30.065624 149.33125 29.409374Q148.4875 28.39375 147.14375 28.39375Q145.94063 28.39375 145.1125 29.20625Q144.28438 30.003124 144.19063 31.3625ZM160.59688 37.55L160.59688 36.2375Q159.6125 37.784374 157.69063 37.784374Q156.45625 37.784374 155.40938 37.096874Q154.37813 36.409374 153.8 35.190624Q153.2375 33.971874 153.2375 32.378124Q153.2375 30.815624 153.75313 29.55Q154.26875 28.284374 155.3 27.6125Q156.34688 26.940624 157.6125 26.940624Q158.55 26.940624 159.28438 27.346874Q160.01875 27.7375 160.4875 28.3625L160.4875 23.2375L162.22188 23.2375L162.22188 37.55L160.59688 37.55ZM155.03438 32.378124Q155.03438 34.3625 155.87813 35.346874Q156.72188 36.33125 157.8625 36.33125Q159.01875 36.33125 159.81563 35.39375Q160.62813 34.45625 160.62813 32.51875Q160.62813 30.39375 159.8 29.39375Q158.9875 28.39375 157.78438 28.39375Q156.6125 28.39375 155.81563 29.3625Q155.03438 30.315624 155.03438 32.378124ZM171.65938 37.55L171.65938 36.01875Q170.45625 37.784374 168.37813 37.784374Q167.45625 37.784374 166.65938 37.440624Q165.8625 37.08125 165.47188 36.55Q165.09688 36.01875 164.94063 35.2375Q164.83125 34.721874 164.83125 33.596874L164.83125 27.175L166.58125 27.175L166.58125 32.925Q166.58125 34.3 166.69063 34.784374Q166.8625 35.471874 167.39375 35.878124Q167.94063 36.26875 168.72188 36.26875Q169.51875 36.26875 170.20625 35.8625Q170.90938 35.45625 171.19063 34.76875Q171.4875 34.065624 171.4875 32.7375L171.4875 27.175L173.2375 27.175L173.2375 37.55L171.65938 37.55ZM174.8625 41.51875L174.8625 27.175L176.47188 27.175L176.47188 28.51875Q177.03438 27.7375 177.7375 27.346874Q178.45625 26.940624 179.47188 26.940624Q180.8 26.940624 181.81563 27.628124Q182.83125 28.315624 183.34688 29.565624Q183.87813 30.8 183.87813 32.284374Q183.87813 33.878124 183.3 35.159374Q182.7375 36.425 181.64375 37.1125Q180.55 37.784374 179.34688 37.784374Q178.47188 37.784374 177.76875 37.409374Q177.08125 37.034374 176.62813 36.471874L176.62813 41.51875L174.8625 41.51875ZM176.45625 32.425Q176.45625 34.425 177.26875 35.378124Q178.08125 36.33125 179.2375 36.33125Q180.40938 36.33125 181.2375 35.346874Q182.08125 34.3625 182.08125 32.26875Q182.08125 30.3 181.25313 29.315624Q180.44063 28.315624 179.31563 28.315624Q178.19063 28.315624 177.31563 29.378124Q176.45625 30.425 176.45625 32.425Z" fill-rule="nonzero"/></svg>