<svg version="1.1" viewBox="0.0 0.0 600.0 371.0" fill="none" stroke="none" stroke-linecap="square" stroke-miterlimit="10" width="600" height="371" xmlns:xlink="http://www.w3.org/1999/xlink" xmlns="http://www.w3.org/2000/svg"><path fill="#ffffff" d="M0 0L600.0 0L600.0 371.0L0 371.0L0 0Z" fill-rule="nonzero"/><path stroke="#333333" stroke-width="1.0" stroke-linecap="butt" d="M45.5 332.5L581.5 332.5" fill-rule="nonzero"/><path stroke="#cccccc" stroke-width="1.0" stroke-linecap="butt" d="M45.5 242.5L581.5 242.5" fill-rule="nonzero"/><path stroke="#cccccc" stroke-width="1.0" stroke-linecap="butt" d="M45.5 152.5L581.5 152.5" fill-rule="nonzero"/><path stroke="#cccccc" stroke-width="1.0" stroke-linecap="butt" d="M45.5 61.5L581.5 61.5" fill-rule="nonzero"/><path stroke="#e6e6e6" stroke-width="1.0" stroke-linecap="butt" d="M45.5 317.5L581.5 317.5" fill-rule="nonzero"/><path stroke="#e6e6e6" stroke-width="1.0" stroke-linecap="butt" d="M45.5 302.5L581.5 302.5" fill-rule="nonzero"/><path stroke="#e6e6e6" stroke-width="1.0" stroke-linecap="butt" d="M45.5 287.5L581.5 287.5" fill-rule="nonzero"/><path stroke="#e6e6e6" stroke-width="1.0" stroke-linecap="butt" d="M45.5 272.5L581.5 272.5" fill-rule="nonzero"/><path stroke="#e6e6e6" stroke-width="1.0" stroke-linecap="butt" d="M45.5 257.5L581.5 257.5" fill-rule="nonzero"/><path stroke="#e6e6e6" stroke-width="1.0" stroke-linecap="butt" d="M45.5 227.5L581.5 227.5" fill-rule="nonzero"/><path stroke="#e6e6e6" stroke-width="1.0" stroke-linecap="butt" d="M45.5 212.5L581.5 212.5" fill-rule="nonzero"/><path stroke="#e6e6e6" stroke-width="1.0" stroke-linecap="butt" d="M45.5 197.5L581.5 197.5" fill-rule="nonzero"/><path stroke="#e6e6e6" stroke-width="1.0" stroke-linecap="butt" d="M45.5 182.5L581.5 182.5" fill-rule="nonzero"/><path stroke="#e6e6e6" stroke-width="1.0" stroke-linecap="butt" d="M45.5 167.5L581.5 167.5" fill-rule="nonzero"/><path stroke="#e6e6e6" stroke-width="1.0" stroke-linecap="butt" d="M45.5 137.5L581.5 137.5" fill-rule="nonzero"/><path stroke="#e6e6e6" stroke-width="1.0" stroke-linecap="butt" d="M45.5 122.5L581.5 122.5" fill-rule="nonzero"/><path stroke="#e6e6e6" stroke-width="1.0" stroke-linecap="butt" d="M45.5 107.5L581.5 107.5" fill-rule="nonzero"/><path stroke="#e6e6e6" stroke-width="1.0" stroke-linecap="butt" d="M45.5 91.5L581.5 91.5" fill-rule="nonzero"/><path stroke="#e6e6e6" stroke-width="1.0" stroke-linecap="butt" d="M45.5 76.5L581.5 76.5" fill-rule="nonzero"/><clipPath id="id_0"><path d="M45.55 61.916668L581.45 61.916668L581.45 332.45L45.55 332.45L45.55 61.916668Z" clip-rule="nonzero"/></clipPath><path stroke="#000000" stroke-width="2.0" stroke-linecap="butt" stroke-opacity="0.0" clip-path="url(#id_0)" d="M206.0 332.0L102.0 332.0L102.0 316.0C102.0 314.89542 102.89543 314.0 104.0 314.0L204.0 314.0C205.10457 314.0 206.0 314.89542 206.0 316.0Z" fill-rule="nonzero"/><path fill="#4285f4" clip-path="url(#id_0)" d="M206.0 332.0L102.0 332.0L102.0 316.0C102.0 314.89542 102.89543 314.0 104.0 314.0L204.0 314.0C205.10457 314.0 206.0 314.89542 206.0 316.0Z" fill-rule="nonzero"/><path stroke="#000000" stroke-width="2.0" stroke-linecap="butt" stroke-opacity="0.0" clip-path="url(#id_0)" d="M366.0 332.0L262.0 332.0L262.0 90.0C262.0 88.89543 262.89542 88.0 264.0 88.0L364.0 88.0C365.10458 88.0 366.0 88.89543 366.0 90.0Z" fill-rule="nonzero"/><path fill="#4285f4" clip-path="url(#id_0)" d="M366.0 332.0L262.0 332.0L262.0 90.0C262.0 88.89543 262.89542 88.0 264.0 88.0L364.0 88.0C365.10458 88.0 366.0 88.89543 366.0 90.0Z" fill-rule="nonzero"/><path stroke="#000000" stroke-width="2.0" stroke-linecap="butt" stroke-opacity="0.0" clip-path="url(#id_0)" d="M525.0 332.0L421.0 332.0L421.0 84.0C421.0 82.89543 421.89542 82.0 423.0 82.0L523.0 82.0C524.10455 82.0 525.0 82.89543 525.0 84.0Z" fill-rule="nonzero"/><path fill="#4285f4" clip-path="url(#id_0)" d="M525.0 332.0L421.0 332.0L421.0 84.0C421.0 82.89543 421.89542 82.0 423.0 82.0L523.0 82.0C524.10455 82.0 525.0 82.89543 525.0 84.0Z" fill-rule="nonzero"/><path fill="#000000" d="M33.05 332.21564Q33.05 330.6844 33.3625 329.7625Q33.675 328.825 34.284374 328.325Q34.909374 327.825 35.846874 327.825Q36.534374 327.825 37.05 328.10626Q37.58125 328.3875 37.925 328.91876Q38.26875 329.4344 38.45625 330.1844Q38.64375 330.9344 38.64375 332.21564Q38.64375 333.73126 38.33125 334.65314Q38.034374 335.575 37.409374 336.09064Q36.8 336.59064 35.846874 336.59064Q34.6125 336.59064 33.89375 335.7Q33.05 334.6375 33.05 332.21564ZM34.128124 332.21564Q34.128124 334.325 34.628124 335.02814Q35.128124 335.73126 35.846874 335.73126Q36.58125 335.73126 37.065624 335.02814Q37.565624 334.325 37.565624 332.21564Q37.565624 330.09064 37.065624 329.40314Q36.58125 328.7 35.83125 328.7Q35.1125 328.7 34.675 329.3094Q34.128124 330.09064 34.128124 332.21564Z" fill-rule="nonzero"/><path fill="#000000" d="M33.05 244.02222L34.159374 243.92847Q34.284374 244.74097 34.721874 245.14722Q35.175 245.55347 35.815624 245.55347Q36.565624 245.55347 37.096874 244.97534Q37.628124 244.39722 37.628124 243.45972Q37.628124 242.55347 37.1125 242.03784Q36.6125 241.50659 35.784374 241.50659Q35.284374 241.50659 34.8625 241.74097Q34.45625 241.97534 34.221874 242.33472L33.2375 242.20972L34.065624 237.80347L38.346874 237.80347L38.346874 238.80347L34.909374 238.80347L34.45625 241.11597Q35.221874 240.56909 36.065624 240.56909Q37.190624 240.56909 37.95625 241.35034Q38.7375 242.13159 38.7375 243.36597Q38.7375 244.52222 38.065624 245.38159Q37.2375 246.41284 35.815624 246.41284Q34.64375 246.41284 33.89375 245.75659Q33.159374 245.10034 33.05 244.02222Z" fill-rule="nonzero"/><path fill="#000000" d="M30.01875 156.09445L28.971874 156.09445L28.971874 149.3757Q28.58125 149.73508 27.95625 150.11008Q27.346874 150.46945 26.8625 150.64133L26.8625 149.6257Q27.7375 149.20383 28.39375 148.6257Q29.065624 148.03195 29.346874 147.46945L30.01875 147.46945L30.01875 156.09445ZM33.05 151.86008Q33.05 150.32883 33.3625 149.40695Q33.675 148.46945 34.284374 147.96945Q34.909374 147.46945 35.846874 147.46945Q36.534374 147.46945 37.05 147.7507Q37.58125 148.03195 37.925 148.5632Q38.26875 149.07883 38.45625 149.82883Q38.64375 150.57883 38.64375 151.86008Q38.64375 153.3757 38.33125 154.29758Q38.034374 155.21945 37.409374 155.73508Q36.8 156.23508 35.846874 156.23508Q34.6125 156.23508 33.89375 155.34445Q33.05 154.28195 33.05 151.86008ZM34.128124 151.86008Q34.128124 153.96945 34.628124 154.67258Q35.128124 155.3757 35.846874 155.3757Q36.58125 155.3757 37.065624 154.67258Q37.565624 153.96945 37.565624 151.86008Q37.565624 149.73508 37.065624 149.04758Q36.58125 148.34445 35.83125 148.34445Q35.1125 148.34445 34.675 148.95383Q34.128124 149.73508 34.128124 151.86008Z" fill-rule="nonzero"/><path fill="#000000" d="M30.01875 65.916664L28.971874 65.916664L28.971874 59.197914Q28.58125 59.55729 27.95625 59.93229Q27.346874 60.291664 26.8625 60.46354L26.8625 59.447914Q27.7375 59.02604 28.39375 58.447914Q29.065624 57.854164 29.346874 57.291664L30.01875 57.291664L30.01875 65.916664ZM33.05 63.666664L34.159374 63.572914Q34.284374 64.385414 34.721874 64.791664Q35.175 65.197914 35.815624 65.197914Q36.565624 65.197914 37.096874 64.61979Q37.628124 64.041664 37.628124 63.104164Q37.628124 62.197914 37.1125 61.68229Q36.6125 61.15104 35.784374 61.15104Q35.284374 61.15104 34.8625 61.385414Q34.45625 61.61979 34.221874 61.979164L33.2375 61.854164L34.065624 57.447914L38.346874 57.447914L38.346874 58.447914L34.909374 58.447914L34.45625 60.760414Q35.221874 60.21354 36.065624 60.21354Q37.190624 60.21354 37.95625 60.99479Q38.7375 61.77604 38.7375 63.010414Q38.7375 64.166664 38.065624 65.02604Q37.2375 66.05729 35.815624 66.05729Q34.64375 66.05729 33.89375 65.40104Q33.159374 64.74479 33.05 63.666664Z" fill-rule="nonzero"/><path fill="#000000" d="M129.90485 349.45L129.90485 340.85626L133.13922 340.85626Q134.1236 340.85626 134.71735 341.1219Q135.3111 341.3875 135.63922 341.9344Q135.98297 342.46564 135.98297 343.0594Q135.98297 343.60626 135.6861 344.09064Q135.38922 344.575 134.77985 344.8719Q135.5611 345.10626 135.96735 345.66876Q136.38922 346.21564 136.38922 346.96564Q136.38922 347.5594 136.13922 348.09064Q135.88922 348.60626 135.51422 348.8875Q135.13922 349.16876 134.5611 349.3094Q133.9986 349.45 133.1861 349.45L129.90485 349.45ZM131.04547 344.46564L132.90485 344.46564Q133.65485 344.46564 133.98297 344.3719Q134.42047 344.2469 134.63922 343.95Q134.85797 343.6375 134.85797 343.1844Q134.85797 342.7625 134.65485 342.4344Q134.45172 342.10626 134.0611 341.9969Q133.6861 341.8719 132.76422 341.8719L131.04547 341.8719L131.04547 344.46564ZM131.04547 348.4344L133.1861 348.4344Q133.73297 348.4344 133.95172 348.3875Q134.35797 348.325 134.60797 348.16876Q134.8736 347.9969 135.04547 347.6844Q135.21735 347.3719 135.21735 346.96564Q135.21735 346.48126 134.96735 346.1219Q134.73297 345.7625 134.29547 345.6219Q133.85797 345.48126 133.02985 345.48126L131.04547 345.48126L131.04547 348.4344ZM141.88922 348.6844Q141.29547 349.1844 140.7486 349.3875Q140.21735 349.59064 139.59235 349.59064Q138.5611 349.59064 138.01422 349.09064Q137.46735 348.59064 137.46735 347.8094Q137.46735 347.35626 137.67047 346.98126Q137.8736 346.59064 138.21735 346.3719Q138.5611 346.1375 138.98297 346.02814Q139.27985 345.9344 139.92047 345.85626Q141.1861 345.71564 141.79547 345.4969Q141.79547 345.27814 141.79547 345.23126Q141.79547 344.575 141.4986 344.3094Q141.09235 343.96564 140.29547 343.96564Q139.5611 343.96564 139.20172 344.23126Q138.84235 344.48126 138.67047 345.1375L137.63922 344.9969Q137.77985 344.34064 138.10797 343.9344Q138.4361 343.52814 139.04547 343.3094Q139.65485 343.09064 140.45172 343.09064Q141.2486 343.09064 141.7486 343.27814Q142.2486 343.46564 142.48297 343.7469Q142.71735 344.02814 142.8111 344.46564Q142.85797 344.73126 142.85797 345.4344L142.85797 346.84064Q142.85797 348.3094 142.92047 348.7Q142.9986 349.09064 143.20172 349.45L142.09235 349.45Q141.9361 349.1219 141.88922 348.6844ZM141.79547 346.325Q141.21735 346.5594 140.07672 346.73126Q139.42047 346.825 139.15485 346.95Q138.88922 347.0594 138.73297 347.27814Q138.59235 347.4969 138.59235 347.77814Q138.59235 348.2 138.90485 348.48126Q139.23297 348.7625 139.84235 348.7625Q140.45172 348.7625 140.92047 348.4969Q141.40485 348.23126 141.6236 347.7625Q141.79547 347.40314 141.79547 346.71564L141.79547 346.325ZM144.40485 347.59064L145.4361 347.4344Q145.52985 348.0594 145.92047 348.3875Q146.32672 348.71564 147.0611 348.71564Q147.77985 348.71564 148.1236 348.4344Q148.48297 348.1375 148.48297 347.73126Q148.48297 347.3719 148.17047 347.16876Q147.95172 347.02814 147.09235 346.8094Q145.9361 346.5125 145.48297 346.3094Q145.04547 346.09064 144.8111 345.71564Q144.57672 345.34064 144.57672 344.8719Q144.57672 344.46564 144.76422 344.10626Q144.95172 343.7469 145.27985 343.5125Q145.52985 343.34064 145.95172 343.21564Q146.3736 343.09064 146.8736 343.09064Q147.59235 343.09064 148.13922 343.3094Q148.70172 343.5125 148.96735 343.8719Q149.23297 344.23126 149.32672 344.825L148.29547 344.96564Q148.23297 344.4969 147.88922 344.23126Q147.5611 343.95 146.9361 343.95Q146.21735 343.95 145.90485 344.2Q145.59235 344.4344 145.59235 344.7625Q145.59235 344.96564 145.71735 345.1219Q145.85797 345.29376 146.1236 345.40314Q146.27985 345.46564 147.0611 345.66876Q148.1861 345.98126 148.6236 346.16876Q149.0611 346.35626 149.3111 346.71564Q149.5611 347.075 149.5611 347.6219Q149.5611 348.15314 149.2486 348.6219Q148.95172 349.075 148.3736 349.34064Q147.79547 349.59064 147.0611 349.59064Q145.84235 349.59064 145.20172 349.09064Q144.57672 348.575 144.40485 347.59064ZM156.07672 347.45L157.17047 347.575Q156.92047 348.52814 156.21735 349.0594Q155.51422 349.59064 154.4361 349.59064Q153.07672 349.59064 152.26422 348.7469Q151.46735 347.90314 151.46735 346.3875Q151.46735 344.825 152.27985 343.96564Q153.09235 343.09064 154.3736 343.09064Q155.6236 343.09064 156.40485 343.9344Q157.20172 344.77814 157.20172 346.325Q157.20172 346.41876 157.20172 346.60626L152.5611 346.60626Q152.6236 347.6375 153.13922 348.1844Q153.65485 348.71564 154.4361 348.71564Q155.01422 348.71564 155.42047 348.41876Q155.84235 348.10626 156.07672 347.45ZM152.6236 345.7469L156.09235 345.7469Q156.02985 344.95 155.70172 344.5594Q155.1861 343.95 154.38922 343.95Q153.65485 343.95 153.15485 344.4344Q152.67047 344.91876 152.6236 345.7469ZM158.79547 349.45L158.79547 340.85626L159.85797 340.85626L159.85797 349.45L158.79547 349.45ZM161.82672 342.075L161.82672 340.85626L162.88922 340.85626L162.88922 342.075L161.82672 342.075ZM161.82672 349.45L161.82672 343.23126L162.88922 343.23126L162.88922 349.45L161.82672 349.45ZM164.82672 349.45L164.82672 343.23126L165.76422 343.23126L165.76422 344.10626Q166.45172 343.09064 167.7486 343.09064Q168.3111 343.09064 168.77985 343.29376Q169.26422 343.4969 169.4986 343.825Q169.73297 344.15314 169.82672 344.59064Q169.8736 344.8875 169.8736 345.6219L169.8736 349.45L168.82672 349.45L168.82672 345.66876Q168.82672 345.0125 168.70172 344.7Q168.57672 344.3875 168.26422 344.2Q167.95172 343.9969 167.52985 343.9969Q166.85797 343.9969 166.35797 344.4344Q165.8736 344.85626 165.8736 346.04376L165.8736 349.45L164.82672 349.45ZM176.07672 347.45L177.17047 347.575Q176.92047 348.52814 176.21735 349.0594Q175.51422 349.59064 174.4361 349.59064Q173.07672 349.59064 172.26422 348.7469Q171.46735 347.90314 171.46735 346.3875Q171.46735 344.825 172.27985 343.96564Q173.09235 343.09064 174.3736 343.09064Q175.6236 343.09064 176.40485 343.9344Q177.20172 344.77814 177.20172 346.325Q177.20172 346.41876 177.20172 346.60626L172.5611 346.60626Q172.6236 347.6375 173.13922 348.1844Q173.65485 348.71564 174.4361 348.71564Q175.01422 348.71564 175.42047 348.41876Q175.84235 348.10626 176.07672 347.45ZM172.6236 345.7469L176.09235 345.7469Q176.02985 344.95 175.70172 344.5594Q175.1861 343.95 174.38922 343.95Q173.65485 343.95 173.15485 344.4344Q172.67047 344.91876 172.6236 345.7469Z" fill-rule="nonzero"/><path fill="#000000" d="M291.375 349.45L291.375 340.85626L294.60938 340.85626Q295.59375 340.85626 296.1875 341.1219Q296.78125 341.3875 297.10938 341.9344Q297.45312 342.46564 297.45312 343.0594Q297.45312 343.60626 297.15625 344.09064Q296.85938 344.575 296.25 344.8719Q297.03125 345.10626 297.4375 345.66876Q297.85938 346.21564 297.85938 346.96564Q297.85938 347.5594 297.60938 348.09064Q297.35938 348.60626 296.98438 348.8875Q296.60938 349.16876 296.03125 349.3094Q295.46875 349.45 294.65625 349.45L291.375 349.45ZM292.51562 344.46564L294.375 344.46564Q295.125 344.46564 295.45312 344.3719Q295.89062 344.2469 296.10938 343.95Q296.32812 343.6375 296.32812 343.1844Q296.32812 342.7625 296.125 342.4344Q295.92188 342.10626 295.53125 341.9969Q295.15625 341.8719 294.23438 341.8719L292.51562 341.8719L292.51562 344.46564ZM292.51562 348.4344L294.65625 348.4344Q295.20312 348.4344 295.42188 348.3875Q295.82812 348.325 296.07812 348.16876Q296.34375 347.9969 296.51562 347.6844Q296.6875 347.3719 296.6875 346.96564Q296.6875 346.48126 296.4375 346.1219Q296.20312 345.7625 295.76562 345.6219Q295.32812 345.48126 294.5 345.48126L292.51562 345.48126L292.51562 348.4344ZM301.875 349.45L298.54688 340.85626L299.78125 340.85626L302.01562 347.10626Q302.28125 347.85626 302.46875 348.5125Q302.67188 347.8094 302.9375 347.10626L305.25 340.85626L306.40625 340.85626L303.04688 349.45L301.875 349.45ZM306.46875 349.45L306.46875 340.85626L307.59375 340.85626L307.59375 344.3875L312.0625 344.3875L312.0625 340.85626L313.20312 340.85626L313.20312 349.45L312.0625 349.45L312.0625 345.40314L307.59375 345.40314L307.59375 349.45L306.46875 349.45ZM317.3125 351.98126Q316.4375 350.8719 315.82812 349.40314Q315.23438 347.91876 315.23438 346.34064Q315.23438 344.95 315.67188 343.66876Q316.20312 342.1844 317.3125 340.71564L318.0625 340.71564Q317.35938 341.9344 317.125 342.45Q316.76562 343.2625 316.5625 344.1375Q316.3125 345.23126 316.3125 346.34064Q316.3125 349.16876 318.0625 351.98126L317.3125 351.98126ZM319.0 347.1844L320.0625 347.04376Q320.23438 347.9344 320.67188 348.34064Q321.10938 348.73126 321.73438 348.73126Q322.48438 348.73126 323.0 348.21564Q323.51562 347.7 323.51562 346.9344Q323.51562 346.21564 323.03125 345.7469Q322.5625 345.2625 321.82812 345.2625Q321.53125 345.2625 321.07812 345.3875L321.20312 344.45Q321.3125 344.46564 321.375 344.46564Q322.04688 344.46564 322.57812 344.1219Q323.125 343.7625 323.125 343.02814Q323.125 342.45 322.73438 342.075Q322.34375 341.6844 321.71875 341.6844Q321.10938 341.6844 320.6875 342.075Q320.28125 342.46564 320.17188 343.23126L319.10938 343.04376Q319.29688 341.9969 319.98438 341.41876Q320.67188 340.825 321.6875 340.825Q322.39062 340.825 322.98438 341.1375Q323.57812 341.4344 323.89062 341.95Q324.20312 342.46564 324.20312 343.0594Q324.20312 343.60626 323.90625 344.075Q323.60938 344.52814 323.03125 344.79376Q323.78125 344.96564 324.20312 345.52814Q324.625 346.075 324.625 346.91876Q324.625 348.04376 323.79688 348.825Q322.98438 349.60626 321.73438 349.60626Q320.60938 349.60626 319.85938 348.9344Q319.10938 348.2469 319.0 347.1844ZM331.54688 348.4344L331.54688 349.45L325.85938 349.45Q325.85938 349.075 325.98438 348.71564Q326.20312 348.1375 326.67188 347.575Q327.15625 347.0125 328.0625 346.27814Q329.46875 345.1219 329.95312 344.45Q330.45312 343.77814 330.45312 343.1844Q330.45312 342.5594 330.0 342.1375Q329.54688 341.7 328.82812 341.7Q328.0625 341.7 327.60938 342.15314Q327.15625 342.60626 327.14062 343.41876L326.0625 343.3094Q326.17188 342.09064 326.89062 341.46564Q327.625 340.825 328.85938 340.825Q330.09375 340.825 330.8125 341.5125Q331.53125 342.2 331.53125 343.21564Q331.53125 343.73126 331.3125 344.23126Q331.10938 344.71564 330.60938 345.27814Q330.125 345.825 329.0 346.77814Q328.04688 347.575 327.76562 347.8719Q327.5 348.15314 327.32812 348.4344L331.54688 348.4344ZM333.98438 351.98126L333.23438 351.98126Q334.98438 349.16876 334.98438 346.34064Q334.98438 345.2469 334.73438 344.15314Q334.53125 343.27814 334.17188 342.46564Q333.9375 341.95 333.23438 340.71564L333.98438 340.71564Q335.07812 342.1844 335.60938 343.66876Q336.0625 344.95 336.0625 346.34064Q336.0625 347.91876 335.45312 349.40314Q334.84375 350.8719 333.98438 351.98126Z" fill-rule="nonzero"/><path fill="#000000" d="M419.34515 349.45L419.34515 340.85626L422.57953 340.85626Q423.5639 340.85626 424.15765 341.1219Q424.7514 341.3875 425.07953 341.9344Q425.42328 342.46564 425.42328 343.0594Q425.42328 343.60626 425.1264 344.09064Q424.82953 344.575 424.22015 344.8719Q425.0014 345.10626 425.40765 345.66876Q425.82953 346.21564 425.82953 346.96564Q425.82953 347.5594 425.57953 348.09064Q425.32953 348.60626 424.95453 348.8875Q424.57953 349.16876 424.0014 349.3094Q423.4389 349.45 422.6264 349.45L419.34515 349.45ZM420.48578 344.46564L422.34515 344.46564Q423.09515 344.46564 423.42328 344.3719Q423.86078 344.2469 424.07953 343.95Q424.29828 343.6375 424.29828 343.1844Q424.29828 342.7625 424.09515 342.4344Q423.89203 342.10626 423.5014 341.9969Q423.1264 341.8719 422.20453 341.8719L420.48578 341.8719L420.48578 344.46564ZM420.48578 348.4344L422.6264 348.4344Q423.17328 348.4344 423.39203 348.3875Q423.79828 348.325 424.04828 348.16876Q424.3139 347.9969 424.48578 347.6844Q424.65765 347.3719 424.65765 346.96564Q424.65765 346.48126 424.40765 346.1219Q424.17328 345.7625 423.73578 345.6219Q423.29828 345.48126 422.47015 345.48126L420.48578 345.48126L420.48578 348.4344ZM429.84515 349.45L426.51703 340.85626L427.7514 340.85626L429.98578 347.10626Q430.2514 347.85626 430.4389 348.5125Q430.64203 347.8094 430.90765 347.10626L433.22015 340.85626L434.3764 340.85626L431.01703 349.45L429.84515 349.45ZM434.4389 349.45L434.4389 340.85626L435.5639 340.85626L435.5639 344.3875L440.03265 344.3875L440.03265 340.85626L441.17328 340.85626L441.17328 349.45L440.03265 349.45L440.03265 345.40314L435.5639 345.40314L435.5639 349.45L434.4389 349.45ZM445.28265 351.98126Q444.40765 350.8719 443.79828 349.40314Q443.20453 347.91876 443.20453 346.34064Q443.20453 344.95 443.64203 343.66876Q444.17328 342.1844 445.28265 340.71564L446.03265 340.71564Q445.32953 341.9344 445.09515 342.45Q444.73578 343.2625 444.53265 344.1375Q444.28265 345.23126 444.28265 346.34064Q444.28265 349.16876 446.03265 351.98126L445.28265 351.98126ZM446.97015 347.1844L448.03265 347.04376Q448.20453 347.9344 448.64203 348.34064Q449.07953 348.73126 449.70453 348.73126Q450.45453 348.73126 450.97015 348.21564Q451.48578 347.7 451.48578 346.9344Q451.48578 346.21564 451.0014 345.7469Q450.53265 345.2625 449.79828 345.2625Q449.5014 345.2625 449.04828 345.3875L449.17328 344.45Q449.28265 344.46564 449.34515 344.46564Q450.01703 344.46564 450.54828 344.1219Q451.09515 343.7625 451.09515 343.02814Q451.09515 342.45 450.70453 342.075Q450.3139 341.6844 449.6889 341.6844Q449.07953 341.6844 448.65765 342.075Q448.2514 342.46564 448.14203 343.23126L447.07953 343.04376Q447.26703 341.9969 447.95453 341.41876Q448.64203 340.825 449.65765 340.825Q450.36078 340.825 450.95453 341.1375Q451.54828 341.4344 451.86078 341.95Q452.17328 342.46564 452.17328 343.0594Q452.17328 343.60626 451.8764 344.075Q451.57953 344.52814 451.0014 344.79376Q451.7514 344.96564 452.17328 345.52814Q452.59515 346.075 452.59515 346.91876Q452.59515 348.04376 451.76703 348.825Q450.95453 349.60626 449.70453 349.60626Q448.57953 349.60626 447.82953 348.9344Q447.07953 348.2469 446.97015 347.1844ZM459.51703 348.4344L459.51703 349.45L453.82953 349.45Q453.82953 349.075 453.95453 348.71564Q454.17328 348.1375 454.64203 347.575Q455.1264 347.0125 456.03265 346.27814Q457.4389 345.1219 457.92328 344.45Q458.42328 343.77814 458.42328 343.1844Q458.42328 342.5594 457.97015 342.1375Q457.51703 341.7 456.79828 341.7Q456.03265 341.7 455.57953 342.15314Q455.1264 342.60626 455.11078 343.41876L454.03265 343.3094Q454.14203 342.09064 454.86078 341.46564Q455.59515 340.825 456.82953 340.825Q458.0639 340.825 458.78265 341.5125Q459.5014 342.2 459.5014 343.21564Q459.5014 343.73126 459.28265 344.23126Q459.07953 344.71564 458.57953 345.27814Q458.09515 345.825 456.97015 346.77814Q456.01703 347.575 455.73578 347.8719Q455.47015 348.15314 455.29828 348.4344L459.51703 348.4344ZM461.95453 351.98126L461.20453 351.98126Q462.95453 349.16876 462.95453 346.34064Q462.95453 345.2469 462.70453 344.15314Q462.5014 343.27814 462.14203 342.46564Q461.90765 341.95 461.20453 340.71564L461.95453 340.71564Q463.04828 342.1844 463.57953 343.66876Q464.03265 344.95 464.03265 346.34064Q464.03265 347.91876 463.42328 349.40314Q462.8139 350.8719 461.95453 351.98126ZM465.53265 349.45L465.53265 348.2469L466.73578 348.2469L466.73578 349.45Q466.73578 350.10626 466.5014 350.5125Q466.26703 350.9344 465.76703 351.15314L465.47015 350.7Q465.79828 350.5594 465.95453 350.2625Q466.11078 349.98126 466.14203 349.45L465.53265 349.45ZM471.04828 345.2625Q471.04828 343.1219 472.1889 341.91876Q473.34515 340.7 475.15765 340.7Q476.36078 340.7 477.3139 341.27814Q478.26703 341.84064 478.76703 342.85626Q479.26703 343.8719 479.26703 345.16876Q479.26703 346.46564 478.73578 347.4969Q478.20453 348.52814 477.23578 349.0594Q476.28265 349.59064 475.15765 349.59064Q473.9389 349.59064 472.98578 349.0125Q472.03265 348.41876 471.53265 347.41876Q471.04828 346.40314 471.04828 345.2625ZM472.22015 345.27814Q472.22015 346.84064 473.04828 347.73126Q473.89203 348.6219 475.15765 348.6219Q476.4389 348.6219 477.26703 347.73126Q478.09515 346.825 478.09515 345.15314Q478.09515 344.10626 477.73578 343.325Q477.39203 342.54376 476.70453 342.1219Q476.01703 341.6844 475.17328 341.6844Q473.97015 341.6844 473.09515 342.5125Q472.22015 343.34064 472.22015 345.27814ZM484.32953 347.16876L485.36078 347.3094Q485.1889 348.3719 484.48578 348.98126Q483.78265 349.59064 482.76703 349.59064Q481.48578 349.59064 480.70453 348.7625Q479.9389 347.91876 479.9389 346.35626Q479.9389 345.35626 480.26703 344.60626Q480.61078 343.84064 481.28265 343.46564Q481.97015 343.09064 482.78265 343.09064Q483.78265 343.09064 484.42328 343.60626Q485.07953 344.10626 485.26703 345.0594L484.23578 345.21564Q484.09515 344.59064 483.72015 344.27814Q483.34515 343.95 482.8139 343.95Q482.01703 343.95 481.51703 344.52814Q481.01703 345.09064 481.01703 346.325Q481.01703 347.59064 481.5014 348.15314Q481.98578 348.71564 482.7514 348.71564Q483.3764 348.71564 483.78265 348.34064Q484.20453 347.96564 484.32953 347.16876ZM488.5639 348.5125L488.72015 349.4344Q488.26703 349.52814 487.92328 349.52814Q487.34515 349.52814 487.03265 349.35626Q486.72015 349.16876 486.57953 348.8719Q486.45453 348.575 486.45453 347.6219L486.45453 344.04376L485.6889 344.04376L485.6889 343.23126L486.45453 343.23126L486.45453 341.6844L487.5014 341.0594L487.5014 343.23126L488.5639 343.23126L488.5639 344.04376L487.5014 344.04376L487.5014 347.6844Q487.5014 348.1375 487.54828 348.2625Q487.61078 348.3875 487.73578 348.46564Q487.86078 348.54376 488.09515 348.54376Q488.28265 348.54376 488.5639 348.5125ZM489.2514 349.45L489.2514 343.23126L490.20453 343.23126L490.20453 344.16876Q490.5639 343.5125 490.86078 343.3094Q491.17328 343.09064 491.54828 343.09064Q492.07953 343.09064 492.6264 343.41876L492.26703 344.40314Q491.8764 344.16876 491.5014 344.16876Q491.14203 344.16876 490.86078 344.3875Q490.59515 344.59064 490.48578 344.96564Q490.29828 345.52814 490.29828 346.1844L490.29828 349.45L489.2514 349.45ZM497.51703 347.45L498.61078 347.575Q498.36078 348.52814 497.65765 349.0594Q496.95453 349.59064 495.8764 349.59064Q494.51703 349.59064 493.70453 348.7469Q492.90765 347.90314 492.90765 346.3875Q492.90765 344.825 493.72015 343.96564Q494.53265 343.09064 495.8139 343.09064Q497.0639 343.09064 497.84515 343.9344Q498.64203 344.77814 498.64203 346.325Q498.64203 346.41876 498.64203 346.60626L494.0014 346.60626Q494.0639 347.6375 494.57953 348.1844Q495.09515 348.71564 495.8764 348.71564Q496.45453 348.71564 496.86078 348.41876Q497.28265 348.10626 497.51703 347.45ZM494.0639 345.7469L497.53265 345.7469Q497.47015 344.95 497.14203 344.5594Q496.6264 343.95 495.82953 343.95Q495.09515 343.95 494.59515 344.4344Q494.11078 344.91876 494.0639 345.7469ZM504.51703 347.45L505.61078 347.575Q505.36078 348.52814 504.65765 349.0594Q503.95453 349.59064 502.8764 349.59064Q501.51703 349.59064 500.70453 348.7469Q499.90765 347.90314 499.90765 346.3875Q499.90765 344.825 500.72015 343.96564Q501.53265 343.09064 502.8139 343.09064Q504.0639 343.09064 504.84515 343.9344Q505.64203 344.77814 505.64203 346.325Q505.64203 346.41876 505.64203 346.60626L501.0014 346.60626Q501.0639 347.6375 501.57953 348.1844Q502.09515 348.71564 502.8764 348.71564Q503.45453 348.71564 503.86078 348.41876Q504.28265 348.10626 504.51703 347.45ZM501.0639 345.7469L504.53265 345.7469Q504.47015 344.95 504.14203 344.5594Q503.6264 343.95 502.82953 343.95Q502.09515 343.95 501.59515 344.4344Q501.11078 344.91876 501.0639 345.7469ZM509.28265 351.98126Q508.40765 350.8719 507.79828 349.40314Q507.20453 347.91876 507.20453 346.34064Q507.20453 344.95 507.64203 343.66876Q508.17328 342.1844 509.28265 340.71564L510.03265 340.71564Q509.32953 341.9344 509.09515 342.45Q508.73578 343.2625 508.53265 344.1375Q508.28265 345.23126 508.28265 346.34064Q508.28265 349.16876 510.03265 351.98126L509.28265 351.98126ZM510.97015 347.1844L512.03265 347.04376Q512.2045 347.9344 512.642 348.34064Q513.0795 348.73126 513.7045 348.73126Q514.4545 348.73126 514.97015 348.21564Q515.4858 347.7 515.4858 346.9344Q515.4858 346.21564 515.0014 345.7469Q514.53265 345.2625 513.7983 345.2625Q513.5014 345.2625 513.0483 345.3875L513.1733 344.45Q513.28265 344.46564 513.34515 344.46564Q514.017 344.46564 514.5483 344.1219Q515.09515 343.7625 515.09515 343.02814Q515.09515 342.45 514.7045 342.075Q514.3139 341.6844 513.6889 341.6844Q513.0795 341.6844 512.65765 342.075Q512.2514 342.46564 512.142 343.23126L511.07953 343.04376Q511.26703 341.9969 511.95453 341.41876Q512.642 340.825 513.65765 340.825Q514.3608 340.825 514.9545 341.1375Q515.5483 341.4344 515.8608 341.95Q516.1733 342.46564 516.1733 343.0594Q516.1733 343.60626 515.8764 344.075Q515.5795 344.52814 515.0014 344.79376Q515.7514 344.96564 516.1733 345.52814Q516.59515 346.075 516.59515 346.91876Q516.59515 348.04376 515.767 348.825Q514.9545 349.60626 513.7045 349.60626Q512.5795 349.60626 511.82953 348.9344Q511.07953 348.2469 510.97015 347.1844ZM523.517 348.4344L523.517 349.45L517.8295 349.45Q517.8295 349.075 517.9545 348.71564Q518.1733 348.1375 518.642 347.575Q519.1264 347.0125 520.03265 346.27814Q521.4389 345.1219 521.9233 344.45Q522.4233 343.77814 522.4233 343.1844Q522.4233 342.5594 521.97015 342.1375Q521.517 341.7 520.7983 341.7Q520.03265 341.7 519.5795 342.15314Q519.1264 342.60626 519.1108 343.41876L518.03265 343.3094Q518.142 342.09064 518.8608 341.46564Q519.59515 340.825 520.8295 340.825Q522.0639 340.825 522.78265 341.5125Q523.5014 342.2 523.5014 343.21564Q523.5014 343.73126 523.28265 344.23126Q523.0795 344.71564 522.5795 345.27814Q522.09515 345.825 520.97015 346.77814Q520.017 347.575 519.7358 347.8719Q519.47015 348.15314 519.2983 348.4344L523.517 348.4344ZM525.9545 351.98126L525.2045 351.98126Q526.9545 349.16876 526.9545 346.34064Q526.9545 345.2469 526.7045 344.15314Q526.5014 343.27814 526.142 342.46564Q525.90765 341.95 525.2045 340.71564L525.9545 340.71564Q527.0483 342.1844 527.5795 343.66876Q528.03265 344.95 528.03265 346.34064Q528.03265 347.91876 527.4233 349.40314Q526.8139 350.8719 525.9545 351.98126Z" fill-rule="nonzero"/><path fill="#757575" d="M18.51875 37.55L24.01875 23.2375L26.065624 23.2375L31.925 37.55L29.76875 37.55L28.096874 33.20625L22.1125 33.20625L20.534374 37.55L18.51875 37.55ZM22.659374 31.675L27.503124 31.675L26.01875 27.70625Q25.33125 25.89375 25.003124 24.7375Q24.721874 26.1125 24.221874 27.471874L22.659374 31.675ZM32.83125 37.55L32.83125 23.2375L34.58125 23.2375L34.58125 37.55L32.83125 37.55ZM36.55 38.409374L38.253124 38.659374Q38.3625 39.45625 38.846874 39.815624Q39.503124 40.3 40.64375 40.3Q41.8625 40.3 42.51875 39.815624Q43.190624 39.33125 43.425 38.45625Q43.565624 37.909374 43.55 36.190624Q42.39375 37.55 40.675 37.55Q38.534374 37.55 37.3625 36.003124Q36.190624 34.45625 36.190624 32.3Q36.190624 30.815624 36.721874 29.565624Q37.26875 28.315624 38.284374 27.628124Q39.315624 26.940624 40.690624 26.940624Q42.51875 26.940624 43.721874 28.425L43.721874 27.175L45.33125 27.175L45.33125 36.14375Q45.33125 38.565624 44.83125 39.565624Q44.346874 40.58125 43.26875 41.159374Q42.20625 41.753124 40.64375 41.753124Q38.8 41.753124 37.64375 40.925Q36.503124 40.096874 36.55 38.409374ZM38.003124 32.175Q38.003124 34.221874 38.815624 35.159374Q39.628124 36.096874 40.846874 36.096874Q42.05 36.096874 42.8625 35.159374Q43.690624 34.221874 43.690624 32.2375Q43.690624 30.33125 42.846874 29.3625Q42.003124 28.39375 40.815624 28.39375Q39.64375 28.39375 38.815624 29.346874Q38.003124 30.3 38.003124 32.175ZM47.221874 32.3625Q47.221874 29.4875 48.815624 28.096874Q50.159374 26.940624 52.08125 26.940624Q54.221874 26.940624 55.565624 28.346874Q56.925 29.753124 56.925 32.221874Q56.925 34.221874 56.33125 35.378124Q55.7375 36.51875 54.58125 37.159374Q53.440624 37.784374 52.08125 37.784374Q49.89375 37.784374 48.55 36.39375Q47.221874 34.9875 47.221874 32.3625ZM49.01875 32.3625Q49.01875 34.3625 49.878124 35.346874Q50.753124 36.33125 52.08125 36.33125Q53.39375 36.33125 54.253124 35.346874Q55.128124 34.346874 55.128124 32.3Q55.128124 30.378124 54.253124 29.39375Q53.378124 28.39375 52.08125 28.39375Q50.753124 28.39375 49.878124 29.39375Q49.01875 30.378124 49.01875 32.3625ZM58.846874 37.55L58.846874 27.175L60.425 27.175L60.425 28.753124Q61.034374 27.64375 61.55 27.3Q62.065624 26.940624 62.675 26.940624Q63.565624 26.940624 64.4875 27.503124L63.878124 29.14375Q63.2375 28.753124 62.596874 28.753124Q62.01875 28.753124 61.55 29.1125Q61.096874 29.45625 60.89375 30.065624Q60.6125 31.003124 60.6125 32.1125L60.6125 37.55L58.846874 37.55ZM65.87813 25.253124L65.87813 23.2375L67.64375 23.2375L67.64375 25.253124L65.87813 25.253124ZM65.87813 37.55L65.87813 27.175L67.64375 27.175L67.64375 37.55L65.87813 37.55ZM73.70625 35.971874L73.95625 37.534374Q73.22188 37.690624 72.62813 37.690624Q71.675 37.690624 71.14375 37.39375Q70.62813 37.08125 70.40938 36.596874Q70.19063 36.096874 70.19063 34.51875L70.19063 28.55L68.90938 28.55L68.90938 27.175L70.19063 27.175L70.19063 24.6125L71.94063 23.55L71.94063 27.175L73.70625 27.175L73.70625 28.55L71.94063 28.55L71.94063 34.6125Q71.94063 35.3625 72.03438 35.58125Q72.12813 35.784374 72.33125 35.925Q72.55 36.05 72.94063 36.05Q73.22188 36.05 73.70625 35.971874ZM75.8625 37.55L75.8625 23.2375L77.62813 23.2375L77.62813 28.3625Q78.8625 26.940624 80.7375 26.940624Q81.87813 26.940624 82.72188 27.39375Q83.58125 27.846874 83.94063 28.659374Q84.31563 29.45625 84.31563 30.971874L84.31563 37.55L82.56563 37.55L82.56563 30.971874Q82.56563 29.659374 81.9875 29.065624Q81.40938 28.45625 80.37813 28.45625Q79.59688 28.45625 78.89375 28.8625Q78.20625 29.26875 77.90938 29.971874Q77.62813 30.659374 77.62813 31.878124L77.62813 37.55L75.8625 37.55ZM85.8625 37.55L85.8625 27.175L87.44063 27.175L87.44063 28.628124Q87.925 27.878124 88.7375 27.409374Q89.55 26.940624 90.58125 26.940624Q91.7375 26.940624 92.47188 27.425Q93.20625 27.89375 93.51875 28.753124Q94.75313 26.940624 96.72188 26.940624Q98.26875 26.940624 99.09688 27.8Q99.925 28.659374 99.925 30.425L99.925 37.55L98.175 37.55L98.175 31.01875Q98.175 29.95625 98.00313 29.503124Q97.83125 29.034374 97.37813 28.753124Q96.94063 28.471874 96.33125 28.471874Q95.2375 28.471874 94.50313 29.20625Q93.78438 29.925 93.78438 31.51875L93.78438 37.55L92.03438 37.55L92.03438 30.815624Q92.03438 29.64375 91.59688 29.065624Q91.175 28.471874 90.19063 28.471874Q89.45625 28.471874 88.81563 28.8625Q88.19063 29.253124 87.90938 30.003124Q87.62813 30.753124 87.62813 32.175L87.62813 37.55L85.8625 37.55ZM107.45625 32.95625L109.2375 32.8Q109.3625 33.8625 109.81563 34.55Q110.28438 35.2375 111.25313 35.675Q112.2375 36.096874 113.47188 36.096874Q114.55 36.096874 115.37813 35.784374Q116.20625 35.45625 116.6125 34.89375Q117.01875 34.33125 117.01875 33.659374Q117.01875 32.9875 116.62813 32.4875Q116.2375 31.9875 115.34688 31.64375Q114.76875 31.409374 112.78438 30.940624Q110.81563 30.471874 110.03438 30.05Q109.00313 29.51875 108.50313 28.721874Q108.00313 27.925 108.00313 26.940624Q108.00313 25.846874 108.6125 24.909374Q109.22188 23.971874 110.40938 23.4875Q111.59688 22.9875 113.03438 22.9875Q114.62813 22.9875 115.84688 23.503124Q117.06563 24.01875 117.70625 25.01875Q118.3625 26.003124 118.40938 27.26875L116.59688 27.409374Q116.45625 26.05 115.6125 25.3625Q114.76875 24.659374 113.1125 24.659374Q111.39375 24.659374 110.59688 25.3Q109.81563 25.925 109.81563 26.8Q109.81563 27.58125 110.37813 28.08125Q110.925 28.58125 113.2375 29.096874Q115.55 29.6125 116.40938 30.003124Q117.65938 30.58125 118.25313 31.471874Q118.84688 32.346874 118.84688 33.503124Q118.84688 34.64375 118.19063 35.659374Q117.53438 36.675 116.3 37.2375Q115.08125 37.8 113.55 37.8Q111.6125 37.8 110.3 37.2375Q108.9875 36.659374 108.2375 35.51875Q107.4875 34.378124 107.45625 32.95625ZM120.8625 41.51875L120.8625 27.175L122.47188 27.175L122.47188 28.51875Q123.03438 27.7375 123.7375 27.346874Q124.45625 26.940624 125.47188 26.940624Q126.8 26.940624 127.81563 27.628124Q128.83125 28.315624 129.34688 29.565624Q129.87813 30.8 129.87813 32.284374Q129.87813 33.878124 129.3 35.159374Q128.7375 36.425 127.64375 37.1125Q126.55 37.784374 125.34688 37.784374Q124.47188 37.784374 123.76875 37.409374Q123.08125 37.034374 122.62813 36.471874L122.62813 41.51875L120.8625 41.51875ZM122.45625 32.425Q122.45625 34.425 123.26875 35.378124Q124.08125 36.33125 125.2375 36.33125Q126.40938 36.33125 127.2375 35.346874Q128.08125 34.3625 128.08125 32.26875Q128.08125 30.3 127.25313 29.315624Q126.44063 28.315624 125.31563 28.315624Q124.19063 28.315624 123.31563 29.378124Q122.45625 30.425 122.45625 32.425ZM138.97188 34.20625L140.78438 34.440624Q140.3625 36.01875 139.19063 36.909374Q138.03438 37.784374 136.22188 37.784374Q133.95625 37.784374 132.6125 36.39375Q131.28438 34.9875 131.28438 32.45625Q131.28438 29.83125 132.62813 28.39375Q133.97188 26.940624 136.12813 26.940624Q138.20625 26.940624 139.51875 28.3625Q140.84688 29.76875 140.84688 32.346874Q140.84688 32.503124 140.83125 32.815624L133.09688 32.815624Q133.19063 34.51875 134.06563 35.425Q134.94063 36.33125 136.2375 36.33125Q137.20625 36.33125 137.87813 35.83125Q138.56563 35.315624 138.97188 34.20625ZM133.19063 31.3625L138.9875 31.3625Q138.87813 30.065624 138.33125 29.409374Q137.4875 28.39375 136.14375 28.39375Q134.94063 28.39375 134.1125 29.20625Q133.28438 30.003124 133.19063 31.3625ZM149.97188 34.20625L151.78438 34.440624Q151.3625 36.01875 150.19063 36.909374Q149.03438 37.784374 147.22188 37.784374Q144.95625 37.784374 143.6125 36.39375Q142.28438 34.9875 142.28438 32.45625Q142.28438 29.83125 143.62813 28.39375Q144.97188 26.940624 147.12813 26.940624Q149.20625 26.940624 150.51875 28.3625Q151.84688 29.76875 151.84688 32.346874Q151.84688 32.503124 151.83125 32.815624L144.09688 32.815624Q144.19063 34.51875 145.06563 35.425Q145.94063 36.33125 147.2375 36.33125Q148.20625 36.33125 148.87813 35.83125Q149.56563 35.315624 149.97188 34.20625ZM144.19063 31.3625L149.9875 31.3625Q149.87813 30.065624 149.33125 29.409374Q148.4875 28.39375 147.14375 28.39375Q145.94063 28.39375 145.1125 29.20625Q144.28438 30.003124 144.19063 31.3625ZM160.59688 37.55L160.59688 36.2375Q159.6125 37.784374 157.69063 37.784374Q156.45625 37.784374 155.40938 37.096874Q154.37813 36.409374 153.8 35.190624Q153.2375 33.971874 153.2375 32.378124Q153.2375 30.815624 153.75313 29.55Q154.26875 28.284374 155.3 27.6125Q156.34688 26.940624 157.6125 26.940624Q158.55 26.940624 159.28438 27.346874Q160.01875 27.7375 160.4875 28.3625L160.4875 23.2375L162.22188 23.2375L162.22188 37.55L160.59688 37.55ZM155.03438 32.378124Q155.03438 34.3625 155.87813 35.346874Q156.72188 36.33125 157.8625 36.33125Q159.01875 36.33125 159.81563 35.39375Q160.62813 34.45625 160.62813 32.51875Q160.62813 30.39375 159.8 29.39375Q158.9875 28.39375 157.78438 28.39375Q156.6125 28.39375 155.81563 29.3625Q155.03438 30.315624 155.03438 32.378124ZM171.65938 37.55L171.65938 36.01875Q170.45625 37.784374 168.37813 37.784374Q167.45625 37.784374 166.65938 37.440624Q165.8625 37.08125 165.47188 36.55Q165.09688 36.01875 164.94063 35.2375Q164.83125 34.721874 164.83125 33.596874L164.83125 27.175L166.58125 27.175L166.58125 32.925Q166.58125 34.3 166.69063 34.784374Q166.8625 35.471874 167.39375 35.878124Q167.94063 36.26875 168.72188 36.26875Q169.51875 36.26875 170.20625 35.8625Q170.90938 35.45625 171.19063 34.76875Q171.4875 34.065624 171.4875 32.7375L171.4875 27.175L173.2375 27.175L173.2375 37.55L171.65938 37.55ZM174.8625 41.51875L174.8625 27.175L176.47188 27.175L176.47188 28.51875Q177.03438 27.7375 177.7375 27.346874Q178.45625 26.940624 179.47188 26.940624Q180.8 26.940624 181.81563 27.628124Q182.83125 28.315624 183.34688 29.565624Q183.87813 30.8 183.87813 32.284374Q183.87813 33.878124 183.3 35.159374Q182.7375 36.425 181.64375 37.1125Q180.55 37.784374 179.34688 37.784374Q178.47188 37.784374 177.76875 37.409374Q177.08125 37.034374 176.62813 36.471874L176.62813 41.51875L174.8625 41.51875ZM176.45625 32.425Q176.45625 34.425 177.26875 35.378124Q178.08125 36.33125 179.2375 36.33125Q180.40938 36.33125 181.2375 35.346874Q182.08125 34.3625 182.08125 32.26875Q182.08125 30.3 181.25313 29.315624Q180.44063 28.315624 179.31563 28.315624Q178.19063 28.315624 177.31563 29.378124Q176.45625 30.425 176.45625 32.425Z" fill-rule="nonzero"/></svg>