<?xml version="1.0" encoding="UTF-8" standalone="no"?><!DOCTYPE svg PUBLIC "-//W3C//DTD SVG 1.1//EN" "http://www.w3.org/Graphics/SVG/1.1/DTD/svg11.dtd"><!-- Generated by graphviz version 2.40.1 (20161225.0304)
 --><!-- Title: %0 Pages: 1 --><svg xmlns="http://www.w3.org/2000/svg" xmlns:xlink="http://www.w3.org/1999/xlink" width="210pt" height="188pt" viewBox="0.00 0.00 209.61 188.00">
<g id="graph0" class="graph" transform="scale(1 1) rotate(0) translate(4 184)">
<title>%0</title>
<polygon fill="#ffffff" stroke="transparent" points="-4,4 -4,-184 205.6063,-184 205.6063,4 -4,4"/>
<!-- phi -->
<g id="node1" class="node">
<title>phi</title>
<ellipse fill="none" stroke="#000000" cx="121" cy="-90" rx="48.8743" ry="18"/>
<text text-anchor="middle" x="121" y="-85.8" font-family="Times,serif" font-size="14.00" fill="#000000">%.0 = phi</text>
</g>
<!-- call -->
<g id="node2" class="node">
<title>call</title>
<ellipse fill="none" stroke="#000000" cx="171" cy="-18" rx="30.713" ry="18"/>
<text text-anchor="middle" x="171" y="-13.8" font-family="Times,serif" font-size="14.00" fill="#000000">call f</text>
</g>
<!-- phi&#45;&gt;call -->
<g id="edge4" class="edge">
<title>phi-&gt;call</title>
<path fill="none" stroke="#000000" d="M133.3596,-72.2022C139.3819,-63.5301 146.7323,-52.9455 153.3341,-43.4389"/>
<polygon fill="#000000" stroke="#000000" points="156.2977,-45.3073 159.1269,-35.0972 150.5481,-41.3145 156.2977,-45.3073"/>
</g>
<!-- add -->
<g id="node3" class="node">
<title>add</title>
<ellipse fill="none" stroke="#000000" cx="74" cy="-18" rx="48.2522" ry="18"/>
<text text-anchor="middle" x="74" y="-13.8" font-family="Times,serif" font-size="14.00" fill="#000000">%8 = add</text>
</g>
<!-- phi&#45;&gt;add -->
<g id="edge3" class="edge">
<title>phi-&gt;add</title>
<path fill="none" stroke="#000000" d="M104.0217,-72.937C97.6125,-64.4914 90.5962,-54.1019 84.8468,-44.6396"/>
<polygon fill="#000000" stroke="#000000" points="87.8406,-42.8256 79.7838,-35.9453 81.7915,-46.3481 87.8406,-42.8256"/>
</g>
<!-- add&#45;&gt;phi -->
<g id="edge2" class="edge">
<title>add-&gt;phi</title>
<path fill="none" stroke="#000000" d="M90.8744,-34.9263C97.2612,-43.33 104.2622,-53.6833 110.0172,-63.1367"/>
<polygon fill="#000000" stroke="#000000" points="107.0284,-64.9594 115.0923,-71.8314 113.0739,-61.4306 107.0284,-64.9594"/>
</g>
<!-- zero -->
<g id="node4" class="node">
<title>zero</title>
<ellipse fill="none" stroke="#000000" cx="121" cy="-162" rx="27" ry="18"/>
<text text-anchor="middle" x="121" y="-157.8" font-family="Times,serif" font-size="14.00" fill="#000000">0</text>
</g>
<!-- zero&#45;&gt;phi -->
<g id="edge1" class="edge">
<title>zero-&gt;phi</title>
<path fill="none" stroke="#000000" d="M121,-143.8314C121,-136.131 121,-126.9743 121,-118.4166"/>
<polygon fill="#000000" stroke="#000000" points="124.5001,-118.4132 121,-108.4133 117.5001,-118.4133 124.5001,-118.4132"/>
</g>
<!-- one -->
<g id="node5" class="node">
<title>one</title>
<ellipse fill="none" stroke="#000000" cx="27" cy="-90" rx="27" ry="18"/>
<text text-anchor="middle" x="27" y="-85.8" font-family="Times,serif" font-size="14.00" fill="#000000">1</text>
</g>
<!-- one&#45;&gt;add -->
<g id="edge5" class="edge">
<title>one-&gt;add</title>
<path fill="none" stroke="#000000" d="M37.9009,-73.3008C43.5481,-64.6496 50.5736,-53.8873 56.9218,-44.1623"/>
<polygon fill="#000000" stroke="#000000" points="59.9671,-45.9002 62.5025,-35.6132 54.1054,-42.0738 59.9671,-45.9002"/>
</g>
</g>
</svg>