<?xml version="1.0" encoding="UTF-8" standalone="no"?><!DOCTYPE svg PUBLIC "-//W3C//DTD SVG 1.1//EN" "http://www.w3.org/Graphics/SVG/1.1/DTD/svg11.dtd"><!-- Generated by graphviz version 2.40.1 (20161225.0304)
 --><!-- Title: %0 Pages: 1 --><svg xmlns="http://www.w3.org/2000/svg" xmlns:xlink="http://www.w3.org/1999/xlink" width="111pt" height="133pt" viewBox="0.00 0.00 111.03 132.80">
<g id="graph0" class="graph" transform="scale(1 1) rotate(0) translate(4 128.8)">
<title>%0</title>
<polygon fill="#ffffff" stroke="transparent" points="-4,4 -4,-128.8 107.0309,-128.8 107.0309,4 -4,4"/>
<!-- a -->
<g id="node1" class="node">
<title>a</title>
<ellipse fill="none" stroke="#000000" cx="36.1585" cy="-106.8" rx="27" ry="18"/>
<text text-anchor="middle" x="36.1585" y="-102.6" font-family="Times,serif" font-size="14.00" fill="#000000">a</text>
</g>
<!-- b -->
<g id="node2" class="node">
<title>b</title>
<ellipse fill="none" stroke="#000000" cx="36.1585" cy="-18" rx="27" ry="18"/>
<text text-anchor="middle" x="36.1585" y="-13.8" font-family="Times,serif" font-size="14.00" fill="#000000">b</text>
</g>
<!-- a&#45;&gt;b -->
<g id="edge1" class="edge">
<title>a:sw-&gt;b:nw</title>
<path fill="none" stroke="#000000" d="M21.1585,-91.8C12.2176,-82.8591 6.5402,-82.5876 1.9649,-70.8 -3.5745,-56.5285 3.7631,-49.2896 13.8556,-39.9305"/>
<polygon fill="#000000" stroke="#000000" points="16.3142,-42.4225 21.1585,-33 11.4956,-37.345 16.3142,-42.4225"/>
<text text-anchor="middle" x="26.2553" y="-58.2" font-family="Times,serif" font-size="14.00" fill="#000000">[-inf, -1]</text>
</g>
<!-- b&#45;&gt;a -->
<g id="edge2" class="edge">
<title>b:ne-&gt;a:se</title>
<path fill="none" stroke="#000000" d="M51.1585,-33C67.0389,-48.8804 69.2721,-67.2444 57.858,-83.8233"/>
<polygon fill="#000000" stroke="#000000" points="54.9099,-81.8915 51.1585,-91.8 60.2701,-86.3936 54.9099,-81.8915"/>
<text text-anchor="middle" x="83.5947" y="-58.2" font-family="Times,serif" font-size="14.00" fill="#000000">[1, inf]</text>
</g>
</g>
</svg>