<?xml version="1.0" encoding="UTF-8" standalone="no"?><!DOCTYPE svg PUBLIC "-//W3C//DTD SVG 1.1//EN" "http://www.w3.org/Graphics/SVG/1.1/DTD/svg11.dtd"><!-- Generated by graphviz version 2.40.1 (20161225.0304)
 --><!-- Title: %0 Pages: 1 --><svg xmlns="http://www.w3.org/2000/svg" xmlns:xlink="http://www.w3.org/1999/xlink" width="197pt" height="222pt" viewBox="0.00 0.00 196.76 221.60">
<g id="graph0" class="graph" transform="scale(1 1) rotate(0) translate(4 217.6)">
<title>%0</title>
<polygon fill="#ffffff" stroke="transparent" points="-4,4 -4,-217.6 192.7619,-217.6 192.7619,4 -4,4"/>
<!-- a -->
<g id="node1" class="node">
<title>a</title>
<ellipse fill="none" stroke="#000000" cx="82.4407" cy="-195.6" rx="27" ry="18"/>
<text text-anchor="middle" x="82.4407" y="-191.4" font-family="Times,serif" font-size="14.00" fill="#000000">a</text>
</g>
<!-- b -->
<g id="node2" class="node">
<title>b</title>
<ellipse fill="none" stroke="#000000" cx="82.4407" cy="-106.8" rx="27" ry="18"/>
<text text-anchor="middle" x="82.4407" y="-102.6" font-family="Times,serif" font-size="14.00" fill="#000000">b</text>
</g>
<!-- a&#45;&gt;b -->
<g id="edge1" class="edge">
<title>a:sw-&gt;b:nw</title>
<path fill="none" stroke="#000000" d="M67.4407,-180.6C58.4998,-171.6591 52.8224,-171.3876 48.2471,-159.6 42.7077,-145.3285 50.0453,-138.0896 60.1378,-128.7305"/>
<polygon fill="#000000" stroke="#000000" points="62.5964,-131.2225 67.4407,-121.8 57.7778,-126.145 62.5964,-131.2225"/>
<text text-anchor="middle" x="72.5375" y="-147" font-family="Times,serif" font-size="14.00" fill="#000000">[-inf, -1]</text>
</g>
<!-- b&#45;&gt;a -->
<g id="edge2" class="edge">
<title>b:ne-&gt;a:se</title>
<path fill="none" stroke="#000000" d="M97.4407,-121.8C113.3212,-137.6804 115.5543,-156.0444 104.1403,-172.6233"/>
<polygon fill="#000000" stroke="#000000" points="101.1921,-170.6915 97.4407,-180.6 106.5523,-175.1936 101.1921,-170.6915"/>
<text text-anchor="middle" x="130.8769" y="-147" font-family="Times,serif" font-size="14.00" fill="#000000">[1, inf]</text>
</g>
<!-- x -->
<g id="node3" class="node">
<title>x</title>
<ellipse fill="none" stroke="#000000" cx="33.4407" cy="-18" rx="27" ry="18"/>
<text text-anchor="middle" x="33.4407" y="-13.8" font-family="Times,serif" font-size="14.00" fill="#000000">x</text>
</g>
<!-- b&#45;&gt;x -->
<g id="edge4" class="edge">
<title>b-&gt;x</title>
<path fill="none" stroke="#000000" d="M56.1805,-102.4806C37.884,-97.9539 14.7508,-88.852 3.1195,-70.8 -3.3215,-60.8034 1.7541,-49.3962 9.4682,-39.7487"/>
<polygon fill="#000000" stroke="#000000" points="12.2523,-41.8886 16.3738,-32.1283 7.0652,-37.1881 12.2523,-41.8886"/>
<text text-anchor="middle" x="22.1013" y="-58.2" font-family="Times,serif" font-size="14.00" fill="#000000">[0, 10]</text>
</g>
<!-- y -->
<g id="node4" class="node">
<title>y</title>
<ellipse fill="none" stroke="#000000" cx="131.4407" cy="-18" rx="27" ry="18"/>
<text text-anchor="middle" x="131.4407" y="-13.8" font-family="Times,serif" font-size="14.00" fill="#000000">y</text>
</g>
<!-- b&#45;&gt;y -->
<g id="edge6" class="edge">
<title>b-&gt;y</title>
<path fill="none" stroke="#000000" d="M91.8884,-89.6785C99.0061,-76.7795 108.8911,-58.8655 116.9982,-44.1734"/>
<polygon fill="#000000" stroke="#000000" points="120.2551,-45.5154 122.022,-35.069 114.1263,-42.1335 120.2551,-45.5154"/>
<text text-anchor="middle" x="131.2619" y="-58.2" font-family="Times,serif" font-size="14.00" fill="#000000">[-5, -1]</text>
</g>
<!-- x&#45;&gt;b -->
<g id="edge3" class="edge">
<title>x-&gt;b</title>
<path fill="none" stroke="#000000" d="M37.6939,-35.8389C40.6566,-46.4263 45.2053,-59.8713 51.4589,-70.8 54.0543,-75.3357 57.2634,-79.832 60.6233,-84.0304"/>
<polygon fill="#000000" stroke="#000000" points="57.9921,-86.3389 67.1486,-91.6689 63.3145,-81.7921 57.9921,-86.3389"/>
<text text-anchor="middle" x="73.4316" y="-58.2" font-family="Times,serif" font-size="14.00" fill="#000000">[-10, 0]</text>
</g>
<!-- y&#45;&gt;b -->
<g id="edge5" class="edge">
<title>y-&gt;b</title>
<path fill="none" stroke="#000000" d="M146.8266,-33.2835C155.7884,-44.0997 163.9712,-58.7622 156.4407,-70.8 147.945,-84.3807 132.6957,-92.971 118.2385,-98.3372"/>
<polygon fill="#000000" stroke="#000000" points="116.8536,-95.1082 108.4489,-101.5589 119.0419,-101.7574 116.8536,-95.1082"/>
<text text-anchor="middle" x="173.6013" y="-58.2" font-family="Times,serif" font-size="14.00" fill="#000000">[1, 5]</text>
</g>
</g>
</svg>